%TF.GenerationSoftware,KiCad,Pcbnew,(6.0.2-0)*%
%TF.CreationDate,2022-04-02T10:18:43+01:00*%
%TF.ProjectId,Daikin,4461696b-696e-42e6-9b69-6361645f7063,1*%
%TF.SameCoordinates,Original*%
%TF.FileFunction,Soldermask,Bot*%
%TF.FilePolarity,Negative*%
%FSLAX46Y46*%
G04 Gerber Fmt 4.6, Leading zero omitted, Abs format (unit mm)*
G04 Created by KiCad (PCBNEW (6.0.2-0)) date 2022-04-02 10:18:43*
%MOMM*%
%LPD*%
G01*
G04 APERTURE LIST*
G04 Aperture macros list*
%AMRoundRect*
0 Rectangle with rounded corners*
0 $1 Rounding radius*
0 $2 $3 $4 $5 $6 $7 $8 $9 X,Y pos of 4 corners*
0 Add a 4 corners polygon primitive as box body*
4,1,4,$2,$3,$4,$5,$6,$7,$8,$9,$2,$3,0*
0 Add four circle primitives for the rounded corners*
1,1,$1+$1,$2,$3*
1,1,$1+$1,$4,$5*
1,1,$1+$1,$6,$7*
1,1,$1+$1,$8,$9*
0 Add four rect primitives between the rounded corners*
20,1,$1+$1,$2,$3,$4,$5,0*
20,1,$1+$1,$4,$5,$6,$7,0*
20,1,$1+$1,$6,$7,$8,$9,0*
20,1,$1+$1,$8,$9,$2,$3,0*%
G04 Aperture macros list end*
%ADD10RoundRect,0.010000X-0.350000X0.225000X-0.350000X-0.225000X0.350000X-0.225000X0.350000X0.225000X0*%
%ADD11RoundRect,0.010000X0.850000X-0.850000X0.850000X0.850000X-0.850000X0.850000X-0.850000X-0.850000X0*%
%ADD12O,1.720000X1.720000*%
%ADD13RoundRect,0.260000X-0.600000X-0.675000X0.600000X-0.675000X0.600000X0.675000X-0.600000X0.675000X0*%
%ADD14O,1.720000X1.870000*%
%ADD15RoundRect,0.210000X-0.275000X0.200000X-0.275000X-0.200000X0.275000X-0.200000X0.275000X0.200000X0*%
%ADD16RoundRect,0.210000X0.200000X0.275000X-0.200000X0.275000X-0.200000X-0.275000X0.200000X-0.275000X0*%
%ADD17RoundRect,0.210000X-0.200000X-0.275000X0.200000X-0.275000X0.200000X0.275000X-0.200000X0.275000X0*%
%ADD18RoundRect,0.010000X-0.425000X-0.250000X0.425000X-0.250000X0.425000X0.250000X-0.425000X0.250000X0*%
%ADD19RoundRect,0.010000X0.300000X-0.550000X0.300000X0.550000X-0.300000X0.550000X-0.300000X-0.550000X0*%
%ADD20RoundRect,0.010000X0.712500X-1.850000X0.712500X1.850000X-0.712500X1.850000X-0.712500X-1.850000X0*%
%ADD21RoundRect,0.259375X0.463125X0.625625X-0.463125X0.625625X-0.463125X-0.625625X0.463125X-0.625625X0*%
%ADD22RoundRect,0.235000X0.250000X-0.225000X0.250000X0.225000X-0.250000X0.225000X-0.250000X-0.225000X0*%
%ADD23RoundRect,0.260000X-0.475000X0.250000X-0.475000X-0.250000X0.475000X-0.250000X0.475000X0.250000X0*%
G04 APERTURE END LIST*
D10*
%TO.C,Q2*%
X98285714Y-53350000D03*
X98285714Y-54650000D03*
X96285714Y-54000000D03*
%TD*%
%TO.C,Q1*%
X102735714Y-53350000D03*
X102735714Y-54650000D03*
X100735714Y-54000000D03*
%TD*%
D11*
%TO.C,J2*%
X94750000Y-56750000D03*
D12*
X97290000Y-56750000D03*
X99830000Y-56750000D03*
X102370000Y-56750000D03*
X104910000Y-56750000D03*
%TD*%
D13*
%TO.C,J1*%
X96250000Y-51440000D03*
D14*
X98750000Y-51440000D03*
X101250000Y-51440000D03*
X103750000Y-51440000D03*
%TD*%
D15*
%TO.C,R2*%
X104550000Y-43900000D03*
X104550000Y-45550000D03*
%TD*%
D16*
%TO.C,C1*%
X99975000Y-47200000D03*
X98425000Y-47200000D03*
%TD*%
D17*
%TO.C,R6*%
X101700000Y-39500000D03*
X103350000Y-39500000D03*
%TD*%
D15*
%TO.C,R1*%
X102700000Y-43875000D03*
X102700000Y-45525000D03*
%TD*%
%TO.C,R3*%
X105850000Y-43875000D03*
X105850000Y-45525000D03*
%TD*%
D17*
%TO.C,R4*%
X95575000Y-47200000D03*
X97225000Y-47200000D03*
%TD*%
D18*
%TO.C,D1*%
X105775000Y-41100000D03*
X104025000Y-41100000D03*
X104025000Y-42100000D03*
X105775000Y-42100000D03*
%TD*%
D15*
%TO.C,C5*%
X94700000Y-49525000D03*
X94700000Y-51075000D03*
%TD*%
D19*
%TO.C,U2*%
X98900000Y-40250000D03*
D20*
X97450000Y-41650000D03*
D21*
X99052500Y-44770000D03*
D22*
X101950000Y-42625000D03*
X101950000Y-41075000D03*
D19*
X98900000Y-42950000D03*
X100800000Y-42950000D03*
D23*
X100700000Y-44200000D03*
D19*
X99850000Y-42950000D03*
X99850000Y-40250000D03*
D23*
X100700000Y-46100000D03*
X94450000Y-46100000D03*
D21*
X96087500Y-44770000D03*
D23*
X94450000Y-44200000D03*
D20*
X94450000Y-41650000D03*
D19*
X100800000Y-40250000D03*
%TD*%
D16*
%TO.C,R5*%
X105825000Y-39500000D03*
X104175000Y-39500000D03*
%TD*%
M02*
