%TF.GenerationSoftware,KiCad,Pcbnew,(6.0.5-0)*%
%TF.CreationDate,2022-06-02T09:50:00+01:00*%
%TF.ProjectId,Daikin,4461696b-696e-42e6-9b69-6361645f7063,1*%
%TF.SameCoordinates,Original*%
%TF.FileFunction,Soldermask,Bot*%
%TF.FilePolarity,Negative*%
%FSLAX46Y46*%
G04 Gerber Fmt 4.6, Leading zero omitted, Abs format (unit mm)*
G04 Created by KiCad (PCBNEW (6.0.5-0)) date 2022-06-02 09:50:00*
%MOMM*%
%LPD*%
G01*
G04 APERTURE LIST*
G04 Aperture macros list*
%AMRoundRect*
0 Rectangle with rounded corners*
0 $1 Rounding radius*
0 $2 $3 $4 $5 $6 $7 $8 $9 X,Y pos of 4 corners*
0 Add a 4 corners polygon primitive as box body*
4,1,4,$2,$3,$4,$5,$6,$7,$8,$9,$2,$3,0*
0 Add four circle primitives for the rounded corners*
1,1,$1+$1,$2,$3*
1,1,$1+$1,$4,$5*
1,1,$1+$1,$6,$7*
1,1,$1+$1,$8,$9*
0 Add four rect primitives between the rounded corners*
20,1,$1+$1,$2,$3,$4,$5,0*
20,1,$1+$1,$4,$5,$6,$7,0*
20,1,$1+$1,$6,$7,$8,$9,0*
20,1,$1+$1,$8,$9,$2,$3,0*%
%AMFreePoly0*
4,1,14,0.857071,0.857071,0.860000,0.850000,0.860000,-0.850000,0.857071,-0.857071,0.850000,-0.860000,-0.340000,-0.860000,-0.347071,-0.857071,-0.857071,-0.347071,-0.860000,-0.340000,-0.860000,0.850000,-0.857071,0.857071,-0.850000,0.860000,0.850000,0.860000,0.857071,0.857071,0.857071,0.857071,$1*%
G04 Aperture macros list end*
%ADD10FreePoly0,0.000000*%
%ADD11O,1.720000X1.720000*%
%ADD12RoundRect,0.260000X-0.600000X-0.675000X0.600000X-0.675000X0.600000X0.675000X-0.600000X0.675000X0*%
%ADD13O,1.720000X1.870000*%
%ADD14RoundRect,0.210000X-0.275000X0.200000X-0.275000X-0.200000X0.275000X-0.200000X0.275000X0.200000X0*%
%ADD15RoundRect,0.210000X0.275000X-0.200000X0.275000X0.200000X-0.275000X0.200000X-0.275000X-0.200000X0*%
%ADD16RoundRect,0.010000X0.350000X-0.225000X0.350000X0.225000X-0.350000X0.225000X-0.350000X-0.225000X0*%
%ADD17RoundRect,0.210000X-0.200000X-0.275000X0.200000X-0.275000X0.200000X0.275000X-0.200000X0.275000X0*%
%ADD18RoundRect,0.010000X-0.425000X-0.250000X0.425000X-0.250000X0.425000X0.250000X-0.425000X0.250000X0*%
%ADD19RoundRect,0.235000X0.250000X-0.225000X0.250000X0.225000X-0.250000X0.225000X-0.250000X-0.225000X0*%
%ADD20RoundRect,0.259375X0.463125X0.625625X-0.463125X0.625625X-0.463125X-0.625625X0.463125X-0.625625X0*%
%ADD21RoundRect,0.010000X0.712500X-1.850000X0.712500X1.850000X-0.712500X1.850000X-0.712500X-1.850000X0*%
%ADD22RoundRect,0.010000X0.300000X-0.550000X0.300000X0.550000X-0.300000X0.550000X-0.300000X-0.550000X0*%
%ADD23RoundRect,0.260000X-0.475000X0.250000X-0.475000X-0.250000X0.475000X-0.250000X0.475000X0.250000X0*%
%ADD24RoundRect,0.210000X0.200000X0.275000X-0.200000X0.275000X-0.200000X-0.275000X0.200000X-0.275000X0*%
G04 APERTURE END LIST*
D10*
%TO.C,J2*%
X104880000Y-56300000D03*
D11*
X102340000Y-56300000D03*
X99800000Y-56300000D03*
X97260000Y-56300000D03*
X94720000Y-56300000D03*
%TD*%
D12*
%TO.C,J1*%
X96050000Y-51340000D03*
D13*
X98550000Y-51340000D03*
X101050000Y-51340000D03*
X103550000Y-51340000D03*
%TD*%
D14*
%TO.C,R2*%
X104350000Y-43800000D03*
X104350000Y-45450000D03*
%TD*%
D15*
%TO.C,C1*%
X97300000Y-49425000D03*
X97300000Y-47875000D03*
%TD*%
D16*
%TO.C,Q3*%
X103050000Y-49050000D03*
X103050000Y-47750000D03*
X105050000Y-48400000D03*
%TD*%
D17*
%TO.C,R6*%
X101500000Y-39400000D03*
X103150000Y-39400000D03*
%TD*%
D14*
%TO.C,R1*%
X103100000Y-43775000D03*
X103100000Y-45425000D03*
%TD*%
%TO.C,R3*%
X105650000Y-43775000D03*
X105650000Y-45425000D03*
%TD*%
D17*
%TO.C,R4*%
X94475000Y-48150000D03*
X96125000Y-48150000D03*
%TD*%
D18*
%TO.C,D1*%
X105575000Y-41600000D03*
X103825000Y-41600000D03*
X103825000Y-42600000D03*
X105575000Y-42600000D03*
%TD*%
D17*
%TO.C,C5*%
X94525000Y-49400000D03*
X96075000Y-49400000D03*
%TD*%
D19*
%TO.C,U2*%
X101750000Y-42525000D03*
D20*
X98852500Y-44670000D03*
D21*
X97250000Y-41550000D03*
D22*
X98700000Y-42850000D03*
D19*
X101750000Y-40975000D03*
D22*
X98700000Y-40150000D03*
X100600000Y-42850000D03*
D23*
X100500000Y-44100000D03*
D22*
X99650000Y-42850000D03*
D23*
X94250000Y-46000000D03*
X100500000Y-46000000D03*
D20*
X95887500Y-44670000D03*
D22*
X99650000Y-40150000D03*
D23*
X94250000Y-44100000D03*
D21*
X94250000Y-41550000D03*
D22*
X100600000Y-40150000D03*
%TD*%
D24*
%TO.C,R5*%
X105625000Y-39400000D03*
X103975000Y-39400000D03*
%TD*%
M02*
