%TF.GenerationSoftware,KiCad,Pcbnew,(6.0.9-0)*%
%TF.CreationDate,2023-01-05T14:31:28+00:00*%
%TF.ProjectId,Daikin,4461696b-696e-42e6-9b69-6361645f7063,1*%
%TF.SameCoordinates,Original*%
%TF.FileFunction,Legend,Top*%
%TF.FilePolarity,Positive*%
%FSLAX46Y46*%
G04 Gerber Fmt 4.6, Leading zero omitted, Abs format (unit mm)*
G04 Created by KiCad (PCBNEW (6.0.9-0)) date 2023-01-05 14:31:28*
%MOMM*%
%LPD*%
G01*
G04 APERTURE LIST*
%ADD10C,0.150000*%
%ADD11C,0.100000*%
%ADD12C,0.200000*%
G04 APERTURE END LIST*
D10*
%TO.C,*%
D11*
%TO.C,U1*%
X96157142Y-40153964D02*
X96192857Y-40118250D01*
X96264285Y-40082535D01*
X96442857Y-40082535D01*
X96514285Y-40118250D01*
X96550000Y-40153964D01*
X96585714Y-40225392D01*
X96585714Y-40296821D01*
X96550000Y-40403964D01*
X96121428Y-40832535D01*
X96585714Y-40832535D01*
X97050000Y-40082535D02*
X97121428Y-40082535D01*
X97192857Y-40118250D01*
X97228571Y-40153964D01*
X97264285Y-40225392D01*
X97300000Y-40368250D01*
X97300000Y-40546821D01*
X97264285Y-40689678D01*
X97228571Y-40761107D01*
X97192857Y-40796821D01*
X97121428Y-40832535D01*
X97050000Y-40832535D01*
X96978571Y-40796821D01*
X96942857Y-40761107D01*
X96907142Y-40689678D01*
X96871428Y-40546821D01*
X96871428Y-40368250D01*
X96907142Y-40225392D01*
X96942857Y-40153964D01*
X96978571Y-40118250D01*
X97050000Y-40082535D01*
X97585714Y-40153964D02*
X97621428Y-40118250D01*
X97692857Y-40082535D01*
X97871428Y-40082535D01*
X97942857Y-40118250D01*
X97978571Y-40153964D01*
X98014285Y-40225392D01*
X98014285Y-40296821D01*
X97978571Y-40403964D01*
X97550000Y-40832535D01*
X98014285Y-40832535D01*
X98300000Y-40153964D02*
X98335714Y-40118250D01*
X98407142Y-40082535D01*
X98585714Y-40082535D01*
X98657142Y-40118250D01*
X98692857Y-40153964D01*
X98728571Y-40225392D01*
X98728571Y-40296821D01*
X98692857Y-40403964D01*
X98264285Y-40832535D01*
X98728571Y-40832535D01*
X99050000Y-40546821D02*
X99621428Y-40546821D01*
X100121428Y-40082535D02*
X100192857Y-40082535D01*
X100264285Y-40118250D01*
X100300000Y-40153964D01*
X100335714Y-40225392D01*
X100371428Y-40368250D01*
X100371428Y-40546821D01*
X100335714Y-40689678D01*
X100300000Y-40761107D01*
X100264285Y-40796821D01*
X100192857Y-40832535D01*
X100121428Y-40832535D01*
X100050000Y-40796821D01*
X100014285Y-40761107D01*
X99978571Y-40689678D01*
X99942857Y-40546821D01*
X99942857Y-40368250D01*
X99978571Y-40225392D01*
X100014285Y-40153964D01*
X100050000Y-40118250D01*
X100121428Y-40082535D01*
X101014285Y-40082535D02*
X100871428Y-40082535D01*
X100800000Y-40118250D01*
X100764285Y-40153964D01*
X100692857Y-40261107D01*
X100657142Y-40403964D01*
X100657142Y-40689678D01*
X100692857Y-40761107D01*
X100728571Y-40796821D01*
X100800000Y-40832535D01*
X100942857Y-40832535D01*
X101014285Y-40796821D01*
X101050000Y-40761107D01*
X101085714Y-40689678D01*
X101085714Y-40511107D01*
X101050000Y-40439678D01*
X101014285Y-40403964D01*
X100942857Y-40368250D01*
X100800000Y-40368250D01*
X100728571Y-40403964D01*
X100692857Y-40439678D01*
X100657142Y-40511107D01*
X101407142Y-40546821D02*
X101978571Y-40546821D01*
X102478571Y-40082535D02*
X102550000Y-40082535D01*
X102621428Y-40118250D01*
X102657142Y-40153964D01*
X102692857Y-40225392D01*
X102728571Y-40368250D01*
X102728571Y-40546821D01*
X102692857Y-40689678D01*
X102657142Y-40761107D01*
X102621428Y-40796821D01*
X102550000Y-40832535D01*
X102478571Y-40832535D01*
X102407142Y-40796821D01*
X102371428Y-40761107D01*
X102335714Y-40689678D01*
X102300000Y-40546821D01*
X102300000Y-40368250D01*
X102335714Y-40225392D01*
X102371428Y-40153964D01*
X102407142Y-40118250D01*
X102478571Y-40082535D01*
X103014285Y-40153964D02*
X103050000Y-40118250D01*
X103121428Y-40082535D01*
X103300000Y-40082535D01*
X103371428Y-40118250D01*
X103407142Y-40153964D01*
X103442857Y-40225392D01*
X103442857Y-40296821D01*
X103407142Y-40403964D01*
X102978571Y-40832535D01*
X103442857Y-40832535D01*
D12*
X106300000Y-48693250D02*
X106300000Y-49593250D01*
X106300000Y-49593250D02*
X105400000Y-49593250D01*
X106300000Y-38993250D02*
X106300000Y-39493250D01*
X93300000Y-48693250D02*
X93300000Y-49593250D01*
X93300000Y-49593250D02*
X94200000Y-49593250D01*
X93300000Y-38993250D02*
X93300000Y-39493250D01*
%TD*%
M02*
