%TF.GenerationSoftware,KiCad,Pcbnew,(6.0.2-0)*%
%TF.CreationDate,2022-04-04T13:28:19+01:00*%
%TF.ProjectId,Daikin,4461696b-696e-42e6-9b69-6361645f7063,1*%
%TF.SameCoordinates,Original*%
%TF.FileFunction,Legend,Top*%
%TF.FilePolarity,Positive*%
%FSLAX46Y46*%
G04 Gerber Fmt 4.6, Leading zero omitted, Abs format (unit mm)*
G04 Created by KiCad (PCBNEW (6.0.2-0)) date 2022-04-04 13:28:19*
%MOMM*%
%LPD*%
G01*
G04 APERTURE LIST*
%ADD10C,0.100000*%
%ADD11C,0.120000*%
G04 APERTURE END LIST*
D10*
%TO.C,U1*%
X96357142Y-40253964D02*
X96392857Y-40218250D01*
X96464285Y-40182535D01*
X96642857Y-40182535D01*
X96714285Y-40218250D01*
X96750000Y-40253964D01*
X96785714Y-40325392D01*
X96785714Y-40396821D01*
X96750000Y-40503964D01*
X96321428Y-40932535D01*
X96785714Y-40932535D01*
X97250000Y-40182535D02*
X97321428Y-40182535D01*
X97392857Y-40218250D01*
X97428571Y-40253964D01*
X97464285Y-40325392D01*
X97500000Y-40468250D01*
X97500000Y-40646821D01*
X97464285Y-40789678D01*
X97428571Y-40861107D01*
X97392857Y-40896821D01*
X97321428Y-40932535D01*
X97250000Y-40932535D01*
X97178571Y-40896821D01*
X97142857Y-40861107D01*
X97107142Y-40789678D01*
X97071428Y-40646821D01*
X97071428Y-40468250D01*
X97107142Y-40325392D01*
X97142857Y-40253964D01*
X97178571Y-40218250D01*
X97250000Y-40182535D01*
X97785714Y-40253964D02*
X97821428Y-40218250D01*
X97892857Y-40182535D01*
X98071428Y-40182535D01*
X98142857Y-40218250D01*
X98178571Y-40253964D01*
X98214285Y-40325392D01*
X98214285Y-40396821D01*
X98178571Y-40503964D01*
X97750000Y-40932535D01*
X98214285Y-40932535D01*
X98500000Y-40253964D02*
X98535714Y-40218250D01*
X98607142Y-40182535D01*
X98785714Y-40182535D01*
X98857142Y-40218250D01*
X98892857Y-40253964D01*
X98928571Y-40325392D01*
X98928571Y-40396821D01*
X98892857Y-40503964D01*
X98464285Y-40932535D01*
X98928571Y-40932535D01*
X99250000Y-40646821D02*
X99821428Y-40646821D01*
X100321428Y-40182535D02*
X100392857Y-40182535D01*
X100464285Y-40218250D01*
X100500000Y-40253964D01*
X100535714Y-40325392D01*
X100571428Y-40468250D01*
X100571428Y-40646821D01*
X100535714Y-40789678D01*
X100500000Y-40861107D01*
X100464285Y-40896821D01*
X100392857Y-40932535D01*
X100321428Y-40932535D01*
X100250000Y-40896821D01*
X100214285Y-40861107D01*
X100178571Y-40789678D01*
X100142857Y-40646821D01*
X100142857Y-40468250D01*
X100178571Y-40325392D01*
X100214285Y-40253964D01*
X100250000Y-40218250D01*
X100321428Y-40182535D01*
X101214285Y-40432535D02*
X101214285Y-40932535D01*
X101035714Y-40146821D02*
X100857142Y-40682535D01*
X101321428Y-40682535D01*
X101607142Y-40646821D02*
X102178571Y-40646821D01*
X102678571Y-40182535D02*
X102750000Y-40182535D01*
X102821428Y-40218250D01*
X102857142Y-40253964D01*
X102892857Y-40325392D01*
X102928571Y-40468250D01*
X102928571Y-40646821D01*
X102892857Y-40789678D01*
X102857142Y-40861107D01*
X102821428Y-40896821D01*
X102750000Y-40932535D01*
X102678571Y-40932535D01*
X102607142Y-40896821D01*
X102571428Y-40861107D01*
X102535714Y-40789678D01*
X102500000Y-40646821D01*
X102500000Y-40468250D01*
X102535714Y-40325392D01*
X102571428Y-40253964D01*
X102607142Y-40218250D01*
X102678571Y-40182535D01*
X103214285Y-40253964D02*
X103250000Y-40218250D01*
X103321428Y-40182535D01*
X103500000Y-40182535D01*
X103571428Y-40218250D01*
X103607142Y-40253964D01*
X103642857Y-40325392D01*
X103642857Y-40396821D01*
X103607142Y-40503964D01*
X103178571Y-40932535D01*
X103642857Y-40932535D01*
D11*
X93700000Y-49793250D02*
X106300000Y-49793250D01*
%TO.C,J1*%
X106000000Y-50440000D02*
X105000000Y-50440000D01*
X106000000Y-51440000D02*
X106000000Y-50440000D01*
X94000000Y-51440000D02*
X94000000Y-50440000D01*
X94000000Y-50440000D02*
X95000000Y-50440000D01*
%TD*%
M02*
