%TF.GenerationSoftware,KiCad,Pcbnew,(6.0.2-0)*%
%TF.CreationDate,2022-04-03T14:45:23+01:00*%
%TF.ProjectId,Daikin,4461696b-696e-42e6-9b69-6361645f7063,1*%
%TF.SameCoordinates,Original*%
%TF.FileFunction,Copper,L1,Top*%
%TF.FilePolarity,Positive*%
%FSLAX46Y46*%
G04 Gerber Fmt 4.6, Leading zero omitted, Abs format (unit mm)*
G04 Created by KiCad (PCBNEW (6.0.2-0)) date 2022-04-03 14:45:23*
%MOMM*%
%LPD*%
G01*
G04 APERTURE LIST*
G04 Aperture macros list*
%AMRoundRect*
0 Rectangle with rounded corners*
0 $1 Rounding radius*
0 $2 $3 $4 $5 $6 $7 $8 $9 X,Y pos of 4 corners*
0 Add a 4 corners polygon primitive as box body*
4,1,4,$2,$3,$4,$5,$6,$7,$8,$9,$2,$3,0*
0 Add four circle primitives for the rounded corners*
1,1,$1+$1,$2,$3*
1,1,$1+$1,$4,$5*
1,1,$1+$1,$6,$7*
1,1,$1+$1,$8,$9*
0 Add four rect primitives between the rounded corners*
20,1,$1+$1,$2,$3,$4,$5,0*
20,1,$1+$1,$4,$5,$6,$7,0*
20,1,$1+$1,$6,$7,$8,$9,0*
20,1,$1+$1,$8,$9,$2,$3,0*%
%AMOutline5P*
0 Free polygon, 5 corners , with rotation*
0 The origin of the aperture is its center*
0 number of corners: always 5*
0 $1 to $10 corner X, Y*
0 $11 Rotation angle, in degrees counterclockwise*
0 create outline with 5 corners*
4,1,5,$1,$2,$3,$4,$5,$6,$7,$8,$9,$10,$1,$2,$11*%
%AMOutline6P*
0 Free polygon, 6 corners , with rotation*
0 The origin of the aperture is its center*
0 number of corners: always 6*
0 $1 to $12 corner X, Y*
0 $13 Rotation angle, in degrees counterclockwise*
0 create outline with 6 corners*
4,1,6,$1,$2,$3,$4,$5,$6,$7,$8,$9,$10,$11,$12,$1,$2,$13*%
%AMOutline7P*
0 Free polygon, 7 corners , with rotation*
0 The origin of the aperture is its center*
0 number of corners: always 7*
0 $1 to $14 corner X, Y*
0 $15 Rotation angle, in degrees counterclockwise*
0 create outline with 7 corners*
4,1,7,$1,$2,$3,$4,$5,$6,$7,$8,$9,$10,$11,$12,$13,$14,$1,$2,$15*%
%AMOutline8P*
0 Free polygon, 8 corners , with rotation*
0 The origin of the aperture is its center*
0 number of corners: always 8*
0 $1 to $16 corner X, Y*
0 $17 Rotation angle, in degrees counterclockwise*
0 create outline with 8 corners*
4,1,8,$1,$2,$3,$4,$5,$6,$7,$8,$9,$10,$11,$12,$13,$14,$15,$16,$1,$2,$17*%
G04 Aperture macros list end*
%TA.AperFunction,SMDPad,CuDef*%
%ADD10R,0.800000X0.400000*%
%TD*%
%TA.AperFunction,SMDPad,CuDef*%
%ADD11R,0.400000X0.800000*%
%TD*%
%TA.AperFunction,SMDPad,CuDef*%
%ADD12R,1.450000X1.450000*%
%TD*%
%TA.AperFunction,SMDPad,CuDef*%
%ADD13Outline5P,-0.725000X0.130500X-0.130500X0.725000X0.725000X0.725000X0.725000X-0.725000X-0.725000X-0.725000X0.000000*%
%TD*%
%TA.AperFunction,SMDPad,CuDef*%
%ADD14R,0.700000X0.700000*%
%TD*%
%TA.AperFunction,ComponentPad*%
%ADD15RoundRect,0.250000X-0.600000X-0.675000X0.600000X-0.675000X0.600000X0.675000X-0.600000X0.675000X0*%
%TD*%
%TA.AperFunction,ComponentPad*%
%ADD16O,1.700000X1.850000*%
%TD*%
%TA.AperFunction,ComponentPad*%
%ADD17R,1.700000X1.700000*%
%TD*%
%TA.AperFunction,ComponentPad*%
%ADD18O,1.700000X1.700000*%
%TD*%
%TA.AperFunction,ViaPad*%
%ADD19C,0.800000*%
%TD*%
%TA.AperFunction,Conductor*%
%ADD20C,0.250000*%
%TD*%
G04 APERTURE END LIST*
D10*
%TO.P,U1,1,GND*%
%TO.N,GND*%
X94100000Y-40193250D03*
%TO.P,U1,2,GND*%
X94100000Y-40993250D03*
%TO.P,U1,3,3V3*%
%TO.N,+3V3*%
X94100000Y-41793250D03*
%TO.P,U1,4,I36*%
%TO.N,unconnected-(U1-Pad4)*%
X94100000Y-42593250D03*
%TO.P,U1,5,I37*%
%TO.N,unconnected-(U1-Pad5)*%
X94100000Y-43393250D03*
%TO.P,U1,6,I38*%
%TO.N,unconnected-(U1-Pad6)*%
X94100000Y-44193250D03*
%TO.P,U1,7,I39*%
%TO.N,unconnected-(U1-Pad7)*%
X94100000Y-44993250D03*
%TO.P,U1,8,EN*%
%TO.N,EN*%
X94100000Y-45793250D03*
%TO.P,U1,9,I34*%
%TO.N,unconnected-(U1-Pad9)*%
X94100000Y-46593250D03*
%TO.P,U1,10,I35*%
%TO.N,unconnected-(U1-Pad10)*%
X94100000Y-47393250D03*
%TO.P,U1,11,GND*%
%TO.N,GND*%
X94100000Y-48193250D03*
D11*
%TO.P,U1,12,IO32*%
%TO.N,unconnected-(U1-Pad12)*%
X95200000Y-49093250D03*
%TO.P,U1,13,IO33*%
%TO.N,unconnected-(U1-Pad13)*%
X96000000Y-49093250D03*
%TO.P,U1,14,GND*%
%TO.N,GND*%
X96800000Y-49093250D03*
%TO.P,U1,15,IO25*%
%TO.N,unconnected-(U1-Pad15)*%
X97600000Y-49093250D03*
%TO.P,U1,16,IO26*%
%TO.N,TX*%
X98400000Y-49093250D03*
%TO.P,U1,17,IO27*%
%TO.N,RX*%
X99200000Y-49093250D03*
%TO.P,U1,18,IO14*%
%TO.N,unconnected-(U1-Pad18)*%
X100000000Y-49093250D03*
%TO.P,U1,19,IO12*%
%TO.N,unconnected-(U1-Pad19)*%
X100800000Y-49093250D03*
%TO.P,U1,20,IO13*%
%TO.N,unconnected-(U1-Pad20)*%
X101600000Y-49093250D03*
%TO.P,U1,21,IO15*%
%TO.N,unconnected-(U1-Pad21)*%
X102400000Y-49093250D03*
%TO.P,U1,22,IO2*%
%TO.N,unconnected-(U1-Pad22)*%
X103200000Y-49093250D03*
%TO.P,U1,23,IO0*%
%TO.N,GPIO0*%
X104000000Y-49093250D03*
%TO.P,U1,24,IO4*%
%TO.N,unconnected-(U1-Pad24)*%
X104800000Y-49093250D03*
D10*
%TO.P,U1,25,NC*%
%TO.N,unconnected-(U1-Pad25)*%
X105900000Y-48193250D03*
%TO.P,U1,26,IO20*%
%TO.N,unconnected-(U1-Pad26)*%
X105900000Y-47393250D03*
%TO.P,U1,27,IO7*%
%TO.N,B*%
X105900000Y-46593250D03*
%TO.P,U1,28,IO8*%
%TO.N,G*%
X105900000Y-45793250D03*
%TO.P,U1,29,IO5*%
%TO.N,unconnected-(U1-Pad29)*%
X105900000Y-44993250D03*
%TO.P,U1,30,RXD0*%
%TO.N,I*%
X105900000Y-44193250D03*
%TO.P,U1,31,TXD0*%
%TO.N,O*%
X105900000Y-43393250D03*
%TO.P,U1,32,NC*%
%TO.N,unconnected-(U1-Pad32)*%
X105900000Y-42593250D03*
%TO.P,U1,33,IO19*%
%TO.N,R*%
X105900000Y-41793250D03*
%TO.P,U1,34,IO22*%
%TO.N,unconnected-(U1-Pad34)*%
X105900000Y-40993250D03*
%TO.P,U1,35,IO21*%
%TO.N,unconnected-(U1-Pad35)*%
X105900000Y-40193250D03*
D11*
%TO.P,U1,36,GND*%
%TO.N,GND*%
X104800000Y-39293250D03*
%TO.P,U1,37,GND*%
X104000000Y-39293250D03*
%TO.P,U1,38,GND*%
X103200000Y-39293250D03*
%TO.P,U1,39,GND*%
X102400000Y-39293250D03*
%TO.P,U1,40,GND*%
X101600000Y-39293250D03*
%TO.P,U1,41,GND*%
X100800000Y-39293250D03*
%TO.P,U1,42,GND*%
X100000000Y-39293250D03*
%TO.P,U1,43,GND*%
X99200000Y-39293250D03*
%TO.P,U1,44,GND*%
X98400000Y-39293250D03*
%TO.P,U1,45,GND*%
X97600000Y-39293250D03*
%TO.P,U1,46,GND*%
X96800000Y-39293250D03*
%TO.P,U1,47,GND*%
X96000000Y-39293250D03*
%TO.P,U1,48,GND*%
X95200000Y-39293250D03*
D12*
%TO.P,U1,49,GND*%
X101975000Y-44193250D03*
X98025000Y-44193250D03*
X100000000Y-44193250D03*
X101975000Y-42218250D03*
X101975000Y-46168250D03*
D13*
X98025000Y-42218250D03*
D12*
X100000000Y-42218250D03*
X98025000Y-46168250D03*
X100000000Y-46168250D03*
D14*
%TO.P,U1,50,GND*%
X105950000Y-39243250D03*
%TO.P,U1,51,GND*%
X105950000Y-49143250D03*
%TO.P,U1,52,GND*%
X94050000Y-49143250D03*
%TO.P,U1,53,GND*%
X94050000Y-39243250D03*
%TD*%
D15*
%TO.P,J1,1,Pin_1*%
%TO.N,GND*%
X96250000Y-51440000D03*
D16*
%TO.P,J1,2,Pin_2*%
%TO.N,DC*%
X98750000Y-51440000D03*
%TO.P,J1,3,Pin_3*%
%TO.N,TX*%
X101250000Y-51440000D03*
%TO.P,J1,4,Pin_4*%
%TO.N,Net-(J1-Pad4)*%
X103750000Y-51440000D03*
%TD*%
D17*
%TO.P,J2,1,Pin_1*%
%TO.N,GND*%
X105080000Y-56400000D03*
D18*
%TO.P,J2,2,Pin_2*%
%TO.N,GPIO0*%
X102540000Y-56400000D03*
%TO.P,J2,3,Pin_3*%
%TO.N,+3V3*%
X100000000Y-56400000D03*
%TO.P,J2,4,Pin_4*%
%TO.N,I*%
X97460000Y-56400000D03*
%TO.P,J2,5,Pin_5*%
%TO.N,O*%
X94920000Y-56400000D03*
%TD*%
D19*
%TO.N,GND*%
X95900000Y-40600000D03*
%TO.N,+3V3*%
X96225500Y-46949450D03*
X104100000Y-40850498D03*
%TO.N,GND*%
X105400000Y-54400000D03*
X105400000Y-50800000D03*
X95100000Y-54400000D03*
%TO.N,+3V3*%
X95100000Y-41500000D03*
%TO.N,O*%
X103100989Y-47400000D03*
%TO.N,RX*%
X101400000Y-48093748D03*
%TO.N,I*%
X104106755Y-46693245D03*
%TO.N,G*%
X104900383Y-44895939D03*
%TO.N,R*%
X103063789Y-40881895D03*
%TO.N,GND*%
X97600000Y-44800000D03*
%TO.N,B*%
X105143568Y-46702392D03*
%TO.N,+3V3*%
X94524500Y-50497515D03*
%TO.N,EN*%
X97878044Y-47603592D03*
%TD*%
D20*
%TO.N,GND*%
X93745489Y-49447761D02*
G75*
G02*
X94050000Y-49143250I304510J1D01*
G01*
X94458990Y-57600000D02*
X103880000Y-57600000D01*
X94458990Y-57600000D02*
G75*
G02*
X93745489Y-56886499I1J713502D01*
G01*
X93745489Y-49447761D02*
X93745489Y-56886499D01*
X105080000Y-56400000D02*
G75*
G02*
X103880000Y-57600000I-1200000J0D01*
G01*
X93745489Y-49447761D02*
X94050000Y-49143250D01*
%TO.N,+3V3*%
X94524500Y-50497515D02*
X94524500Y-52524500D01*
X95200000Y-53200000D02*
G75*
G02*
X94524500Y-52524500I-1J675499D01*
G01*
X97931371Y-54331371D02*
G75*
G03*
X95200000Y-53200000I-2731373J-2731375D01*
G01*
X97931371Y-54331371D02*
X100000000Y-56400000D01*
%TO.N,TX*%
X101250000Y-51440000D02*
X101250000Y-50350000D01*
X100800000Y-49900000D02*
X99206750Y-49900000D01*
X100800000Y-49900000D02*
G75*
G02*
X101250000Y-50350000I0J-450000D01*
G01*
X98400000Y-49093250D02*
G75*
G03*
X99206750Y-49900000I806751J1D01*
G01*
%TO.N,GPIO0*%
X103743250Y-50000000D02*
G75*
G03*
X104000000Y-49743250I1J256749D01*
G01*
X103743250Y-50000000D02*
X103300000Y-50000000D01*
X102540000Y-50760000D02*
G75*
G02*
X103300000Y-50000000I760001J-1D01*
G01*
X102540000Y-50760000D02*
X102540000Y-56400000D01*
X104000000Y-49093250D02*
X104000000Y-49743250D01*
%TO.N,B*%
X105900000Y-46593250D02*
X105252710Y-46593250D01*
X105143568Y-46702392D02*
G75*
G02*
X105252710Y-46593250I109142J0D01*
G01*
%TO.N,G*%
X104900383Y-44895939D02*
X104900383Y-45443633D01*
X105250000Y-45793250D02*
G75*
G02*
X104900383Y-45443633I-2J349615D01*
G01*
X105250000Y-45793250D02*
X105900000Y-45793250D01*
%TO.N,I*%
X104635704Y-44100000D02*
G75*
G03*
X104017852Y-44717852I1J-617853D01*
G01*
X104635704Y-44100000D02*
X105806750Y-44100000D01*
X105900000Y-44193250D02*
G75*
G03*
X105806750Y-44100000I-93249J1D01*
G01*
X104106755Y-46693245D02*
X104017852Y-46604342D01*
X104017852Y-46604342D02*
X104017852Y-44717852D01*
%TO.N,O*%
X103993250Y-43393250D02*
G75*
G03*
X103200000Y-44186500I2J-793252D01*
G01*
X103100989Y-47299011D02*
X103200000Y-47200000D01*
X103993250Y-43393250D02*
X105900000Y-43393250D01*
X103100989Y-47400000D02*
X103100989Y-47299011D01*
X103200000Y-47200000D02*
X103200000Y-44186500D01*
%TO.N,RX*%
X101400000Y-48093748D02*
X100199502Y-48093748D01*
X99200000Y-49093250D02*
G75*
G02*
X100199502Y-48093748I999501J1D01*
G01*
%TO.N,GND*%
X96874511Y-48368739D02*
X98031261Y-48368739D01*
X98372683Y-48227318D02*
G75*
G02*
X98031261Y-48368739I-341422J341424D01*
G01*
X98800000Y-47800000D02*
X100000000Y-46600000D01*
X98372683Y-48227318D02*
X98800000Y-47800000D01*
X96800000Y-49093250D02*
X96800000Y-48443250D01*
X96874511Y-48368739D02*
G75*
G03*
X96800000Y-48443250I1J-74512D01*
G01*
X100000000Y-46600000D02*
X100000000Y-46168250D01*
X96800000Y-49093250D02*
G75*
G03*
X95900000Y-48193250I-900000J0D01*
G01*
%TO.N,EN*%
X94975725Y-46219953D02*
G75*
G03*
X94549022Y-45793250I-426702J1D01*
G01*
X95925401Y-47673951D02*
G75*
G02*
X94975725Y-46724275I1J949677D01*
G01*
X97878044Y-47603592D02*
G75*
G02*
X97807685Y-47673951I-70360J1D01*
G01*
X94975725Y-46219953D02*
X94975725Y-46724275D01*
X95925401Y-47673951D02*
X97807685Y-47673951D01*
X94100000Y-45793250D02*
X94549022Y-45793250D01*
%TO.N,+3V3*%
X95000000Y-41986500D02*
X95000000Y-44200000D01*
X96077595Y-46801546D02*
G75*
G02*
X95000000Y-44200000I2601552J2601548D01*
G01*
X96077595Y-46801546D02*
X96225500Y-46949450D01*
X103600000Y-40100000D02*
G75*
G02*
X104100000Y-40600000I-1J-500001D01*
G01*
X97855437Y-40944563D02*
G75*
G02*
X99894392Y-40100000I2038957J-2038959D01*
G01*
X96514494Y-41500000D02*
G75*
G03*
X97855437Y-40944563I1J1896376D01*
G01*
X103600000Y-40100000D02*
X99894392Y-40100000D01*
X104100000Y-40850498D02*
X104100000Y-40600000D01*
X96514494Y-41500000D02*
X95100000Y-41500000D01*
%TO.N,R*%
X104293250Y-41793250D02*
X105900000Y-41793250D01*
X103063789Y-40881895D02*
X103750209Y-41568315D01*
X104293250Y-41793250D02*
G75*
G02*
X103750209Y-41568315I1J767978D01*
G01*
%TO.N,+3V3*%
X94806750Y-41793250D02*
X95000000Y-41986500D01*
X95100000Y-41500000D02*
X94806750Y-41793250D01*
X94806750Y-41793250D02*
X94100000Y-41793250D01*
%TO.N,GND*%
X96250000Y-51440000D02*
X99000000Y-54190000D01*
X99000000Y-54190000D02*
X99000000Y-54400000D01*
X96800000Y-49093250D02*
X96800000Y-50890000D01*
X96800000Y-50890000D02*
X96250000Y-51440000D01*
X96800000Y-48443250D02*
X96550000Y-48193250D01*
X94100000Y-48193250D02*
X96550000Y-48193250D01*
%TD*%
%TA.AperFunction,Conductor*%
%TO.N,GND*%
G36*
X100543955Y-50299502D02*
G01*
X100590448Y-50353158D01*
X100600552Y-50423432D01*
X100571058Y-50488012D01*
X100548734Y-50508269D01*
X100529907Y-50521624D01*
X100529900Y-50521630D01*
X100525014Y-50525096D01*
X100379272Y-50677340D01*
X100376021Y-50682375D01*
X100290297Y-50815139D01*
X100264948Y-50854397D01*
X100186166Y-51049878D01*
X100145771Y-51256729D01*
X100145500Y-51262270D01*
X100145500Y-51567659D01*
X100160493Y-51724806D01*
X100219823Y-51927042D01*
X100222573Y-51932381D01*
X100301960Y-52086520D01*
X100316324Y-52114410D01*
X100328721Y-52130192D01*
X100442808Y-52275432D01*
X100442812Y-52275436D01*
X100446514Y-52280149D01*
X100451044Y-52284080D01*
X100451045Y-52284081D01*
X100601165Y-52414350D01*
X100601170Y-52414354D01*
X100605696Y-52418281D01*
X100788126Y-52523819D01*
X100987222Y-52592957D01*
X100993155Y-52593817D01*
X100993158Y-52593818D01*
X101189860Y-52622338D01*
X101189863Y-52622338D01*
X101195800Y-52623199D01*
X101406333Y-52613455D01*
X101412157Y-52612051D01*
X101412160Y-52612051D01*
X101605393Y-52565482D01*
X101605395Y-52565481D01*
X101611226Y-52564076D01*
X101616684Y-52561594D01*
X101616688Y-52561593D01*
X101742427Y-52504422D01*
X101803084Y-52476843D01*
X101961601Y-52364399D01*
X102028734Y-52341301D01*
X102097699Y-52358165D01*
X102146598Y-52409637D01*
X102160500Y-52467169D01*
X102160500Y-55274839D01*
X102140498Y-55342960D01*
X102086842Y-55389453D01*
X102078118Y-55393049D01*
X102062463Y-55398824D01*
X101888010Y-55502612D01*
X101883670Y-55506418D01*
X101883666Y-55506421D01*
X101863723Y-55523911D01*
X101735392Y-55636455D01*
X101609720Y-55795869D01*
X101607031Y-55800980D01*
X101607029Y-55800983D01*
X101594073Y-55825609D01*
X101515203Y-55975515D01*
X101455007Y-56169378D01*
X101431148Y-56370964D01*
X101444424Y-56573522D01*
X101445845Y-56579118D01*
X101445846Y-56579123D01*
X101464863Y-56654000D01*
X101494392Y-56770269D01*
X101496809Y-56775512D01*
X101534010Y-56856208D01*
X101579377Y-56954616D01*
X101696533Y-57120389D01*
X101841938Y-57262035D01*
X102010720Y-57374812D01*
X102016023Y-57377090D01*
X102016026Y-57377092D01*
X102104707Y-57415192D01*
X102197228Y-57454942D01*
X102270244Y-57471464D01*
X102389579Y-57498467D01*
X102389584Y-57498468D01*
X102395216Y-57499742D01*
X102400987Y-57499969D01*
X102400989Y-57499969D01*
X102460756Y-57502317D01*
X102598053Y-57507712D01*
X102698499Y-57493148D01*
X102793231Y-57479413D01*
X102793236Y-57479412D01*
X102798945Y-57478584D01*
X102804409Y-57476729D01*
X102804414Y-57476728D01*
X102985693Y-57415192D01*
X102985698Y-57415190D01*
X102991165Y-57413334D01*
X103168276Y-57314147D01*
X103183495Y-57301490D01*
X103319913Y-57188031D01*
X103324345Y-57184345D01*
X103454147Y-57028276D01*
X103456969Y-57023236D01*
X103456973Y-57023231D01*
X103486067Y-56971279D01*
X103536804Y-56921617D01*
X103606335Y-56907270D01*
X103672586Y-56932791D01*
X103714522Y-56990080D01*
X103722001Y-57032845D01*
X103722001Y-57294669D01*
X103722371Y-57301490D01*
X103727895Y-57352352D01*
X103731521Y-57367604D01*
X103776676Y-57488054D01*
X103785214Y-57503649D01*
X103861715Y-57605724D01*
X103874277Y-57618286D01*
X103875462Y-57619174D01*
X103876342Y-57620351D01*
X103880626Y-57624635D01*
X103880008Y-57625253D01*
X103917977Y-57676033D01*
X103923003Y-57746852D01*
X103888943Y-57809145D01*
X103826611Y-57843135D01*
X103799897Y-57846000D01*
X93780000Y-57846000D01*
X93711879Y-57825998D01*
X93665386Y-57772342D01*
X93654000Y-57720000D01*
X93654000Y-56866477D01*
X93674002Y-56798356D01*
X93727658Y-56751863D01*
X93797932Y-56741759D01*
X93862512Y-56771253D01*
X93894426Y-56813726D01*
X93959377Y-56954616D01*
X94076533Y-57120389D01*
X94221938Y-57262035D01*
X94390720Y-57374812D01*
X94396023Y-57377090D01*
X94396026Y-57377092D01*
X94484707Y-57415192D01*
X94577228Y-57454942D01*
X94650244Y-57471464D01*
X94769579Y-57498467D01*
X94769584Y-57498468D01*
X94775216Y-57499742D01*
X94780987Y-57499969D01*
X94780989Y-57499969D01*
X94840756Y-57502317D01*
X94978053Y-57507712D01*
X95078499Y-57493148D01*
X95173231Y-57479413D01*
X95173236Y-57479412D01*
X95178945Y-57478584D01*
X95184409Y-57476729D01*
X95184414Y-57476728D01*
X95365693Y-57415192D01*
X95365698Y-57415190D01*
X95371165Y-57413334D01*
X95548276Y-57314147D01*
X95563495Y-57301490D01*
X95699913Y-57188031D01*
X95704345Y-57184345D01*
X95834147Y-57028276D01*
X95933334Y-56851165D01*
X95935190Y-56845698D01*
X95935192Y-56845693D01*
X95996728Y-56664414D01*
X95996729Y-56664409D01*
X95998584Y-56658945D01*
X95999412Y-56653236D01*
X95999413Y-56653231D01*
X96027179Y-56461727D01*
X96027712Y-56458053D01*
X96029232Y-56400000D01*
X96026564Y-56370964D01*
X96351148Y-56370964D01*
X96364424Y-56573522D01*
X96365845Y-56579118D01*
X96365846Y-56579123D01*
X96384863Y-56654000D01*
X96414392Y-56770269D01*
X96416809Y-56775512D01*
X96454010Y-56856208D01*
X96499377Y-56954616D01*
X96616533Y-57120389D01*
X96761938Y-57262035D01*
X96930720Y-57374812D01*
X96936023Y-57377090D01*
X96936026Y-57377092D01*
X97024707Y-57415192D01*
X97117228Y-57454942D01*
X97190244Y-57471464D01*
X97309579Y-57498467D01*
X97309584Y-57498468D01*
X97315216Y-57499742D01*
X97320987Y-57499969D01*
X97320989Y-57499969D01*
X97380756Y-57502317D01*
X97518053Y-57507712D01*
X97618499Y-57493148D01*
X97713231Y-57479413D01*
X97713236Y-57479412D01*
X97718945Y-57478584D01*
X97724409Y-57476729D01*
X97724414Y-57476728D01*
X97905693Y-57415192D01*
X97905698Y-57415190D01*
X97911165Y-57413334D01*
X98088276Y-57314147D01*
X98103495Y-57301490D01*
X98239913Y-57188031D01*
X98244345Y-57184345D01*
X98374147Y-57028276D01*
X98473334Y-56851165D01*
X98475190Y-56845698D01*
X98475192Y-56845693D01*
X98536728Y-56664414D01*
X98536729Y-56664409D01*
X98538584Y-56658945D01*
X98539412Y-56653236D01*
X98539413Y-56653231D01*
X98567179Y-56461727D01*
X98567712Y-56458053D01*
X98569232Y-56400000D01*
X98550658Y-56197859D01*
X98549090Y-56192299D01*
X98497125Y-56008046D01*
X98497124Y-56008044D01*
X98495557Y-56002487D01*
X98484978Y-55981033D01*
X98408331Y-55825609D01*
X98405776Y-55820428D01*
X98284320Y-55657779D01*
X98135258Y-55519987D01*
X98130375Y-55516906D01*
X98130371Y-55516903D01*
X97968464Y-55414748D01*
X97963581Y-55411667D01*
X97775039Y-55336446D01*
X97769379Y-55335320D01*
X97769375Y-55335319D01*
X97581613Y-55297971D01*
X97581610Y-55297971D01*
X97575946Y-55296844D01*
X97570171Y-55296768D01*
X97570167Y-55296768D01*
X97468793Y-55295441D01*
X97372971Y-55294187D01*
X97367274Y-55295166D01*
X97367273Y-55295166D01*
X97269620Y-55311946D01*
X97172910Y-55328564D01*
X96982463Y-55398824D01*
X96808010Y-55502612D01*
X96803670Y-55506418D01*
X96803666Y-55506421D01*
X96783723Y-55523911D01*
X96655392Y-55636455D01*
X96529720Y-55795869D01*
X96527031Y-55800980D01*
X96527029Y-55800983D01*
X96514073Y-55825609D01*
X96435203Y-55975515D01*
X96375007Y-56169378D01*
X96351148Y-56370964D01*
X96026564Y-56370964D01*
X96010658Y-56197859D01*
X96009090Y-56192299D01*
X95957125Y-56008046D01*
X95957124Y-56008044D01*
X95955557Y-56002487D01*
X95944978Y-55981033D01*
X95868331Y-55825609D01*
X95865776Y-55820428D01*
X95744320Y-55657779D01*
X95595258Y-55519987D01*
X95590375Y-55516906D01*
X95590371Y-55516903D01*
X95428464Y-55414748D01*
X95423581Y-55411667D01*
X95235039Y-55336446D01*
X95229379Y-55335320D01*
X95229375Y-55335319D01*
X95041613Y-55297971D01*
X95041610Y-55297971D01*
X95035946Y-55296844D01*
X95030171Y-55296768D01*
X95030167Y-55296768D01*
X94928793Y-55295441D01*
X94832971Y-55294187D01*
X94827274Y-55295166D01*
X94827273Y-55295166D01*
X94729620Y-55311946D01*
X94632910Y-55328564D01*
X94442463Y-55398824D01*
X94268010Y-55502612D01*
X94263670Y-55506418D01*
X94263666Y-55506421D01*
X94243723Y-55523911D01*
X94115392Y-55636455D01*
X93989720Y-55795869D01*
X93987031Y-55800980D01*
X93987029Y-55800983D01*
X93974073Y-55825609D01*
X93895203Y-55975515D01*
X93895185Y-55975506D01*
X93851859Y-56029267D01*
X93784495Y-56051687D01*
X93715704Y-56034127D01*
X93667326Y-55982164D01*
X93654000Y-55925767D01*
X93654000Y-50734307D01*
X93674002Y-50666186D01*
X93727658Y-50619693D01*
X93797932Y-50609589D01*
X93862512Y-50639083D01*
X93898326Y-50691006D01*
X93937053Y-50796834D01*
X94025408Y-50928320D01*
X94031027Y-50933433D01*
X94031028Y-50933434D01*
X94103799Y-50999650D01*
X94140722Y-51060290D01*
X94145000Y-51092844D01*
X94145000Y-52484711D01*
X94143449Y-52504421D01*
X94140269Y-52524499D01*
X94141820Y-52534291D01*
X94141820Y-52535526D01*
X94142218Y-52538767D01*
X94145980Y-52581760D01*
X94157059Y-52708398D01*
X94158483Y-52713711D01*
X94158483Y-52713713D01*
X94186084Y-52816720D01*
X94204837Y-52886709D01*
X94207159Y-52891690D01*
X94207160Y-52891691D01*
X94280527Y-53049028D01*
X94280530Y-53049033D01*
X94282853Y-53054015D01*
X94286009Y-53058522D01*
X94286010Y-53058524D01*
X94325841Y-53115408D01*
X94388736Y-53205232D01*
X94519268Y-53335764D01*
X94523776Y-53338921D01*
X94523779Y-53338923D01*
X94665976Y-53438490D01*
X94670485Y-53441647D01*
X94675467Y-53443970D01*
X94675472Y-53443973D01*
X94832809Y-53517340D01*
X94837791Y-53519663D01*
X94843099Y-53521085D01*
X94843101Y-53521086D01*
X95010787Y-53566017D01*
X95010789Y-53566017D01*
X95016102Y-53567441D01*
X95021588Y-53567921D01*
X95021594Y-53567922D01*
X95185739Y-53582284D01*
X95194453Y-53583353D01*
X95195099Y-53583455D01*
X95195100Y-53583455D01*
X95200000Y-53584231D01*
X95200001Y-53584231D01*
X95204891Y-53583456D01*
X95204897Y-53583456D01*
X95209930Y-53582659D01*
X95235821Y-53581260D01*
X95390014Y-53588835D01*
X95535239Y-53595969D01*
X95547535Y-53597180D01*
X95873423Y-53645522D01*
X95885545Y-53647932D01*
X95978897Y-53671316D01*
X96205126Y-53727984D01*
X96216958Y-53731573D01*
X96527151Y-53842561D01*
X96538575Y-53847293D01*
X96836394Y-53988151D01*
X96847299Y-53993980D01*
X97129879Y-54163353D01*
X97140160Y-54170223D01*
X97404773Y-54366473D01*
X97414331Y-54374317D01*
X97512865Y-54463622D01*
X97636457Y-54575638D01*
X97653776Y-54594937D01*
X97659679Y-54603063D01*
X97667702Y-54608892D01*
X97667703Y-54608893D01*
X97676124Y-54615011D01*
X97691158Y-54627852D01*
X98936477Y-55873171D01*
X98970503Y-55935483D01*
X98967715Y-55999630D01*
X98951551Y-56051687D01*
X98915007Y-56169378D01*
X98891148Y-56370964D01*
X98904424Y-56573522D01*
X98905845Y-56579118D01*
X98905846Y-56579123D01*
X98924863Y-56654000D01*
X98954392Y-56770269D01*
X98956809Y-56775512D01*
X98994010Y-56856208D01*
X99039377Y-56954616D01*
X99156533Y-57120389D01*
X99301938Y-57262035D01*
X99470720Y-57374812D01*
X99476023Y-57377090D01*
X99476026Y-57377092D01*
X99564707Y-57415192D01*
X99657228Y-57454942D01*
X99730244Y-57471464D01*
X99849579Y-57498467D01*
X99849584Y-57498468D01*
X99855216Y-57499742D01*
X99860987Y-57499969D01*
X99860989Y-57499969D01*
X99920756Y-57502317D01*
X100058053Y-57507712D01*
X100158499Y-57493148D01*
X100253231Y-57479413D01*
X100253236Y-57479412D01*
X100258945Y-57478584D01*
X100264409Y-57476729D01*
X100264414Y-57476728D01*
X100445693Y-57415192D01*
X100445698Y-57415190D01*
X100451165Y-57413334D01*
X100628276Y-57314147D01*
X100643495Y-57301490D01*
X100779913Y-57188031D01*
X100784345Y-57184345D01*
X100914147Y-57028276D01*
X101013334Y-56851165D01*
X101015190Y-56845698D01*
X101015192Y-56845693D01*
X101076728Y-56664414D01*
X101076729Y-56664409D01*
X101078584Y-56658945D01*
X101079412Y-56653236D01*
X101079413Y-56653231D01*
X101107179Y-56461727D01*
X101107712Y-56458053D01*
X101109232Y-56400000D01*
X101090658Y-56197859D01*
X101089090Y-56192299D01*
X101037125Y-56008046D01*
X101037124Y-56008044D01*
X101035557Y-56002487D01*
X101024978Y-55981033D01*
X100948331Y-55825609D01*
X100945776Y-55820428D01*
X100824320Y-55657779D01*
X100675258Y-55519987D01*
X100670375Y-55516906D01*
X100670371Y-55516903D01*
X100508464Y-55414748D01*
X100503581Y-55411667D01*
X100315039Y-55336446D01*
X100309379Y-55335320D01*
X100309375Y-55335319D01*
X100121613Y-55297971D01*
X100121610Y-55297971D01*
X100115946Y-55296844D01*
X100110171Y-55296768D01*
X100110167Y-55296768D01*
X100008793Y-55295441D01*
X99912971Y-55294187D01*
X99907274Y-55295166D01*
X99907273Y-55295166D01*
X99809620Y-55311946D01*
X99712910Y-55328564D01*
X99607671Y-55367389D01*
X99536839Y-55372201D01*
X99474966Y-55338272D01*
X98227852Y-54091158D01*
X98215011Y-54076124D01*
X98208888Y-54067696D01*
X98208887Y-54067695D01*
X98203063Y-54059679D01*
X98198146Y-54056106D01*
X98130347Y-53993980D01*
X97931494Y-53811765D01*
X97931486Y-53811758D01*
X97929458Y-53809900D01*
X97927266Y-53808218D01*
X97637748Y-53586062D01*
X97637736Y-53586054D01*
X97635568Y-53584390D01*
X97323142Y-53385353D01*
X97148795Y-53294593D01*
X96997003Y-53215575D01*
X96996997Y-53215572D01*
X96994557Y-53214302D01*
X96961770Y-53200721D01*
X96755806Y-53115408D01*
X96700525Y-53070860D01*
X96678104Y-53003496D01*
X96695662Y-52934705D01*
X96747624Y-52886327D01*
X96804024Y-52872999D01*
X96897095Y-52872999D01*
X96903614Y-52872662D01*
X96999206Y-52862743D01*
X97012600Y-52859851D01*
X97166784Y-52808412D01*
X97179962Y-52802239D01*
X97317807Y-52716937D01*
X97329208Y-52707901D01*
X97443739Y-52593171D01*
X97452751Y-52581760D01*
X97537816Y-52443757D01*
X97543963Y-52430576D01*
X97595138Y-52276290D01*
X97598005Y-52262914D01*
X97604869Y-52195919D01*
X97631710Y-52130192D01*
X97689824Y-52089410D01*
X97760762Y-52086520D01*
X97822001Y-52122442D01*
X97829299Y-52130928D01*
X97946514Y-52280149D01*
X97951044Y-52284080D01*
X97951045Y-52284081D01*
X98101165Y-52414350D01*
X98101170Y-52414354D01*
X98105696Y-52418281D01*
X98288126Y-52523819D01*
X98487222Y-52592957D01*
X98493155Y-52593817D01*
X98493158Y-52593818D01*
X98689860Y-52622338D01*
X98689863Y-52622338D01*
X98695800Y-52623199D01*
X98906333Y-52613455D01*
X98912157Y-52612051D01*
X98912160Y-52612051D01*
X99105393Y-52565482D01*
X99105395Y-52565481D01*
X99111226Y-52564076D01*
X99116684Y-52561594D01*
X99116688Y-52561593D01*
X99242427Y-52504422D01*
X99303084Y-52476843D01*
X99474986Y-52354904D01*
X99620728Y-52202660D01*
X99677710Y-52114410D01*
X99731800Y-52030640D01*
X99731801Y-52030637D01*
X99735052Y-52025603D01*
X99813834Y-51830122D01*
X99854229Y-51623271D01*
X99854500Y-51617730D01*
X99854500Y-51312341D01*
X99839507Y-51155194D01*
X99780177Y-50952958D01*
X99729415Y-50854397D01*
X99686422Y-50770921D01*
X99686420Y-50770918D01*
X99683676Y-50765590D01*
X99627324Y-50693851D01*
X99557192Y-50604568D01*
X99557188Y-50604564D01*
X99553486Y-50599851D01*
X99472326Y-50529423D01*
X99439185Y-50500665D01*
X99400844Y-50440912D01*
X99400895Y-50369915D01*
X99439322Y-50310216D01*
X99503924Y-50280770D01*
X99521766Y-50279500D01*
X100475834Y-50279500D01*
X100543955Y-50299502D01*
G37*
%TD.AperFunction*%
%TA.AperFunction,Conductor*%
G36*
X106146121Y-48909252D02*
G01*
X106192614Y-48962908D01*
X106204000Y-49015250D01*
X106204000Y-49983134D01*
X106208475Y-49998373D01*
X106209865Y-49999578D01*
X106217548Y-50001249D01*
X106220000Y-50001249D01*
X106227009Y-50003307D01*
X106230783Y-50004128D01*
X106230724Y-50004398D01*
X106288121Y-50021251D01*
X106334614Y-50074907D01*
X106346000Y-50127249D01*
X106346000Y-54981587D01*
X106325998Y-55049708D01*
X106272342Y-55096201D01*
X106202068Y-55106305D01*
X106175770Y-55099569D01*
X106047606Y-55051522D01*
X106032351Y-55047895D01*
X105981486Y-55042369D01*
X105974672Y-55042000D01*
X105352115Y-55042000D01*
X105336876Y-55046475D01*
X105335671Y-55047865D01*
X105334000Y-55055548D01*
X105334000Y-56528000D01*
X105313998Y-56596121D01*
X105260342Y-56642614D01*
X105208000Y-56654000D01*
X104952000Y-56654000D01*
X104883879Y-56633998D01*
X104837386Y-56580342D01*
X104826000Y-56528000D01*
X104826000Y-55060116D01*
X104821525Y-55044877D01*
X104820135Y-55043672D01*
X104812452Y-55042001D01*
X104185331Y-55042001D01*
X104178510Y-55042371D01*
X104127648Y-55047895D01*
X104112396Y-55051521D01*
X103991946Y-55096676D01*
X103976351Y-55105214D01*
X103874276Y-55181715D01*
X103861715Y-55194276D01*
X103785214Y-55296351D01*
X103776676Y-55311946D01*
X103731522Y-55432394D01*
X103727895Y-55447649D01*
X103722369Y-55498514D01*
X103722000Y-55505328D01*
X103722000Y-55760160D01*
X103701998Y-55828281D01*
X103648342Y-55874774D01*
X103578068Y-55884878D01*
X103513488Y-55855384D01*
X103488567Y-55825994D01*
X103488331Y-55825608D01*
X103485776Y-55820428D01*
X103364320Y-55657779D01*
X103215258Y-55519987D01*
X103210375Y-55516906D01*
X103210371Y-55516903D01*
X103048464Y-55414748D01*
X103043581Y-55411667D01*
X102998810Y-55393805D01*
X102942951Y-55349985D01*
X102919500Y-55276775D01*
X102919500Y-52529022D01*
X102939502Y-52460901D01*
X102993158Y-52414408D01*
X103063432Y-52404304D01*
X103108595Y-52419958D01*
X103288126Y-52523819D01*
X103487222Y-52592957D01*
X103493155Y-52593817D01*
X103493158Y-52593818D01*
X103689860Y-52622338D01*
X103689863Y-52622338D01*
X103695800Y-52623199D01*
X103906333Y-52613455D01*
X103912157Y-52612051D01*
X103912160Y-52612051D01*
X104105393Y-52565482D01*
X104105395Y-52565481D01*
X104111226Y-52564076D01*
X104116684Y-52561594D01*
X104116688Y-52561593D01*
X104242427Y-52504422D01*
X104303084Y-52476843D01*
X104474986Y-52354904D01*
X104620728Y-52202660D01*
X104677710Y-52114410D01*
X104731800Y-52030640D01*
X104731801Y-52030637D01*
X104735052Y-52025603D01*
X104813834Y-51830122D01*
X104854229Y-51623271D01*
X104854500Y-51617730D01*
X104854500Y-51312341D01*
X104839507Y-51155194D01*
X104780177Y-50952958D01*
X104729415Y-50854397D01*
X104686422Y-50770921D01*
X104686420Y-50770918D01*
X104683676Y-50765590D01*
X104627324Y-50693851D01*
X104557192Y-50604568D01*
X104557188Y-50604564D01*
X104553486Y-50599851D01*
X104514176Y-50565739D01*
X104398835Y-50465650D01*
X104398830Y-50465646D01*
X104394304Y-50461719D01*
X104238729Y-50371717D01*
X104189785Y-50320295D01*
X104176409Y-50250570D01*
X104202853Y-50184682D01*
X104212733Y-50173561D01*
X104243838Y-50142456D01*
X104296592Y-50058499D01*
X104316354Y-50027047D01*
X104320119Y-50021055D01*
X104367473Y-49885724D01*
X104371878Y-49846627D01*
X104399381Y-49781174D01*
X104457905Y-49740981D01*
X104521667Y-49737155D01*
X104567886Y-49746348D01*
X104574933Y-49747750D01*
X104799963Y-49747750D01*
X105025066Y-49747749D01*
X105061065Y-49740589D01*
X105131779Y-49746918D01*
X105186471Y-49788604D01*
X105231716Y-49848975D01*
X105244276Y-49861535D01*
X105346351Y-49938036D01*
X105361946Y-49946574D01*
X105482394Y-49991728D01*
X105497649Y-49995355D01*
X105548514Y-50000881D01*
X105555328Y-50001250D01*
X105677885Y-50001250D01*
X105693124Y-49996775D01*
X105694329Y-49995385D01*
X105696000Y-49987702D01*
X105696000Y-49015250D01*
X105716002Y-48947129D01*
X105769658Y-48900636D01*
X105822000Y-48889250D01*
X106078000Y-48889250D01*
X106146121Y-48909252D01*
G37*
%TD.AperFunction*%
%TA.AperFunction,Conductor*%
G36*
X95199833Y-47838541D02*
G01*
X95320102Y-47912241D01*
X95324672Y-47914134D01*
X95324676Y-47914136D01*
X95508820Y-47990411D01*
X95513393Y-47992305D01*
X95564755Y-48004636D01*
X95712016Y-48039991D01*
X95712022Y-48039992D01*
X95716829Y-48041146D01*
X95853808Y-48051927D01*
X95858053Y-48052548D01*
X95859252Y-48052969D01*
X95864817Y-48053451D01*
X95868219Y-48053451D01*
X95878106Y-48053840D01*
X95912688Y-48056562D01*
X95913271Y-48056631D01*
X95913580Y-48056631D01*
X95917608Y-48056948D01*
X95925401Y-48058182D01*
X95945479Y-48055002D01*
X95965189Y-48053451D01*
X96228338Y-48053451D01*
X96296459Y-48073453D01*
X96342952Y-48127109D01*
X96353056Y-48197383D01*
X96323562Y-48261963D01*
X96303903Y-48280277D01*
X96244276Y-48324965D01*
X96231719Y-48337522D01*
X96193652Y-48388315D01*
X96136792Y-48430830D01*
X96092825Y-48438750D01*
X95795059Y-48438751D01*
X95774934Y-48438751D01*
X95739182Y-48445862D01*
X95712874Y-48451094D01*
X95712872Y-48451095D01*
X95700699Y-48453516D01*
X95690379Y-48460411D01*
X95690378Y-48460412D01*
X95670002Y-48474027D01*
X95602249Y-48495242D01*
X95529998Y-48474027D01*
X95509621Y-48460411D01*
X95509618Y-48460410D01*
X95499301Y-48453516D01*
X95425067Y-48438750D01*
X95403802Y-48438750D01*
X95099712Y-48438751D01*
X95031593Y-48418749D01*
X95017201Y-48407976D01*
X95002135Y-48394921D01*
X94994452Y-48393250D01*
X94322115Y-48393250D01*
X94306876Y-48397725D01*
X94305671Y-48399115D01*
X94304000Y-48406798D01*
X94304000Y-49271250D01*
X94283998Y-49339371D01*
X94230342Y-49385864D01*
X94178000Y-49397250D01*
X93922000Y-49397250D01*
X93853879Y-49377248D01*
X93807386Y-49323592D01*
X93796000Y-49271250D01*
X93796000Y-48364790D01*
X93816002Y-48296669D01*
X93869658Y-48250176D01*
X93886503Y-48243894D01*
X93897124Y-48240776D01*
X93898329Y-48239385D01*
X93900000Y-48231702D01*
X93900000Y-48119250D01*
X93920002Y-48051129D01*
X93973658Y-48004636D01*
X94026000Y-47993250D01*
X94989884Y-47993250D01*
X95005123Y-47988775D01*
X95006328Y-47987385D01*
X95007999Y-47979702D01*
X95007999Y-47945974D01*
X95028001Y-47877853D01*
X95081657Y-47831360D01*
X95151931Y-47821256D01*
X95199833Y-47838541D01*
G37*
%TD.AperFunction*%
%TA.AperFunction,Conductor*%
G36*
X102401913Y-40499502D02*
G01*
X102448406Y-40553158D01*
X102458510Y-40623432D01*
X102451185Y-40651269D01*
X102427956Y-40710849D01*
X102427955Y-40710853D01*
X102425195Y-40717932D01*
X102424203Y-40725465D01*
X102424203Y-40725466D01*
X102423488Y-40730899D01*
X102404518Y-40874991D01*
X102401300Y-40874567D01*
X102384905Y-40928420D01*
X102330791Y-40974378D01*
X102279589Y-40985250D01*
X102247115Y-40985250D01*
X102231876Y-40989725D01*
X102230671Y-40991115D01*
X102229000Y-40998798D01*
X102229000Y-41946135D01*
X102233475Y-41961374D01*
X102234865Y-41962579D01*
X102242548Y-41964250D01*
X103189884Y-41964250D01*
X103205123Y-41959775D01*
X103206328Y-41958385D01*
X103207999Y-41950702D01*
X103207999Y-41866990D01*
X103228001Y-41798869D01*
X103281657Y-41752376D01*
X103351931Y-41742272D01*
X103416511Y-41771766D01*
X103423094Y-41777895D01*
X103453728Y-41808529D01*
X103466569Y-41823563D01*
X103478517Y-41840008D01*
X103486697Y-41845951D01*
X103494433Y-41852051D01*
X103532111Y-41884231D01*
X103612930Y-41953257D01*
X103612935Y-41953260D01*
X103616695Y-41956472D01*
X103770696Y-42050844D01*
X103775266Y-42052737D01*
X103775270Y-42052739D01*
X103932991Y-42118069D01*
X103937564Y-42119963D01*
X103998952Y-42134701D01*
X104108377Y-42160972D01*
X104108383Y-42160973D01*
X104113190Y-42162127D01*
X104181492Y-42167502D01*
X104217534Y-42170339D01*
X104224519Y-42171361D01*
X104227101Y-42172268D01*
X104232666Y-42172750D01*
X104243218Y-42172750D01*
X104253103Y-42173138D01*
X104259487Y-42173640D01*
X104273471Y-42174741D01*
X104283298Y-42175905D01*
X104283451Y-42175929D01*
X104283453Y-42175929D01*
X104293249Y-42177481D01*
X104303042Y-42175930D01*
X104303043Y-42175930D01*
X104313326Y-42174301D01*
X104333037Y-42172750D01*
X105130843Y-42172750D01*
X105198964Y-42192752D01*
X105245457Y-42246408D01*
X105254422Y-42323330D01*
X105245500Y-42368183D01*
X105245501Y-42818316D01*
X105254423Y-42863172D01*
X105248093Y-42933886D01*
X105204537Y-42989952D01*
X105130843Y-43013750D01*
X104033037Y-43013750D01*
X104013326Y-43012199D01*
X103993249Y-43009019D01*
X103983454Y-43010570D01*
X103983174Y-43010570D01*
X103974459Y-43011601D01*
X103814172Y-43024218D01*
X103814165Y-43024219D01*
X103809224Y-43024608D01*
X103629730Y-43067701D01*
X103625159Y-43069594D01*
X103625157Y-43069595D01*
X103463761Y-43136447D01*
X103463757Y-43136449D01*
X103459187Y-43138342D01*
X103454963Y-43140930D01*
X103454958Y-43140933D01*
X103391014Y-43180118D01*
X103322481Y-43198657D01*
X103254804Y-43177201D01*
X103209471Y-43122562D01*
X103200874Y-43052088D01*
X103202017Y-43046413D01*
X103207631Y-42994736D01*
X103208000Y-42987922D01*
X103208000Y-42490365D01*
X103203525Y-42475126D01*
X103202135Y-42473921D01*
X103194452Y-42472250D01*
X102247115Y-42472250D01*
X102231876Y-42476725D01*
X102230671Y-42478115D01*
X102229000Y-42485798D01*
X102229000Y-47383134D01*
X102233475Y-47398373D01*
X102234865Y-47399578D01*
X102242548Y-47401249D01*
X102329764Y-47401249D01*
X102397885Y-47421251D01*
X102444378Y-47474907D01*
X102455002Y-47513421D01*
X102459102Y-47550553D01*
X102461712Y-47557684D01*
X102461712Y-47557686D01*
X102494614Y-47647594D01*
X102513542Y-47699319D01*
X102517778Y-47705622D01*
X102517778Y-47705623D01*
X102569126Y-47782036D01*
X102601897Y-47830805D01*
X102607516Y-47835918D01*
X102607517Y-47835919D01*
X102693477Y-47914136D01*
X102719065Y-47937419D01*
X102858282Y-48013008D01*
X103011511Y-48053207D01*
X103095466Y-48054526D01*
X103162308Y-48055576D01*
X103162311Y-48055576D01*
X103169905Y-48055695D01*
X103324321Y-48020329D01*
X103405100Y-47979702D01*
X103459061Y-47952563D01*
X103459064Y-47952561D01*
X103465844Y-47949151D01*
X103471615Y-47944222D01*
X103471618Y-47944220D01*
X103580525Y-47851204D01*
X103580525Y-47851203D01*
X103586303Y-47846269D01*
X103678744Y-47717624D01*
X103737831Y-47570641D01*
X103750355Y-47482641D01*
X103758721Y-47423858D01*
X103788122Y-47359235D01*
X103847793Y-47320766D01*
X103915438Y-47319735D01*
X104017277Y-47346452D01*
X104101232Y-47347771D01*
X104168074Y-47348821D01*
X104168077Y-47348821D01*
X104175671Y-47348940D01*
X104330087Y-47313574D01*
X104422543Y-47267074D01*
X104464827Y-47245808D01*
X104464830Y-47245806D01*
X104471610Y-47242396D01*
X104538216Y-47185509D01*
X104603003Y-47156479D01*
X104673203Y-47167084D01*
X104704840Y-47188124D01*
X104761644Y-47239811D01*
X104900861Y-47315400D01*
X105054090Y-47355599D01*
X105088657Y-47356142D01*
X105121480Y-47356658D01*
X105189278Y-47377728D01*
X105234922Y-47432107D01*
X105245500Y-47482641D01*
X105245501Y-47548448D01*
X105245501Y-47618316D01*
X105260266Y-47692551D01*
X105267161Y-47702871D01*
X105267162Y-47702872D01*
X105280777Y-47723248D01*
X105301992Y-47791001D01*
X105280777Y-47863252D01*
X105267161Y-47883629D01*
X105267160Y-47883632D01*
X105260266Y-47893949D01*
X105245500Y-47968183D01*
X105245501Y-48164491D01*
X105245501Y-48329066D01*
X105225499Y-48397186D01*
X105171844Y-48443679D01*
X105094921Y-48452645D01*
X105025067Y-48438750D01*
X104800037Y-48438750D01*
X104574934Y-48438751D01*
X104539182Y-48445862D01*
X104512874Y-48451094D01*
X104512872Y-48451095D01*
X104500699Y-48453516D01*
X104490379Y-48460411D01*
X104490378Y-48460412D01*
X104470002Y-48474027D01*
X104402249Y-48495242D01*
X104329998Y-48474027D01*
X104309621Y-48460411D01*
X104309618Y-48460410D01*
X104299301Y-48453516D01*
X104225067Y-48438750D01*
X104000037Y-48438750D01*
X103774934Y-48438751D01*
X103739182Y-48445862D01*
X103712874Y-48451094D01*
X103712872Y-48451095D01*
X103700699Y-48453516D01*
X103690379Y-48460411D01*
X103690378Y-48460412D01*
X103670002Y-48474027D01*
X103602249Y-48495242D01*
X103529998Y-48474027D01*
X103509621Y-48460411D01*
X103509618Y-48460410D01*
X103499301Y-48453516D01*
X103425067Y-48438750D01*
X103200037Y-48438750D01*
X102974934Y-48438751D01*
X102939182Y-48445862D01*
X102912874Y-48451094D01*
X102912872Y-48451095D01*
X102900699Y-48453516D01*
X102890379Y-48460411D01*
X102890378Y-48460412D01*
X102870002Y-48474027D01*
X102802249Y-48495242D01*
X102729998Y-48474027D01*
X102709621Y-48460411D01*
X102709618Y-48460410D01*
X102699301Y-48453516D01*
X102625067Y-48438750D01*
X102400037Y-48438750D01*
X102174934Y-48438751D01*
X102168863Y-48439959D01*
X102164655Y-48440373D01*
X102094902Y-48427145D01*
X102043373Y-48378305D01*
X102026429Y-48309360D01*
X102033003Y-48279031D01*
X102032042Y-48278774D01*
X102034006Y-48271443D01*
X102036842Y-48264389D01*
X102051084Y-48164314D01*
X102058581Y-48111639D01*
X102058581Y-48111636D01*
X102059162Y-48107555D01*
X102059307Y-48093748D01*
X102040276Y-47936481D01*
X101984280Y-47788294D01*
X101969444Y-47766707D01*
X101898855Y-47663999D01*
X101898854Y-47663997D01*
X101894553Y-47657740D01*
X101776275Y-47552359D01*
X101769559Y-47548803D01*
X101766034Y-47546353D01*
X101721512Y-47491051D01*
X101714822Y-47416105D01*
X101721000Y-47387703D01*
X101721000Y-46440365D01*
X101716525Y-46425126D01*
X101715135Y-46423921D01*
X101707452Y-46422250D01*
X100272115Y-46422250D01*
X100256876Y-46426725D01*
X100255671Y-46428115D01*
X100254000Y-46435798D01*
X100254000Y-47383134D01*
X100258475Y-47398373D01*
X100259865Y-47399578D01*
X100267548Y-47401249D01*
X100769669Y-47401249D01*
X100776490Y-47400879D01*
X100827352Y-47395355D01*
X100849649Y-47390054D01*
X100920549Y-47393757D01*
X100978192Y-47435204D01*
X101004276Y-47501235D01*
X100990521Y-47570886D01*
X100961623Y-47607586D01*
X100910039Y-47652586D01*
X100905672Y-47658799D01*
X100905667Y-47658805D01*
X100904336Y-47660699D01*
X100903013Y-47661753D01*
X100900589Y-47664445D01*
X100900140Y-47664041D01*
X100848802Y-47704931D01*
X100801250Y-47714248D01*
X100239290Y-47714248D01*
X100219579Y-47712697D01*
X100199502Y-47709517D01*
X100193642Y-47710445D01*
X99983112Y-47727014D01*
X99978305Y-47728168D01*
X99978299Y-47728169D01*
X99846167Y-47759892D01*
X99772049Y-47777686D01*
X99767478Y-47779579D01*
X99767476Y-47779580D01*
X99576086Y-47858856D01*
X99576082Y-47858858D01*
X99571512Y-47860751D01*
X99386438Y-47974164D01*
X99221385Y-48115133D01*
X99218177Y-48118889D01*
X99100336Y-48256863D01*
X99080416Y-48280186D01*
X99028571Y-48364790D01*
X99013199Y-48389875D01*
X98960551Y-48437506D01*
X98930348Y-48447619D01*
X98900699Y-48453516D01*
X98890379Y-48460411D01*
X98890378Y-48460412D01*
X98870002Y-48474027D01*
X98802249Y-48495242D01*
X98729998Y-48474027D01*
X98709621Y-48460411D01*
X98709618Y-48460410D01*
X98699301Y-48453516D01*
X98625067Y-48438750D01*
X98548630Y-48438750D01*
X98205182Y-48438751D01*
X98137062Y-48418749D01*
X98090568Y-48365094D01*
X98080464Y-48294820D01*
X98109957Y-48230239D01*
X98148568Y-48200186D01*
X98236116Y-48156155D01*
X98236119Y-48156153D01*
X98242899Y-48152743D01*
X98248670Y-48147814D01*
X98248673Y-48147812D01*
X98357580Y-48054796D01*
X98357580Y-48054795D01*
X98363358Y-48049861D01*
X98455799Y-47921216D01*
X98514886Y-47774233D01*
X98525042Y-47702872D01*
X98536625Y-47621483D01*
X98536625Y-47621480D01*
X98537206Y-47617399D01*
X98537351Y-47603592D01*
X98529944Y-47542385D01*
X98541617Y-47472356D01*
X98589298Y-47419754D01*
X98655031Y-47401249D01*
X98794669Y-47401249D01*
X98801490Y-47400879D01*
X98852352Y-47395355D01*
X98867606Y-47391728D01*
X98968271Y-47353991D01*
X99039078Y-47348808D01*
X99056729Y-47353991D01*
X99157391Y-47391728D01*
X99172649Y-47395355D01*
X99223514Y-47400881D01*
X99230328Y-47401250D01*
X99727885Y-47401250D01*
X99743124Y-47396775D01*
X99744329Y-47395385D01*
X99746000Y-47387702D01*
X99746000Y-46440365D01*
X99741525Y-46425126D01*
X99740135Y-46423921D01*
X99732452Y-46422250D01*
X96810116Y-46422250D01*
X96782194Y-46430449D01*
X96743808Y-46455118D01*
X96672811Y-46455118D01*
X96624491Y-46428299D01*
X96607451Y-46413117D01*
X96607445Y-46413113D01*
X96601775Y-46408061D01*
X96461774Y-46333934D01*
X96308133Y-46295342D01*
X96300534Y-46295302D01*
X96300533Y-46295302D01*
X96192335Y-46294735D01*
X96124320Y-46274376D01*
X96091791Y-46243795D01*
X95939280Y-46038157D01*
X95932410Y-46027876D01*
X95853447Y-45896135D01*
X96792000Y-45896135D01*
X96796475Y-45911374D01*
X96797865Y-45912579D01*
X96805548Y-45914250D01*
X97752885Y-45914250D01*
X97768124Y-45909775D01*
X97769329Y-45908385D01*
X97771000Y-45900702D01*
X97771000Y-45896135D01*
X98279000Y-45896135D01*
X98283475Y-45911374D01*
X98284865Y-45912579D01*
X98292548Y-45914250D01*
X99727885Y-45914250D01*
X99743124Y-45909775D01*
X99744329Y-45908385D01*
X99746000Y-45900702D01*
X99746000Y-45896135D01*
X100254000Y-45896135D01*
X100258475Y-45911374D01*
X100259865Y-45912579D01*
X100267548Y-45914250D01*
X101702885Y-45914250D01*
X101718124Y-45909775D01*
X101719329Y-45908385D01*
X101721000Y-45900702D01*
X101721000Y-44465365D01*
X101716525Y-44450126D01*
X101715135Y-44448921D01*
X101707452Y-44447250D01*
X100272115Y-44447250D01*
X100256876Y-44451725D01*
X100255671Y-44453115D01*
X100254000Y-44460798D01*
X100254000Y-45896135D01*
X99746000Y-45896135D01*
X99746000Y-44465365D01*
X99741525Y-44450126D01*
X99740135Y-44448921D01*
X99732452Y-44447250D01*
X98297115Y-44447250D01*
X98281876Y-44451725D01*
X98280671Y-44453115D01*
X98279000Y-44460798D01*
X98279000Y-45896135D01*
X97771000Y-45896135D01*
X97771000Y-44465365D01*
X97766525Y-44450126D01*
X97765135Y-44448921D01*
X97757452Y-44447250D01*
X96810116Y-44447250D01*
X96794877Y-44451725D01*
X96793672Y-44453115D01*
X96792001Y-44460798D01*
X96792001Y-44962919D01*
X96792371Y-44969740D01*
X96797895Y-45020602D01*
X96801522Y-45035856D01*
X96839259Y-45136521D01*
X96844442Y-45207328D01*
X96839259Y-45224979D01*
X96801522Y-45325641D01*
X96797895Y-45340899D01*
X96792369Y-45391764D01*
X96792000Y-45398578D01*
X96792000Y-45896135D01*
X95853447Y-45896135D01*
X95772301Y-45760751D01*
X95766472Y-45749846D01*
X95633318Y-45468314D01*
X95628586Y-45456890D01*
X95523667Y-45163661D01*
X95520078Y-45151829D01*
X95444405Y-44849729D01*
X95441993Y-44837601D01*
X95396297Y-44529544D01*
X95395085Y-44517238D01*
X95381260Y-44235820D01*
X95382659Y-44209929D01*
X95382680Y-44209796D01*
X95382680Y-44209792D01*
X95384231Y-44200000D01*
X95381051Y-44179922D01*
X95379500Y-44160212D01*
X95379500Y-43921135D01*
X96792000Y-43921135D01*
X96796475Y-43936374D01*
X96797865Y-43937579D01*
X96805548Y-43939250D01*
X97752885Y-43939250D01*
X97768124Y-43934775D01*
X97769329Y-43933385D01*
X97771000Y-43925702D01*
X97771000Y-43921135D01*
X98279000Y-43921135D01*
X98283475Y-43936374D01*
X98284865Y-43937579D01*
X98292548Y-43939250D01*
X99727885Y-43939250D01*
X99743124Y-43934775D01*
X99744329Y-43933385D01*
X99746000Y-43925702D01*
X99746000Y-43921135D01*
X100254000Y-43921135D01*
X100258475Y-43936374D01*
X100259865Y-43937579D01*
X100267548Y-43939250D01*
X101702885Y-43939250D01*
X101718124Y-43934775D01*
X101719329Y-43933385D01*
X101721000Y-43925702D01*
X101721000Y-42490365D01*
X101716525Y-42475126D01*
X101715135Y-42473921D01*
X101707452Y-42472250D01*
X100272115Y-42472250D01*
X100256876Y-42476725D01*
X100255671Y-42478115D01*
X100254000Y-42485798D01*
X100254000Y-43921135D01*
X99746000Y-43921135D01*
X99746000Y-42490365D01*
X99741525Y-42475126D01*
X99740135Y-42473921D01*
X99732452Y-42472250D01*
X98297115Y-42472250D01*
X98281876Y-42476725D01*
X98280671Y-42478115D01*
X98279000Y-42485798D01*
X98279000Y-43921135D01*
X97771000Y-43921135D01*
X97771000Y-42490365D01*
X97766525Y-42475126D01*
X97765135Y-42473921D01*
X97757452Y-42472250D01*
X96810115Y-42472250D01*
X96794876Y-42476725D01*
X96793671Y-42478115D01*
X96792000Y-42485798D01*
X96792001Y-42987919D01*
X96792371Y-42994740D01*
X96797895Y-43045602D01*
X96801522Y-43060856D01*
X96839259Y-43161521D01*
X96844442Y-43232328D01*
X96839259Y-43249979D01*
X96801522Y-43350641D01*
X96797895Y-43365899D01*
X96792369Y-43416764D01*
X96792000Y-43423578D01*
X96792000Y-43921135D01*
X95379500Y-43921135D01*
X95379500Y-42169748D01*
X95399502Y-42101627D01*
X95448883Y-42057184D01*
X95464855Y-42049151D01*
X95470626Y-42044222D01*
X95470629Y-42044220D01*
X95579542Y-41951199D01*
X95579543Y-41951198D01*
X95585314Y-41946269D01*
X95595586Y-41931974D01*
X95651581Y-41888326D01*
X95697909Y-41879500D01*
X96474706Y-41879500D01*
X96494416Y-41881051D01*
X96514494Y-41884231D01*
X96524286Y-41882680D01*
X96526635Y-41882680D01*
X96532054Y-41882100D01*
X96643655Y-41875832D01*
X96678472Y-41873877D01*
X96747607Y-41890028D01*
X96797035Y-41940992D01*
X96802251Y-41956593D01*
X96805473Y-41960180D01*
X96819808Y-41964250D01*
X99727885Y-41964250D01*
X99743124Y-41959775D01*
X99744329Y-41958385D01*
X99746000Y-41950702D01*
X99746000Y-41946135D01*
X100254000Y-41946135D01*
X100258475Y-41961374D01*
X100259865Y-41962579D01*
X100267548Y-41964250D01*
X101702885Y-41964250D01*
X101718124Y-41959775D01*
X101719329Y-41958385D01*
X101721000Y-41950702D01*
X101721000Y-41003366D01*
X101716525Y-40988127D01*
X101715135Y-40986922D01*
X101707452Y-40985251D01*
X101205331Y-40985251D01*
X101198510Y-40985621D01*
X101147648Y-40991145D01*
X101132394Y-40994772D01*
X101031729Y-41032509D01*
X100960922Y-41037692D01*
X100943271Y-41032509D01*
X100842609Y-40994772D01*
X100827351Y-40991145D01*
X100776486Y-40985619D01*
X100769672Y-40985250D01*
X100272115Y-40985250D01*
X100256876Y-40989725D01*
X100255671Y-40991115D01*
X100254000Y-40998798D01*
X100254000Y-41946135D01*
X99746000Y-41946135D01*
X99746000Y-41003366D01*
X99741525Y-40988127D01*
X99740135Y-40986922D01*
X99732452Y-40985251D01*
X99230331Y-40985251D01*
X99223510Y-40985621D01*
X99172648Y-40991145D01*
X99157394Y-40994772D01*
X99056729Y-41032509D01*
X98985922Y-41037692D01*
X98968271Y-41032509D01*
X98867609Y-40994772D01*
X98852351Y-40991145D01*
X98812267Y-40986790D01*
X98746705Y-40959548D01*
X98706279Y-40901185D01*
X98703824Y-40830231D01*
X98740119Y-40769213D01*
X98764926Y-40751249D01*
X98766588Y-40750330D01*
X98801750Y-40730897D01*
X98814473Y-40724770D01*
X99060836Y-40622724D01*
X99074154Y-40618063D01*
X99330403Y-40544238D01*
X99344166Y-40541097D01*
X99470627Y-40519610D01*
X99607060Y-40496429D01*
X99621092Y-40494848D01*
X99772398Y-40486351D01*
X99858882Y-40481494D01*
X99882337Y-40482679D01*
X99884595Y-40482679D01*
X99894392Y-40484231D01*
X99904185Y-40482680D01*
X99904186Y-40482680D01*
X99914469Y-40481051D01*
X99934180Y-40479500D01*
X102333792Y-40479500D01*
X102401913Y-40499502D01*
G37*
%TD.AperFunction*%
%TA.AperFunction,Conductor*%
G36*
X94896581Y-39009252D02*
G01*
X94943074Y-39062908D01*
X94949356Y-39079753D01*
X94952474Y-39090374D01*
X94953865Y-39091579D01*
X94961548Y-39093250D01*
X105033885Y-39093250D01*
X105049124Y-39088775D01*
X105051292Y-39086274D01*
X105084117Y-39026156D01*
X105146429Y-38992130D01*
X105173214Y-38989250D01*
X106078000Y-38989250D01*
X106146121Y-39009252D01*
X106192614Y-39062908D01*
X106204000Y-39115250D01*
X106204000Y-39371250D01*
X106183998Y-39439371D01*
X106130342Y-39485864D01*
X106078000Y-39497250D01*
X105070388Y-39497250D01*
X105043605Y-39494371D01*
X105038452Y-39493250D01*
X105018115Y-39493250D01*
X105002876Y-39497725D01*
X105001671Y-39499115D01*
X105000000Y-39506798D01*
X105000000Y-40183134D01*
X105004475Y-40198373D01*
X105005865Y-40199578D01*
X105013548Y-40201249D01*
X105044669Y-40201249D01*
X105051488Y-40200880D01*
X105105895Y-40194970D01*
X105175777Y-40207499D01*
X105227792Y-40255820D01*
X105245501Y-40320232D01*
X105245501Y-40418316D01*
X105260266Y-40492551D01*
X105267161Y-40502871D01*
X105267162Y-40502872D01*
X105280777Y-40523248D01*
X105301992Y-40591001D01*
X105280777Y-40663252D01*
X105267161Y-40683629D01*
X105267160Y-40683632D01*
X105260266Y-40693949D01*
X105245500Y-40768183D01*
X105245501Y-41218316D01*
X105254423Y-41263172D01*
X105248093Y-41333886D01*
X105204537Y-41389952D01*
X105130843Y-41413750D01*
X104746949Y-41413750D01*
X104678828Y-41393748D01*
X104632335Y-41340092D01*
X104622231Y-41269818D01*
X104644626Y-41214226D01*
X104677755Y-41168122D01*
X104736842Y-41021139D01*
X104746297Y-40954700D01*
X104758581Y-40868389D01*
X104758581Y-40868386D01*
X104759162Y-40864305D01*
X104759307Y-40850498D01*
X104756855Y-40830231D01*
X104749731Y-40771366D01*
X104740276Y-40693231D01*
X104684280Y-40545044D01*
X104641418Y-40482679D01*
X104598855Y-40420749D01*
X104598854Y-40420747D01*
X104594553Y-40414490D01*
X104588882Y-40409438D01*
X104588880Y-40409435D01*
X104580899Y-40402324D01*
X104543343Y-40342074D01*
X104544322Y-40271084D01*
X104574245Y-40225905D01*
X104572896Y-40224736D01*
X104581909Y-40214334D01*
X104583526Y-40211893D01*
X104584458Y-40211392D01*
X104598329Y-40195385D01*
X104600000Y-40187702D01*
X104600000Y-39511365D01*
X104595525Y-39496126D01*
X104594135Y-39494921D01*
X104586452Y-39493250D01*
X97818115Y-39493250D01*
X97802876Y-39497725D01*
X97801671Y-39499115D01*
X97800000Y-39506798D01*
X97800000Y-40183134D01*
X97804475Y-40198373D01*
X97805865Y-40199578D01*
X97816587Y-40201910D01*
X97878899Y-40235934D01*
X97912925Y-40298246D01*
X97907861Y-40369062D01*
X97864863Y-40426235D01*
X97821859Y-40458129D01*
X97594746Y-40663972D01*
X97594602Y-40664089D01*
X97594578Y-40664125D01*
X97589713Y-40668534D01*
X97583744Y-40672871D01*
X97577918Y-40680890D01*
X97573454Y-40685354D01*
X97560585Y-40699460D01*
X97444117Y-40801599D01*
X97431042Y-40811632D01*
X97279803Y-40912687D01*
X97265530Y-40920928D01*
X97102382Y-41001384D01*
X97087154Y-41007691D01*
X97047538Y-41021139D01*
X96914910Y-41066160D01*
X96898996Y-41070424D01*
X96809789Y-41088169D01*
X96720585Y-41105912D01*
X96704244Y-41108063D01*
X96549669Y-41118194D01*
X96530588Y-41117320D01*
X96524287Y-41117320D01*
X96514494Y-41115769D01*
X96494417Y-41118949D01*
X96474706Y-41120500D01*
X95699682Y-41120500D01*
X95631561Y-41100498D01*
X95605114Y-41074860D01*
X95603878Y-41075949D01*
X95598855Y-41070251D01*
X95594553Y-41063992D01*
X95476275Y-40958611D01*
X95468889Y-40954700D01*
X95389540Y-40912687D01*
X95336274Y-40884484D01*
X95182633Y-40845892D01*
X95175034Y-40845852D01*
X95175033Y-40845852D01*
X95131306Y-40845623D01*
X95063291Y-40825264D01*
X95017080Y-40771366D01*
X95006703Y-40733230D01*
X95002105Y-40690898D01*
X94998479Y-40675647D01*
X94984171Y-40637480D01*
X94978988Y-40566673D01*
X94984171Y-40549020D01*
X94998478Y-40510856D01*
X95002105Y-40495601D01*
X95007631Y-40444736D01*
X95008000Y-40437922D01*
X95008000Y-40411365D01*
X95003525Y-40396126D01*
X95002135Y-40394921D01*
X94994452Y-40393250D01*
X94318115Y-40393250D01*
X94302876Y-40397725D01*
X94301671Y-40399115D01*
X94300000Y-40406798D01*
X94300000Y-41067250D01*
X94279998Y-41135371D01*
X94226342Y-41181864D01*
X94174000Y-41193250D01*
X94026000Y-41193250D01*
X93957879Y-41173248D01*
X93911386Y-41119592D01*
X93900000Y-41067250D01*
X93900000Y-40183134D01*
X95400000Y-40183134D01*
X95404475Y-40198373D01*
X95405865Y-40199578D01*
X95413548Y-40201249D01*
X95444669Y-40201249D01*
X95451490Y-40200879D01*
X95502352Y-40195355D01*
X95517603Y-40191729D01*
X95555770Y-40177421D01*
X95626577Y-40172238D01*
X95644230Y-40177421D01*
X95682394Y-40191728D01*
X95697649Y-40195355D01*
X95748514Y-40200881D01*
X95755328Y-40201250D01*
X95781885Y-40201250D01*
X95797124Y-40196775D01*
X95798329Y-40195385D01*
X95800000Y-40187702D01*
X95800000Y-40183134D01*
X96200000Y-40183134D01*
X96204475Y-40198373D01*
X96205865Y-40199578D01*
X96213548Y-40201249D01*
X96244669Y-40201249D01*
X96251490Y-40200879D01*
X96302352Y-40195355D01*
X96317603Y-40191729D01*
X96355770Y-40177421D01*
X96426577Y-40172238D01*
X96444230Y-40177421D01*
X96482394Y-40191728D01*
X96497649Y-40195355D01*
X96548514Y-40200881D01*
X96555328Y-40201250D01*
X96581885Y-40201250D01*
X96597124Y-40196775D01*
X96598329Y-40195385D01*
X96600000Y-40187702D01*
X96600000Y-40183134D01*
X97000000Y-40183134D01*
X97004475Y-40198373D01*
X97005865Y-40199578D01*
X97013548Y-40201249D01*
X97044669Y-40201249D01*
X97051490Y-40200879D01*
X97102352Y-40195355D01*
X97117603Y-40191729D01*
X97155770Y-40177421D01*
X97226577Y-40172238D01*
X97244230Y-40177421D01*
X97282394Y-40191728D01*
X97297649Y-40195355D01*
X97348514Y-40200881D01*
X97355328Y-40201250D01*
X97381885Y-40201250D01*
X97397124Y-40196775D01*
X97398329Y-40195385D01*
X97400000Y-40187702D01*
X97400000Y-39511365D01*
X97395525Y-39496126D01*
X97394135Y-39494921D01*
X97386452Y-39493250D01*
X97018115Y-39493250D01*
X97002876Y-39497725D01*
X97001671Y-39499115D01*
X97000000Y-39506798D01*
X97000000Y-40183134D01*
X96600000Y-40183134D01*
X96600000Y-39511365D01*
X96595525Y-39496126D01*
X96594135Y-39494921D01*
X96586452Y-39493250D01*
X96218115Y-39493250D01*
X96202876Y-39497725D01*
X96201671Y-39499115D01*
X96200000Y-39506798D01*
X96200000Y-40183134D01*
X95800000Y-40183134D01*
X95800000Y-39511365D01*
X95795525Y-39496126D01*
X95794135Y-39494921D01*
X95786452Y-39493250D01*
X95418115Y-39493250D01*
X95402876Y-39497725D01*
X95401671Y-39499115D01*
X95400000Y-39506798D01*
X95400000Y-40183134D01*
X93900000Y-40183134D01*
X93900000Y-40159365D01*
X93895525Y-40144126D01*
X93893024Y-40141958D01*
X93832906Y-40109133D01*
X93798880Y-40046821D01*
X93796000Y-40020036D01*
X93796000Y-39975135D01*
X94304000Y-39975135D01*
X94308475Y-39990374D01*
X94309865Y-39991579D01*
X94317548Y-39993250D01*
X94981885Y-39993250D01*
X94997124Y-39988775D01*
X94998329Y-39987385D01*
X95000000Y-39979702D01*
X95000000Y-39511365D01*
X94995525Y-39496126D01*
X94994135Y-39494921D01*
X94986452Y-39493250D01*
X94962197Y-39493250D01*
X94934377Y-39497250D01*
X94322115Y-39497250D01*
X94306876Y-39501725D01*
X94305671Y-39503115D01*
X94304000Y-39510798D01*
X94304000Y-39975135D01*
X93796000Y-39975135D01*
X93796000Y-39115250D01*
X93816002Y-39047129D01*
X93869658Y-39000636D01*
X93922000Y-38989250D01*
X94828460Y-38989250D01*
X94896581Y-39009252D01*
G37*
%TD.AperFunction*%
%TD*%
M02*
