%TF.GenerationSoftware,KiCad,Pcbnew,(6.0.5-0)*%
%TF.CreationDate,2022-06-02T09:50:00+01:00*%
%TF.ProjectId,Daikin,4461696b-696e-42e6-9b69-6361645f7063,1*%
%TF.SameCoordinates,Original*%
%TF.FileFunction,Legend,Bot*%
%TF.FilePolarity,Positive*%
%FSLAX46Y46*%
G04 Gerber Fmt 4.6, Leading zero omitted, Abs format (unit mm)*
G04 Created by KiCad (PCBNEW (6.0.5-0)) date 2022-06-02 09:50:00*
%MOMM*%
%LPD*%
G01*
G04 APERTURE LIST*
%ADD10C,0.080000*%
%ADD11C,0.100000*%
%ADD12C,0.150000*%
%ADD13C,0.120000*%
G04 APERTURE END LIST*
D10*
X101414284Y-52473809D02*
X101390474Y-52450000D01*
X101342855Y-52426190D01*
X101223808Y-52426190D01*
X101176189Y-52450000D01*
X101152379Y-52473809D01*
X101128570Y-52521428D01*
X101128570Y-52569047D01*
X101152379Y-52640476D01*
X101438093Y-52926190D01*
X101128570Y-52926190D01*
X100699998Y-52426190D02*
X100795236Y-52426190D01*
X100842855Y-52450000D01*
X100866665Y-52473809D01*
X100914284Y-52545238D01*
X100938093Y-52640476D01*
X100938093Y-52830952D01*
X100914284Y-52878571D01*
X100890474Y-52902380D01*
X100842855Y-52926190D01*
X100747617Y-52926190D01*
X100699998Y-52902380D01*
X100676189Y-52878571D01*
X100652379Y-52830952D01*
X100652379Y-52711904D01*
X100676189Y-52664285D01*
X100699998Y-52640476D01*
X100747617Y-52616666D01*
X100842855Y-52616666D01*
X100890474Y-52640476D01*
X100914284Y-52664285D01*
X100938093Y-52711904D01*
D11*
X101735714Y-48635535D02*
X101735714Y-47885535D01*
X101557142Y-47885535D01*
X101450000Y-47921250D01*
X101378571Y-47992678D01*
X101342857Y-48064107D01*
X101307142Y-48206964D01*
X101307142Y-48314107D01*
X101342857Y-48456964D01*
X101378571Y-48528392D01*
X101450000Y-48599821D01*
X101557142Y-48635535D01*
X101735714Y-48635535D01*
X100664285Y-48635535D02*
X100664285Y-48242678D01*
X100700000Y-48171250D01*
X100771428Y-48135535D01*
X100914285Y-48135535D01*
X100985714Y-48171250D01*
X100664285Y-48599821D02*
X100735714Y-48635535D01*
X100914285Y-48635535D01*
X100985714Y-48599821D01*
X101021428Y-48528392D01*
X101021428Y-48456964D01*
X100985714Y-48385535D01*
X100914285Y-48349821D01*
X100735714Y-48349821D01*
X100664285Y-48314107D01*
X100307142Y-48635535D02*
X100307142Y-48135535D01*
X100307142Y-47885535D02*
X100342857Y-47921250D01*
X100307142Y-47956964D01*
X100271428Y-47921250D01*
X100307142Y-47885535D01*
X100307142Y-47956964D01*
X99950000Y-48635535D02*
X99950000Y-47885535D01*
X99878571Y-48349821D02*
X99664285Y-48635535D01*
X99664285Y-48135535D02*
X99950000Y-48421250D01*
X99342857Y-48635535D02*
X99342857Y-48135535D01*
X99342857Y-47885535D02*
X99378571Y-47921250D01*
X99342857Y-47956964D01*
X99307142Y-47921250D01*
X99342857Y-47885535D01*
X99342857Y-47956964D01*
X98985714Y-48135535D02*
X98985714Y-48635535D01*
X98985714Y-48206964D02*
X98950000Y-48171250D01*
X98878571Y-48135535D01*
X98771428Y-48135535D01*
X98700000Y-48171250D01*
X98664285Y-48242678D01*
X98664285Y-48635535D01*
X101200000Y-49093035D02*
X101021428Y-49843035D01*
X100878571Y-49307321D01*
X100735714Y-49843035D01*
X100557142Y-49093035D01*
X100271428Y-49843035D02*
X100271428Y-49343035D01*
X100271428Y-49093035D02*
X100307142Y-49128750D01*
X100271428Y-49164464D01*
X100235714Y-49128750D01*
X100271428Y-49093035D01*
X100271428Y-49164464D01*
X99664285Y-49450178D02*
X99914285Y-49450178D01*
X99914285Y-49843035D02*
X99914285Y-49093035D01*
X99557142Y-49093035D01*
X99271428Y-49843035D02*
X99271428Y-49343035D01*
X99271428Y-49093035D02*
X99307142Y-49128750D01*
X99271428Y-49164464D01*
X99235714Y-49128750D01*
X99271428Y-49093035D01*
X99271428Y-49164464D01*
D10*
X96480952Y-52450000D02*
X96528571Y-52426190D01*
X96600000Y-52426190D01*
X96671428Y-52450000D01*
X96719047Y-52497619D01*
X96742857Y-52545238D01*
X96766666Y-52640476D01*
X96766666Y-52711904D01*
X96742857Y-52807142D01*
X96719047Y-52854761D01*
X96671428Y-52902380D01*
X96600000Y-52926190D01*
X96552380Y-52926190D01*
X96480952Y-52902380D01*
X96457142Y-52878571D01*
X96457142Y-52711904D01*
X96552380Y-52711904D01*
X96242857Y-52926190D02*
X96242857Y-52426190D01*
X95957142Y-52926190D01*
X95957142Y-52426190D01*
X95719047Y-52926190D02*
X95719047Y-52426190D01*
X95600000Y-52426190D01*
X95528571Y-52450000D01*
X95480952Y-52497619D01*
X95457142Y-52545238D01*
X95433333Y-52640476D01*
X95433333Y-52711904D01*
X95457142Y-52807142D01*
X95480952Y-52854761D01*
X95528571Y-52902380D01*
X95600000Y-52926190D01*
X95719047Y-52926190D01*
X102026190Y-43504761D02*
X102026190Y-43219047D01*
X102026190Y-43361904D02*
X101526190Y-43361904D01*
X101597619Y-43314285D01*
X101645238Y-43266666D01*
X101669047Y-43219047D01*
X102026190Y-43742857D02*
X102026190Y-43838095D01*
X102002380Y-43885714D01*
X101978571Y-43909523D01*
X101907142Y-43957142D01*
X101811904Y-43980952D01*
X101621428Y-43980952D01*
X101573809Y-43957142D01*
X101550000Y-43933333D01*
X101526190Y-43885714D01*
X101526190Y-43790476D01*
X101550000Y-43742857D01*
X101573809Y-43719047D01*
X101621428Y-43695238D01*
X101740476Y-43695238D01*
X101788095Y-43719047D01*
X101811904Y-43742857D01*
X101835714Y-43790476D01*
X101835714Y-43885714D01*
X101811904Y-43933333D01*
X101788095Y-43957142D01*
X101740476Y-43980952D01*
X101502380Y-44552380D02*
X102145238Y-44123809D01*
X101740476Y-44790476D02*
X101716666Y-44742857D01*
X101692857Y-44719047D01*
X101645238Y-44695238D01*
X101621428Y-44695238D01*
X101573809Y-44719047D01*
X101550000Y-44742857D01*
X101526190Y-44790476D01*
X101526190Y-44885714D01*
X101550000Y-44933333D01*
X101573809Y-44957142D01*
X101621428Y-44980952D01*
X101645238Y-44980952D01*
X101692857Y-44957142D01*
X101716666Y-44933333D01*
X101740476Y-44885714D01*
X101740476Y-44790476D01*
X101764285Y-44742857D01*
X101788095Y-44719047D01*
X101835714Y-44695238D01*
X101930952Y-44695238D01*
X101978571Y-44719047D01*
X102002380Y-44742857D01*
X102026190Y-44790476D01*
X102026190Y-44885714D01*
X102002380Y-44933333D01*
X101978571Y-44957142D01*
X101930952Y-44980952D01*
X101835714Y-44980952D01*
X101788095Y-44957142D01*
X101764285Y-44933333D01*
X101740476Y-44885714D01*
X101502380Y-45552380D02*
X102145238Y-45123809D01*
X101526190Y-45671428D02*
X101526190Y-46004761D01*
X102026190Y-45790476D01*
X98947618Y-52926190D02*
X98947618Y-52426190D01*
X98828570Y-52426190D01*
X98757142Y-52450000D01*
X98709523Y-52497619D01*
X98685713Y-52545238D01*
X98661904Y-52640476D01*
X98661904Y-52711904D01*
X98685713Y-52807142D01*
X98709523Y-52854761D01*
X98757142Y-52902380D01*
X98828570Y-52926190D01*
X98947618Y-52926190D01*
X98161904Y-52878571D02*
X98185713Y-52902380D01*
X98257142Y-52926190D01*
X98304761Y-52926190D01*
X98376189Y-52902380D01*
X98423808Y-52854761D01*
X98447618Y-52807142D01*
X98471427Y-52711904D01*
X98471427Y-52640476D01*
X98447618Y-52545238D01*
X98423808Y-52497619D01*
X98376189Y-52450000D01*
X98304761Y-52426190D01*
X98257142Y-52426190D01*
X98185713Y-52450000D01*
X98161904Y-52473809D01*
X103880952Y-52473809D02*
X103857142Y-52450000D01*
X103809523Y-52426190D01*
X103690476Y-52426190D01*
X103642857Y-52450000D01*
X103619047Y-52473809D01*
X103595238Y-52521428D01*
X103595238Y-52569047D01*
X103619047Y-52640476D01*
X103904761Y-52926190D01*
X103595238Y-52926190D01*
X103428571Y-52426190D02*
X103095238Y-52426190D01*
X103309523Y-52926190D01*
X98478571Y-38923809D02*
X98454761Y-38900000D01*
X98407142Y-38876190D01*
X98288095Y-38876190D01*
X98240476Y-38900000D01*
X98216666Y-38923809D01*
X98192857Y-38971428D01*
X98192857Y-39019047D01*
X98216666Y-39090476D01*
X98502380Y-39376190D01*
X98192857Y-39376190D01*
X97883333Y-38876190D02*
X97835714Y-38876190D01*
X97788095Y-38900000D01*
X97764285Y-38923809D01*
X97740476Y-38971428D01*
X97716666Y-39066666D01*
X97716666Y-39185714D01*
X97740476Y-39280952D01*
X97764285Y-39328571D01*
X97788095Y-39352380D01*
X97835714Y-39376190D01*
X97883333Y-39376190D01*
X97930952Y-39352380D01*
X97954761Y-39328571D01*
X97978571Y-39280952D01*
X98002380Y-39185714D01*
X98002380Y-39066666D01*
X97978571Y-38971428D01*
X97954761Y-38923809D01*
X97930952Y-38900000D01*
X97883333Y-38876190D01*
X97526190Y-38923809D02*
X97502380Y-38900000D01*
X97454761Y-38876190D01*
X97335714Y-38876190D01*
X97288095Y-38900000D01*
X97264285Y-38923809D01*
X97240476Y-38971428D01*
X97240476Y-39019047D01*
X97264285Y-39090476D01*
X97550000Y-39376190D01*
X97240476Y-39376190D01*
X97050000Y-38923809D02*
X97026190Y-38900000D01*
X96978571Y-38876190D01*
X96859523Y-38876190D01*
X96811904Y-38900000D01*
X96788095Y-38923809D01*
X96764285Y-38971428D01*
X96764285Y-39019047D01*
X96788095Y-39090476D01*
X97073809Y-39376190D01*
X96764285Y-39376190D01*
X96550000Y-39185714D02*
X96169047Y-39185714D01*
X95835714Y-38876190D02*
X95788095Y-38876190D01*
X95740476Y-38900000D01*
X95716666Y-38923809D01*
X95692857Y-38971428D01*
X95669047Y-39066666D01*
X95669047Y-39185714D01*
X95692857Y-39280952D01*
X95716666Y-39328571D01*
X95740476Y-39352380D01*
X95788095Y-39376190D01*
X95835714Y-39376190D01*
X95883333Y-39352380D01*
X95907142Y-39328571D01*
X95930952Y-39280952D01*
X95954761Y-39185714D01*
X95954761Y-39066666D01*
X95930952Y-38971428D01*
X95907142Y-38923809D01*
X95883333Y-38900000D01*
X95835714Y-38876190D01*
X95240476Y-38876190D02*
X95335714Y-38876190D01*
X95383333Y-38900000D01*
X95407142Y-38923809D01*
X95454761Y-38995238D01*
X95478571Y-39090476D01*
X95478571Y-39280952D01*
X95454761Y-39328571D01*
X95430952Y-39352380D01*
X95383333Y-39376190D01*
X95288095Y-39376190D01*
X95240476Y-39352380D01*
X95216666Y-39328571D01*
X95192857Y-39280952D01*
X95192857Y-39161904D01*
X95216666Y-39114285D01*
X95240476Y-39090476D01*
X95288095Y-39066666D01*
X95383333Y-39066666D01*
X95430952Y-39090476D01*
X95454761Y-39114285D01*
X95478571Y-39161904D01*
X94978571Y-39185714D02*
X94597619Y-39185714D01*
X94264285Y-38876190D02*
X94216666Y-38876190D01*
X94169047Y-38900000D01*
X94145238Y-38923809D01*
X94121428Y-38971428D01*
X94097619Y-39066666D01*
X94097619Y-39185714D01*
X94121428Y-39280952D01*
X94145238Y-39328571D01*
X94169047Y-39352380D01*
X94216666Y-39376190D01*
X94264285Y-39376190D01*
X94311904Y-39352380D01*
X94335714Y-39328571D01*
X94359523Y-39280952D01*
X94383333Y-39185714D01*
X94383333Y-39066666D01*
X94359523Y-38971428D01*
X94335714Y-38923809D01*
X94311904Y-38900000D01*
X94264285Y-38876190D01*
X93907142Y-38923809D02*
X93883333Y-38900000D01*
X93835714Y-38876190D01*
X93716666Y-38876190D01*
X93669047Y-38900000D01*
X93645238Y-38923809D01*
X93621428Y-38971428D01*
X93621428Y-39019047D01*
X93645238Y-39090476D01*
X93930952Y-39376190D01*
X93621428Y-39376190D01*
D12*
X103657142Y-53935714D02*
X103466666Y-54602380D01*
X103276190Y-54126190D01*
X103085714Y-54602380D01*
X102895238Y-53935714D01*
X102609523Y-53935714D02*
X102419047Y-54602380D01*
X102228571Y-54126190D01*
X102038095Y-54602380D01*
X101847619Y-53935714D01*
X101561904Y-53935714D02*
X101371428Y-54602380D01*
X101180952Y-54126190D01*
X100990476Y-54602380D01*
X100800000Y-53935714D01*
X100419047Y-54507142D02*
X100371428Y-54554761D01*
X100419047Y-54602380D01*
X100466666Y-54554761D01*
X100419047Y-54507142D01*
X100419047Y-54602380D01*
X99942857Y-54602380D02*
X99942857Y-53935714D01*
X99942857Y-54030952D02*
X99895238Y-53983333D01*
X99800000Y-53935714D01*
X99657142Y-53935714D01*
X99561904Y-53983333D01*
X99514285Y-54078571D01*
X99514285Y-54602380D01*
X99514285Y-54078571D02*
X99466666Y-53983333D01*
X99371428Y-53935714D01*
X99228571Y-53935714D01*
X99133333Y-53983333D01*
X99085714Y-54078571D01*
X99085714Y-54602380D01*
X98228571Y-54554761D02*
X98323809Y-54602380D01*
X98514285Y-54602380D01*
X98609523Y-54554761D01*
X98657142Y-54459523D01*
X98657142Y-54078571D01*
X98609523Y-53983333D01*
X98514285Y-53935714D01*
X98323809Y-53935714D01*
X98228571Y-53983333D01*
X98180952Y-54078571D01*
X98180952Y-54173809D01*
X98657142Y-54269047D01*
X97752380Y-54507142D02*
X97704761Y-54554761D01*
X97752380Y-54602380D01*
X97800000Y-54554761D01*
X97752380Y-54507142D01*
X97752380Y-54602380D01*
X96847619Y-53935714D02*
X96847619Y-54602380D01*
X97276190Y-53935714D02*
X97276190Y-54459523D01*
X97228571Y-54554761D01*
X97133333Y-54602380D01*
X96990476Y-54602380D01*
X96895238Y-54554761D01*
X96847619Y-54507142D01*
X96371428Y-54602380D02*
X96371428Y-53602380D01*
X96276190Y-54221428D02*
X95990476Y-54602380D01*
X95990476Y-53935714D02*
X96371428Y-54316666D01*
D10*
%TO.C,J2*%
X101299551Y-57276776D02*
X101333223Y-57310448D01*
X101383730Y-57327284D01*
X101417402Y-57327284D01*
X101467910Y-57310448D01*
X101552089Y-57259940D01*
X101636269Y-57175761D01*
X101686776Y-57091582D01*
X101703612Y-57041074D01*
X101703612Y-57007402D01*
X101686776Y-56956895D01*
X101653104Y-56923223D01*
X101602597Y-56906387D01*
X101568925Y-56906387D01*
X101518417Y-56923223D01*
X101434238Y-56973730D01*
X101350059Y-57057910D01*
X101299551Y-57142089D01*
X101282715Y-57192597D01*
X101282715Y-57226269D01*
X101299551Y-57276776D01*
X96421582Y-56771700D02*
X96152208Y-57041074D01*
X96152208Y-56906387D02*
X96152208Y-57041074D01*
X96286895Y-57041074D01*
X96337402Y-57394627D02*
X96556269Y-57613494D01*
X96573104Y-57360956D01*
X96623612Y-57411463D01*
X96674120Y-57428299D01*
X96707791Y-57428299D01*
X96758299Y-57411463D01*
X96842478Y-57327284D01*
X96859314Y-57276776D01*
X96859314Y-57243104D01*
X96842478Y-57192597D01*
X96741463Y-57091582D01*
X96690956Y-57074746D01*
X96657284Y-57074746D01*
X98338654Y-56855879D02*
X98557521Y-57074746D01*
X98574356Y-56822208D01*
X98624864Y-56872715D01*
X98675372Y-56889551D01*
X98709043Y-56889551D01*
X98759551Y-56872715D01*
X98843730Y-56788536D01*
X98860566Y-56738028D01*
X98860566Y-56704356D01*
X98843730Y-56653849D01*
X98742715Y-56552834D01*
X98692208Y-56535998D01*
X98658536Y-56535998D01*
X98658536Y-57175761D02*
X99129940Y-56940059D01*
X98894238Y-57411463D01*
X98978417Y-57495643D02*
X99197284Y-57714509D01*
X99214120Y-57461971D01*
X99264627Y-57512478D01*
X99315135Y-57529314D01*
X99348807Y-57529314D01*
X99399314Y-57512478D01*
X99483494Y-57428299D01*
X99500330Y-57377791D01*
X99500330Y-57344120D01*
X99483494Y-57293612D01*
X99382478Y-57192597D01*
X99331971Y-57175761D01*
X99298299Y-57175761D01*
X103839551Y-56973730D02*
X104176269Y-57310448D01*
X104007910Y-56940059D02*
X104209940Y-57142089D01*
X103856387Y-57293612D02*
X104007910Y-57142089D01*
X104243612Y-56973730D02*
X104176269Y-56906387D01*
X93612208Y-57041074D02*
X93881582Y-56771700D01*
X93881582Y-56906387D02*
X93881582Y-56771700D01*
X93746895Y-56771700D01*
X94369822Y-57259940D02*
X94167791Y-57057910D01*
X94268807Y-57158925D02*
X93915253Y-57512478D01*
X93932089Y-57428299D01*
X93932089Y-57360956D01*
X93915253Y-57310448D01*
D13*
%TO.C,R2*%
X103850000Y-44325000D02*
X103850000Y-44925000D01*
X104850000Y-44325000D02*
X104850000Y-44925000D01*
%TO.C,C1*%
X96800000Y-48950000D02*
X96800000Y-48350000D01*
X97800000Y-48950000D02*
X97800000Y-48350000D01*
%TO.C,Q3*%
X104780000Y-49560000D02*
X104780000Y-48900000D01*
X103370000Y-47240000D02*
X104780000Y-47240000D01*
X104780000Y-47900000D02*
X104780000Y-47240000D01*
X104780000Y-49560000D02*
X102750000Y-49560000D01*
%TO.C,R6*%
X102025000Y-39900000D02*
X102625000Y-39900000D01*
X102025000Y-38900000D02*
X102625000Y-38900000D01*
%TO.C,R1*%
X102600000Y-44300000D02*
X102600000Y-44900000D01*
X103600000Y-44300000D02*
X103600000Y-44900000D01*
%TO.C,R3*%
X105150000Y-44300000D02*
X105150000Y-44900000D01*
X106150000Y-44300000D02*
X106150000Y-44900000D01*
%TO.C,R4*%
X95000000Y-48650000D02*
X95600000Y-48650000D01*
X95000000Y-47650000D02*
X95600000Y-47650000D01*
%TO.C,D1*%
X105800000Y-42100000D02*
X104700000Y-42100000D01*
X104700000Y-42100000D02*
X104700000Y-41100000D01*
%TO.C,C5*%
X95000000Y-48900000D02*
X95600000Y-48900000D01*
X95000000Y-49900000D02*
X95600000Y-49900000D01*
%TO.C,U2*%
X101200000Y-40825000D02*
X98100000Y-40825000D01*
X96450000Y-43400000D02*
X95050000Y-43400000D01*
X98150000Y-43800000D02*
X96650000Y-43800000D01*
X97925000Y-43875000D02*
X97925000Y-45475000D01*
X98150000Y-45550000D02*
X96650000Y-45550000D01*
X101300000Y-41450000D02*
X101300000Y-42050000D01*
X99800000Y-44600000D02*
X99800000Y-45500000D01*
X94950000Y-44600000D02*
X94950000Y-45500000D01*
X101200000Y-44600000D02*
X101200000Y-45500000D01*
X102200000Y-41450000D02*
X102200000Y-42050000D01*
X93550000Y-44600000D02*
X93550000Y-45500000D01*
X96450000Y-39700000D02*
X95050000Y-39700000D01*
%TO.C,R5*%
X105100000Y-38900000D02*
X104500000Y-38900000D01*
X105100000Y-39900000D02*
X104500000Y-39900000D01*
%TD*%
M02*
