%TF.GenerationSoftware,KiCad,Pcbnew,(6.0.2-0)*%
%TF.CreationDate,2022-04-04T13:28:19+01:00*%
%TF.ProjectId,Daikin,4461696b-696e-42e6-9b69-6361645f7063,1*%
%TF.SameCoordinates,Original*%
%TF.FileFunction,Legend,Bot*%
%TF.FilePolarity,Positive*%
%FSLAX46Y46*%
G04 Gerber Fmt 4.6, Leading zero omitted, Abs format (unit mm)*
G04 Created by KiCad (PCBNEW (6.0.2-0)) date 2022-04-04 13:28:19*
%MOMM*%
%LPD*%
G01*
G04 APERTURE LIST*
%ADD10C,0.080000*%
%ADD11C,0.100000*%
%ADD12C,0.150000*%
%ADD13C,0.120000*%
G04 APERTURE END LIST*
D10*
X101614284Y-52573809D02*
X101590474Y-52550000D01*
X101542855Y-52526190D01*
X101423808Y-52526190D01*
X101376189Y-52550000D01*
X101352379Y-52573809D01*
X101328570Y-52621428D01*
X101328570Y-52669047D01*
X101352379Y-52740476D01*
X101638093Y-53026190D01*
X101328570Y-53026190D01*
X100899998Y-52526190D02*
X100995236Y-52526190D01*
X101042855Y-52550000D01*
X101066665Y-52573809D01*
X101114284Y-52645238D01*
X101138093Y-52740476D01*
X101138093Y-52930952D01*
X101114284Y-52978571D01*
X101090474Y-53002380D01*
X101042855Y-53026190D01*
X100947617Y-53026190D01*
X100899998Y-53002380D01*
X100876189Y-52978571D01*
X100852379Y-52930952D01*
X100852379Y-52811904D01*
X100876189Y-52764285D01*
X100899998Y-52740476D01*
X100947617Y-52716666D01*
X101042855Y-52716666D01*
X101090474Y-52740476D01*
X101114284Y-52764285D01*
X101138093Y-52811904D01*
D11*
X94739285Y-46864285D02*
X93989285Y-46864285D01*
X93989285Y-47042857D01*
X94025000Y-47150000D01*
X94096428Y-47221428D01*
X94167857Y-47257142D01*
X94310714Y-47292857D01*
X94417857Y-47292857D01*
X94560714Y-47257142D01*
X94632142Y-47221428D01*
X94703571Y-47150000D01*
X94739285Y-47042857D01*
X94739285Y-46864285D01*
X94739285Y-47935714D02*
X94346428Y-47935714D01*
X94275000Y-47900000D01*
X94239285Y-47828571D01*
X94239285Y-47685714D01*
X94275000Y-47614285D01*
X94703571Y-47935714D02*
X94739285Y-47864285D01*
X94739285Y-47685714D01*
X94703571Y-47614285D01*
X94632142Y-47578571D01*
X94560714Y-47578571D01*
X94489285Y-47614285D01*
X94453571Y-47685714D01*
X94453571Y-47864285D01*
X94417857Y-47935714D01*
X94739285Y-48292857D02*
X94239285Y-48292857D01*
X93989285Y-48292857D02*
X94025000Y-48257142D01*
X94060714Y-48292857D01*
X94025000Y-48328571D01*
X93989285Y-48292857D01*
X94060714Y-48292857D01*
X94739285Y-48650000D02*
X93989285Y-48650000D01*
X94453571Y-48721428D02*
X94739285Y-48935714D01*
X94239285Y-48935714D02*
X94525000Y-48650000D01*
X94739285Y-49257142D02*
X94239285Y-49257142D01*
X93989285Y-49257142D02*
X94025000Y-49221428D01*
X94060714Y-49257142D01*
X94025000Y-49292857D01*
X93989285Y-49257142D01*
X94060714Y-49257142D01*
X94239285Y-49614285D02*
X94739285Y-49614285D01*
X94310714Y-49614285D02*
X94275000Y-49650000D01*
X94239285Y-49721428D01*
X94239285Y-49828571D01*
X94275000Y-49900000D01*
X94346428Y-49935714D01*
X94739285Y-49935714D01*
D10*
X96680952Y-52550000D02*
X96728571Y-52526190D01*
X96800000Y-52526190D01*
X96871428Y-52550000D01*
X96919047Y-52597619D01*
X96942857Y-52645238D01*
X96966666Y-52740476D01*
X96966666Y-52811904D01*
X96942857Y-52907142D01*
X96919047Y-52954761D01*
X96871428Y-53002380D01*
X96800000Y-53026190D01*
X96752380Y-53026190D01*
X96680952Y-53002380D01*
X96657142Y-52978571D01*
X96657142Y-52811904D01*
X96752380Y-52811904D01*
X96442857Y-53026190D02*
X96442857Y-52526190D01*
X96157142Y-53026190D01*
X96157142Y-52526190D01*
X95919047Y-53026190D02*
X95919047Y-52526190D01*
X95800000Y-52526190D01*
X95728571Y-52550000D01*
X95680952Y-52597619D01*
X95657142Y-52645238D01*
X95633333Y-52740476D01*
X95633333Y-52811904D01*
X95657142Y-52907142D01*
X95680952Y-52954761D01*
X95728571Y-53002380D01*
X95800000Y-53026190D01*
X95919047Y-53026190D01*
X102226190Y-43604761D02*
X102226190Y-43319047D01*
X102226190Y-43461904D02*
X101726190Y-43461904D01*
X101797619Y-43414285D01*
X101845238Y-43366666D01*
X101869047Y-43319047D01*
X102226190Y-43842857D02*
X102226190Y-43938095D01*
X102202380Y-43985714D01*
X102178571Y-44009523D01*
X102107142Y-44057142D01*
X102011904Y-44080952D01*
X101821428Y-44080952D01*
X101773809Y-44057142D01*
X101750000Y-44033333D01*
X101726190Y-43985714D01*
X101726190Y-43890476D01*
X101750000Y-43842857D01*
X101773809Y-43819047D01*
X101821428Y-43795238D01*
X101940476Y-43795238D01*
X101988095Y-43819047D01*
X102011904Y-43842857D01*
X102035714Y-43890476D01*
X102035714Y-43985714D01*
X102011904Y-44033333D01*
X101988095Y-44057142D01*
X101940476Y-44080952D01*
X101702380Y-44652380D02*
X102345238Y-44223809D01*
X101940476Y-44890476D02*
X101916666Y-44842857D01*
X101892857Y-44819047D01*
X101845238Y-44795238D01*
X101821428Y-44795238D01*
X101773809Y-44819047D01*
X101750000Y-44842857D01*
X101726190Y-44890476D01*
X101726190Y-44985714D01*
X101750000Y-45033333D01*
X101773809Y-45057142D01*
X101821428Y-45080952D01*
X101845238Y-45080952D01*
X101892857Y-45057142D01*
X101916666Y-45033333D01*
X101940476Y-44985714D01*
X101940476Y-44890476D01*
X101964285Y-44842857D01*
X101988095Y-44819047D01*
X102035714Y-44795238D01*
X102130952Y-44795238D01*
X102178571Y-44819047D01*
X102202380Y-44842857D01*
X102226190Y-44890476D01*
X102226190Y-44985714D01*
X102202380Y-45033333D01*
X102178571Y-45057142D01*
X102130952Y-45080952D01*
X102035714Y-45080952D01*
X101988095Y-45057142D01*
X101964285Y-45033333D01*
X101940476Y-44985714D01*
X101702380Y-45652380D02*
X102345238Y-45223809D01*
X101726190Y-45771428D02*
X101726190Y-46104761D01*
X102226190Y-45890476D01*
X99147618Y-53026190D02*
X99147618Y-52526190D01*
X99028570Y-52526190D01*
X98957142Y-52550000D01*
X98909523Y-52597619D01*
X98885713Y-52645238D01*
X98861904Y-52740476D01*
X98861904Y-52811904D01*
X98885713Y-52907142D01*
X98909523Y-52954761D01*
X98957142Y-53002380D01*
X99028570Y-53026190D01*
X99147618Y-53026190D01*
X98361904Y-52978571D02*
X98385713Y-53002380D01*
X98457142Y-53026190D01*
X98504761Y-53026190D01*
X98576189Y-53002380D01*
X98623808Y-52954761D01*
X98647618Y-52907142D01*
X98671427Y-52811904D01*
X98671427Y-52740476D01*
X98647618Y-52645238D01*
X98623808Y-52597619D01*
X98576189Y-52550000D01*
X98504761Y-52526190D01*
X98457142Y-52526190D01*
X98385713Y-52550000D01*
X98361904Y-52573809D01*
X104080952Y-52573809D02*
X104057142Y-52550000D01*
X104009523Y-52526190D01*
X103890476Y-52526190D01*
X103842857Y-52550000D01*
X103819047Y-52573809D01*
X103795238Y-52621428D01*
X103795238Y-52669047D01*
X103819047Y-52740476D01*
X104104761Y-53026190D01*
X103795238Y-53026190D01*
X103628571Y-52526190D02*
X103295238Y-52526190D01*
X103509523Y-53026190D01*
X102428571Y-49673809D02*
X102404761Y-49650000D01*
X102357142Y-49626190D01*
X102238095Y-49626190D01*
X102190476Y-49650000D01*
X102166666Y-49673809D01*
X102142857Y-49721428D01*
X102142857Y-49769047D01*
X102166666Y-49840476D01*
X102452380Y-50126190D01*
X102142857Y-50126190D01*
X101833333Y-49626190D02*
X101785714Y-49626190D01*
X101738095Y-49650000D01*
X101714285Y-49673809D01*
X101690476Y-49721428D01*
X101666666Y-49816666D01*
X101666666Y-49935714D01*
X101690476Y-50030952D01*
X101714285Y-50078571D01*
X101738095Y-50102380D01*
X101785714Y-50126190D01*
X101833333Y-50126190D01*
X101880952Y-50102380D01*
X101904761Y-50078571D01*
X101928571Y-50030952D01*
X101952380Y-49935714D01*
X101952380Y-49816666D01*
X101928571Y-49721428D01*
X101904761Y-49673809D01*
X101880952Y-49650000D01*
X101833333Y-49626190D01*
X101476190Y-49673809D02*
X101452380Y-49650000D01*
X101404761Y-49626190D01*
X101285714Y-49626190D01*
X101238095Y-49650000D01*
X101214285Y-49673809D01*
X101190476Y-49721428D01*
X101190476Y-49769047D01*
X101214285Y-49840476D01*
X101500000Y-50126190D01*
X101190476Y-50126190D01*
X101000000Y-49673809D02*
X100976190Y-49650000D01*
X100928571Y-49626190D01*
X100809523Y-49626190D01*
X100761904Y-49650000D01*
X100738095Y-49673809D01*
X100714285Y-49721428D01*
X100714285Y-49769047D01*
X100738095Y-49840476D01*
X101023809Y-50126190D01*
X100714285Y-50126190D01*
X100500000Y-49935714D02*
X100119047Y-49935714D01*
X99785714Y-49626190D02*
X99738095Y-49626190D01*
X99690476Y-49650000D01*
X99666666Y-49673809D01*
X99642857Y-49721428D01*
X99619047Y-49816666D01*
X99619047Y-49935714D01*
X99642857Y-50030952D01*
X99666666Y-50078571D01*
X99690476Y-50102380D01*
X99738095Y-50126190D01*
X99785714Y-50126190D01*
X99833333Y-50102380D01*
X99857142Y-50078571D01*
X99880952Y-50030952D01*
X99904761Y-49935714D01*
X99904761Y-49816666D01*
X99880952Y-49721428D01*
X99857142Y-49673809D01*
X99833333Y-49650000D01*
X99785714Y-49626190D01*
X99190476Y-49792857D02*
X99190476Y-50126190D01*
X99309523Y-49602380D02*
X99428571Y-49959523D01*
X99119047Y-49959523D01*
X98928571Y-49935714D02*
X98547619Y-49935714D01*
X98214285Y-49626190D02*
X98166666Y-49626190D01*
X98119047Y-49650000D01*
X98095238Y-49673809D01*
X98071428Y-49721428D01*
X98047619Y-49816666D01*
X98047619Y-49935714D01*
X98071428Y-50030952D01*
X98095238Y-50078571D01*
X98119047Y-50102380D01*
X98166666Y-50126190D01*
X98214285Y-50126190D01*
X98261904Y-50102380D01*
X98285714Y-50078571D01*
X98309523Y-50030952D01*
X98333333Y-49935714D01*
X98333333Y-49816666D01*
X98309523Y-49721428D01*
X98285714Y-49673809D01*
X98261904Y-49650000D01*
X98214285Y-49626190D01*
X97857142Y-49673809D02*
X97833333Y-49650000D01*
X97785714Y-49626190D01*
X97666666Y-49626190D01*
X97619047Y-49650000D01*
X97595238Y-49673809D01*
X97571428Y-49721428D01*
X97571428Y-49769047D01*
X97595238Y-49840476D01*
X97880952Y-50126190D01*
X97571428Y-50126190D01*
D12*
X103857142Y-53685714D02*
X103666666Y-54352380D01*
X103476190Y-53876190D01*
X103285714Y-54352380D01*
X103095238Y-53685714D01*
X102809523Y-53685714D02*
X102619047Y-54352380D01*
X102428571Y-53876190D01*
X102238095Y-54352380D01*
X102047619Y-53685714D01*
X101761904Y-53685714D02*
X101571428Y-54352380D01*
X101380952Y-53876190D01*
X101190476Y-54352380D01*
X101000000Y-53685714D01*
X100619047Y-54257142D02*
X100571428Y-54304761D01*
X100619047Y-54352380D01*
X100666666Y-54304761D01*
X100619047Y-54257142D01*
X100619047Y-54352380D01*
X100142857Y-54352380D02*
X100142857Y-53685714D01*
X100142857Y-53780952D02*
X100095238Y-53733333D01*
X100000000Y-53685714D01*
X99857142Y-53685714D01*
X99761904Y-53733333D01*
X99714285Y-53828571D01*
X99714285Y-54352380D01*
X99714285Y-53828571D02*
X99666666Y-53733333D01*
X99571428Y-53685714D01*
X99428571Y-53685714D01*
X99333333Y-53733333D01*
X99285714Y-53828571D01*
X99285714Y-54352380D01*
X98428571Y-54304761D02*
X98523809Y-54352380D01*
X98714285Y-54352380D01*
X98809523Y-54304761D01*
X98857142Y-54209523D01*
X98857142Y-53828571D01*
X98809523Y-53733333D01*
X98714285Y-53685714D01*
X98523809Y-53685714D01*
X98428571Y-53733333D01*
X98380952Y-53828571D01*
X98380952Y-53923809D01*
X98857142Y-54019047D01*
X97952380Y-54257142D02*
X97904761Y-54304761D01*
X97952380Y-54352380D01*
X98000000Y-54304761D01*
X97952380Y-54257142D01*
X97952380Y-54352380D01*
X97047619Y-53685714D02*
X97047619Y-54352380D01*
X97476190Y-53685714D02*
X97476190Y-54209523D01*
X97428571Y-54304761D01*
X97333333Y-54352380D01*
X97190476Y-54352380D01*
X97095238Y-54304761D01*
X97047619Y-54257142D01*
X96571428Y-54352380D02*
X96571428Y-53352380D01*
X96476190Y-53971428D02*
X96190476Y-54352380D01*
X96190476Y-53685714D02*
X96571428Y-54066666D01*
D10*
%TO.C,J2*%
X102516190Y-57943809D02*
X102563809Y-57943809D01*
X102611428Y-57920000D01*
X102635238Y-57896190D01*
X102659047Y-57848571D01*
X102682857Y-57753333D01*
X102682857Y-57634285D01*
X102659047Y-57539047D01*
X102635238Y-57491428D01*
X102611428Y-57467619D01*
X102563809Y-57443809D01*
X102516190Y-57443809D01*
X102468571Y-57467619D01*
X102444761Y-57491428D01*
X102420952Y-57539047D01*
X102397142Y-57634285D01*
X102397142Y-57753333D01*
X102420952Y-57848571D01*
X102444761Y-57896190D01*
X102468571Y-57920000D01*
X102516190Y-57943809D01*
X97460000Y-57443809D02*
X97460000Y-57824761D01*
X97364761Y-57729523D02*
X97460000Y-57824761D01*
X97555238Y-57729523D01*
X99380952Y-57943809D02*
X99690476Y-57943809D01*
X99523809Y-57753333D01*
X99595238Y-57753333D01*
X99642857Y-57729523D01*
X99666666Y-57705714D01*
X99690476Y-57658095D01*
X99690476Y-57539047D01*
X99666666Y-57491428D01*
X99642857Y-57467619D01*
X99595238Y-57443809D01*
X99452380Y-57443809D01*
X99404761Y-57467619D01*
X99380952Y-57491428D01*
X99833333Y-57943809D02*
X100000000Y-57443809D01*
X100166666Y-57943809D01*
X100285714Y-57943809D02*
X100595238Y-57943809D01*
X100428571Y-57753333D01*
X100500000Y-57753333D01*
X100547619Y-57729523D01*
X100571428Y-57705714D01*
X100595238Y-57658095D01*
X100595238Y-57539047D01*
X100571428Y-57491428D01*
X100547619Y-57467619D01*
X100500000Y-57443809D01*
X100357142Y-57443809D01*
X100309523Y-57467619D01*
X100285714Y-57491428D01*
X104841904Y-57729523D02*
X105318095Y-57729523D01*
X104937142Y-57586666D02*
X105222857Y-57586666D01*
X105080000Y-57943809D02*
X105080000Y-57729523D01*
X105127619Y-57443809D02*
X105032380Y-57443809D01*
X94920000Y-57824761D02*
X94920000Y-57443809D01*
X95015238Y-57539047D02*
X94920000Y-57443809D01*
X94824761Y-57539047D01*
D13*
%TO.C,R2*%
X105050000Y-44425000D02*
X105050000Y-45025000D01*
X104050000Y-44425000D02*
X104050000Y-45025000D01*
%TO.C,C1*%
X99500000Y-46700000D02*
X98900000Y-46700000D01*
X99500000Y-47700000D02*
X98900000Y-47700000D01*
%TO.C,Q3*%
X102770000Y-47040000D02*
X102770000Y-47700000D01*
X104180000Y-49360000D02*
X102770000Y-49360000D01*
X102770000Y-48700000D02*
X102770000Y-49360000D01*
X102770000Y-47040000D02*
X104800000Y-47040000D01*
%TO.C,R6*%
X102225000Y-40000000D02*
X102825000Y-40000000D01*
X102225000Y-39000000D02*
X102825000Y-39000000D01*
%TO.C,R1*%
X103800000Y-44400000D02*
X103800000Y-45000000D01*
X102800000Y-44400000D02*
X102800000Y-45000000D01*
%TO.C,R3*%
X106350000Y-44400000D02*
X106350000Y-45000000D01*
X105350000Y-44400000D02*
X105350000Y-45000000D01*
%TO.C,R4*%
X96100000Y-46700000D02*
X96700000Y-46700000D01*
X96100000Y-47700000D02*
X96700000Y-47700000D01*
%TO.C,D1*%
X104900000Y-42200000D02*
X104900000Y-41200000D01*
X106000000Y-42200000D02*
X104900000Y-42200000D01*
%TO.C,C5*%
X96100000Y-49000000D02*
X96700000Y-49000000D01*
X96100000Y-48000000D02*
X96700000Y-48000000D01*
%TO.C,U2*%
X101400000Y-40925000D02*
X98300000Y-40925000D01*
X98125000Y-43975000D02*
X98125000Y-45575000D01*
%TO.C,R5*%
X105300000Y-39000000D02*
X104700000Y-39000000D01*
X105300000Y-40000000D02*
X104700000Y-40000000D01*
%TD*%
M02*
