M48
; DRILL file {KiCad (6.0.5-0)} date Thursday, 02 June 2022 at 09:50:02
; FORMAT={-:-/ absolute / inch / decimal}
; #@! TF.CreationDate,2022-06-02T09:50:02+01:00
; #@! TF.GenerationSoftware,Kicad,Pcbnew,(6.0.5-0)
; #@! TF.FileFunction,Plated,1,2,PTH
FMAT,2
INCH
; #@! TA.AperFunction,Plated,PTH,ViaDrill
T1C0.0157
; #@! TA.AperFunction,Plated,PTH,ComponentDrill
T2C0.0335
; #@! TA.AperFunction,Plated,PTH,ComponentDrill
T3C0.0394
%
G90
G05
T1
X3.7136Y-1.9842
X3.7362Y-1.6299
X3.7618Y-1.8563
X3.7677Y-1.5945
X3.8346Y-1.7756
X3.8701Y-1.8858
X3.9616Y-1.8662
X4.0498Y-1.6056
X4.0906Y-1.6044
X4.0908Y-1.8344
X4.1072Y-1.8897
X4.1221Y-1.7636
X4.1316Y-1.8347
T2
X3.7815Y-2.0213
X3.8799Y-2.0213
X3.9783Y-2.0213
X4.0768Y-2.0213
T3
X3.7291Y-2.2165
X3.8291Y-2.2165
X3.9291Y-2.2165
X4.0291Y-2.2165
X4.1291Y-2.2165
T0
M30
