%TF.GenerationSoftware,KiCad,Pcbnew,(6.0.2-0)*%
%TF.CreationDate,2022-04-02T10:18:42+01:00*%
%TF.ProjectId,Daikin,4461696b-696e-42e6-9b69-6361645f7063,1*%
%TF.SameCoordinates,Original*%
%TF.FileFunction,Legend,Bot*%
%TF.FilePolarity,Positive*%
%FSLAX46Y46*%
G04 Gerber Fmt 4.6, Leading zero omitted, Abs format (unit mm)*
G04 Created by KiCad (PCBNEW (6.0.2-0)) date 2022-04-02 10:18:42*
%MOMM*%
%LPD*%
G01*
G04 APERTURE LIST*
%ADD10C,0.100000*%
%ADD11C,0.080000*%
%ADD12C,0.150000*%
%ADD13C,0.120000*%
G04 APERTURE END LIST*
D10*
X105410714Y-51735714D02*
X106160714Y-51735714D01*
X106160714Y-51557142D01*
X106125000Y-51450000D01*
X106053571Y-51378571D01*
X105982142Y-51342857D01*
X105839285Y-51307142D01*
X105732142Y-51307142D01*
X105589285Y-51342857D01*
X105517857Y-51378571D01*
X105446428Y-51450000D01*
X105410714Y-51557142D01*
X105410714Y-51735714D01*
X105410714Y-50664285D02*
X105803571Y-50664285D01*
X105875000Y-50700000D01*
X105910714Y-50771428D01*
X105910714Y-50914285D01*
X105875000Y-50985714D01*
X105446428Y-50664285D02*
X105410714Y-50735714D01*
X105410714Y-50914285D01*
X105446428Y-50985714D01*
X105517857Y-51021428D01*
X105589285Y-51021428D01*
X105660714Y-50985714D01*
X105696428Y-50914285D01*
X105696428Y-50735714D01*
X105732142Y-50664285D01*
X105410714Y-50307142D02*
X105910714Y-50307142D01*
X106160714Y-50307142D02*
X106125000Y-50342857D01*
X106089285Y-50307142D01*
X106125000Y-50271428D01*
X106160714Y-50307142D01*
X106089285Y-50307142D01*
X105410714Y-49950000D02*
X106160714Y-49950000D01*
X105696428Y-49878571D02*
X105410714Y-49664285D01*
X105910714Y-49664285D02*
X105625000Y-49950000D01*
X105410714Y-49342857D02*
X105910714Y-49342857D01*
X106160714Y-49342857D02*
X106125000Y-49378571D01*
X106089285Y-49342857D01*
X106125000Y-49307142D01*
X106160714Y-49342857D01*
X106089285Y-49342857D01*
X105910714Y-48985714D02*
X105410714Y-48985714D01*
X105839285Y-48985714D02*
X105875000Y-48950000D01*
X105910714Y-48878571D01*
X105910714Y-48771428D01*
X105875000Y-48700000D01*
X105803571Y-48664285D01*
X105410714Y-48664285D01*
D11*
X105869047Y-47426190D02*
X106035714Y-47188095D01*
X106154761Y-47426190D02*
X106154761Y-46926190D01*
X105964285Y-46926190D01*
X105916666Y-46950000D01*
X105892857Y-46973809D01*
X105869047Y-47021428D01*
X105869047Y-47092857D01*
X105892857Y-47140476D01*
X105916666Y-47164285D01*
X105964285Y-47188095D01*
X106154761Y-47188095D01*
X105392857Y-46950000D02*
X105440476Y-46926190D01*
X105511904Y-46926190D01*
X105583333Y-46950000D01*
X105630952Y-46997619D01*
X105654761Y-47045238D01*
X105678571Y-47140476D01*
X105678571Y-47211904D01*
X105654761Y-47307142D01*
X105630952Y-47354761D01*
X105583333Y-47402380D01*
X105511904Y-47426190D01*
X105464285Y-47426190D01*
X105392857Y-47402380D01*
X105369047Y-47378571D01*
X105369047Y-47211904D01*
X105464285Y-47211904D01*
X104988095Y-47164285D02*
X104916666Y-47188095D01*
X104892857Y-47211904D01*
X104869047Y-47259523D01*
X104869047Y-47330952D01*
X104892857Y-47378571D01*
X104916666Y-47402380D01*
X104964285Y-47426190D01*
X105154761Y-47426190D01*
X105154761Y-46926190D01*
X104988095Y-46926190D01*
X104940476Y-46950000D01*
X104916666Y-46973809D01*
X104892857Y-47021428D01*
X104892857Y-47069047D01*
X104916666Y-47116666D01*
X104940476Y-47140476D01*
X104988095Y-47164285D01*
X105154761Y-47164285D01*
X104654761Y-47378571D02*
X104630952Y-47402380D01*
X104654761Y-47426190D01*
X104678571Y-47402380D01*
X104654761Y-47378571D01*
X104654761Y-47426190D01*
X104654761Y-47116666D02*
X104630952Y-47140476D01*
X104654761Y-47164285D01*
X104678571Y-47140476D01*
X104654761Y-47116666D01*
X104654761Y-47164285D01*
X104059523Y-46973809D02*
X104035714Y-46950000D01*
X103988095Y-46926190D01*
X103869047Y-46926190D01*
X103821428Y-46950000D01*
X103797619Y-46973809D01*
X103773809Y-47021428D01*
X103773809Y-47069047D01*
X103797619Y-47140476D01*
X104083333Y-47426190D01*
X103773809Y-47426190D01*
X103583333Y-46973809D02*
X103559523Y-46950000D01*
X103511904Y-46926190D01*
X103392857Y-46926190D01*
X103345238Y-46950000D01*
X103321428Y-46973809D01*
X103297619Y-47021428D01*
X103297619Y-47069047D01*
X103321428Y-47140476D01*
X103607142Y-47426190D01*
X103297619Y-47426190D01*
X102726190Y-46902380D02*
X103154761Y-47545238D01*
X102297619Y-47426190D02*
X102583333Y-47426190D01*
X102440476Y-47426190D02*
X102440476Y-46926190D01*
X102488095Y-46997619D01*
X102535714Y-47045238D01*
X102583333Y-47069047D01*
X102059523Y-47426190D02*
X101964285Y-47426190D01*
X101916666Y-47402380D01*
X101892857Y-47378571D01*
X101845238Y-47307142D01*
X101821428Y-47211904D01*
X101821428Y-47021428D01*
X101845238Y-46973809D01*
X101869047Y-46950000D01*
X101916666Y-46926190D01*
X102011904Y-46926190D01*
X102059523Y-46950000D01*
X102083333Y-46973809D01*
X102107142Y-47021428D01*
X102107142Y-47140476D01*
X102083333Y-47188095D01*
X102059523Y-47211904D01*
X102011904Y-47235714D01*
X101916666Y-47235714D01*
X101869047Y-47211904D01*
X101845238Y-47188095D01*
X101821428Y-47140476D01*
X101250000Y-46902380D02*
X101678571Y-47545238D01*
X101130952Y-46926190D02*
X100797619Y-46926190D01*
X101011904Y-47426190D01*
D12*
X104357142Y-48785714D02*
X104166666Y-49452380D01*
X103976190Y-48976190D01*
X103785714Y-49452380D01*
X103595238Y-48785714D01*
X103309523Y-48785714D02*
X103119047Y-49452380D01*
X102928571Y-48976190D01*
X102738095Y-49452380D01*
X102547619Y-48785714D01*
X102261904Y-48785714D02*
X102071428Y-49452380D01*
X101880952Y-48976190D01*
X101690476Y-49452380D01*
X101500000Y-48785714D01*
X101119047Y-49357142D02*
X101071428Y-49404761D01*
X101119047Y-49452380D01*
X101166666Y-49404761D01*
X101119047Y-49357142D01*
X101119047Y-49452380D01*
X100642857Y-49452380D02*
X100642857Y-48785714D01*
X100642857Y-48880952D02*
X100595238Y-48833333D01*
X100500000Y-48785714D01*
X100357142Y-48785714D01*
X100261904Y-48833333D01*
X100214285Y-48928571D01*
X100214285Y-49452380D01*
X100214285Y-48928571D02*
X100166666Y-48833333D01*
X100071428Y-48785714D01*
X99928571Y-48785714D01*
X99833333Y-48833333D01*
X99785714Y-48928571D01*
X99785714Y-49452380D01*
X98928571Y-49404761D02*
X99023809Y-49452380D01*
X99214285Y-49452380D01*
X99309523Y-49404761D01*
X99357142Y-49309523D01*
X99357142Y-48928571D01*
X99309523Y-48833333D01*
X99214285Y-48785714D01*
X99023809Y-48785714D01*
X98928571Y-48833333D01*
X98880952Y-48928571D01*
X98880952Y-49023809D01*
X99357142Y-49119047D01*
X98452380Y-49357142D02*
X98404761Y-49404761D01*
X98452380Y-49452380D01*
X98500000Y-49404761D01*
X98452380Y-49357142D01*
X98452380Y-49452380D01*
X97547619Y-48785714D02*
X97547619Y-49452380D01*
X97976190Y-48785714D02*
X97976190Y-49309523D01*
X97928571Y-49404761D01*
X97833333Y-49452380D01*
X97690476Y-49452380D01*
X97595238Y-49404761D01*
X97547619Y-49357142D01*
X97071428Y-49452380D02*
X97071428Y-48452380D01*
X96976190Y-49071428D02*
X96690476Y-49452380D01*
X96690476Y-48785714D02*
X97071428Y-49166666D01*
D13*
%TO.C,Q2*%
X96555714Y-52840000D02*
X96555714Y-53500000D01*
X97965714Y-55160000D02*
X96555714Y-55160000D01*
X96555714Y-54500000D02*
X96555714Y-55160000D01*
X96555714Y-52840000D02*
X98585714Y-52840000D01*
%TO.C,Q1*%
X101005714Y-52840000D02*
X101005714Y-53500000D01*
X102415714Y-55160000D02*
X101005714Y-55160000D01*
X101005714Y-54500000D02*
X101005714Y-55160000D01*
X101005714Y-52840000D02*
X103035714Y-52840000D01*
%TO.C,R2*%
X105050000Y-44425000D02*
X105050000Y-45025000D01*
X104050000Y-44425000D02*
X104050000Y-45025000D01*
%TO.C,C1*%
X99500000Y-46700000D02*
X98900000Y-46700000D01*
X99500000Y-47700000D02*
X98900000Y-47700000D01*
%TO.C,R6*%
X102225000Y-40000000D02*
X102825000Y-40000000D01*
X102225000Y-39000000D02*
X102825000Y-39000000D01*
%TO.C,R1*%
X103200000Y-44400000D02*
X103200000Y-45000000D01*
X102200000Y-44400000D02*
X102200000Y-45000000D01*
%TO.C,R3*%
X106350000Y-44400000D02*
X106350000Y-45000000D01*
X105350000Y-44400000D02*
X105350000Y-45000000D01*
%TO.C,R4*%
X96100000Y-46700000D02*
X96700000Y-46700000D01*
X96100000Y-47700000D02*
X96700000Y-47700000D01*
%TO.C,D1*%
X104900000Y-41600000D02*
X104900000Y-40600000D01*
X106000000Y-41600000D02*
X104900000Y-41600000D01*
%TO.C,C5*%
X94200000Y-50000000D02*
X94200000Y-50600000D01*
X95200000Y-50000000D02*
X95200000Y-50600000D01*
%TO.C,U2*%
X101400000Y-40925000D02*
X98300000Y-40925000D01*
X98125000Y-43975000D02*
X98125000Y-45575000D01*
%TO.C,R5*%
X105300000Y-39000000D02*
X104700000Y-39000000D01*
X105300000Y-40000000D02*
X104700000Y-40000000D01*
%TD*%
M02*
