%TF.GenerationSoftware,KiCad,Pcbnew,(6.0.9-0)*%
%TF.CreationDate,2023-01-05T14:31:27+00:00*%
%TF.ProjectId,Daikin,4461696b-696e-42e6-9b69-6361645f7063,1*%
%TF.SameCoordinates,Original*%
%TF.FileFunction,Copper,L1,Top*%
%TF.FilePolarity,Positive*%
%FSLAX46Y46*%
G04 Gerber Fmt 4.6, Leading zero omitted, Abs format (unit mm)*
G04 Created by KiCad (PCBNEW (6.0.9-0)) date 2023-01-05 14:31:27*
%MOMM*%
%LPD*%
G01*
G04 APERTURE LIST*
G04 Aperture macros list*
%AMRoundRect*
0 Rectangle with rounded corners*
0 $1 Rounding radius*
0 $2 $3 $4 $5 $6 $7 $8 $9 X,Y pos of 4 corners*
0 Add a 4 corners polygon primitive as box body*
4,1,4,$2,$3,$4,$5,$6,$7,$8,$9,$2,$3,0*
0 Add four circle primitives for the rounded corners*
1,1,$1+$1,$2,$3*
1,1,$1+$1,$4,$5*
1,1,$1+$1,$6,$7*
1,1,$1+$1,$8,$9*
0 Add four rect primitives between the rounded corners*
20,1,$1+$1,$2,$3,$4,$5,0*
20,1,$1+$1,$4,$5,$6,$7,0*
20,1,$1+$1,$6,$7,$8,$9,0*
20,1,$1+$1,$8,$9,$2,$3,0*%
%AMOutline5P*
0 Free polygon, 5 corners , with rotation*
0 The origin of the aperture is its center*
0 number of corners: always 5*
0 $1 to $10 corner X, Y*
0 $11 Rotation angle, in degrees counterclockwise*
0 create outline with 5 corners*
4,1,5,$1,$2,$3,$4,$5,$6,$7,$8,$9,$10,$1,$2,$11*%
%AMOutline6P*
0 Free polygon, 6 corners , with rotation*
0 The origin of the aperture is its center*
0 number of corners: always 6*
0 $1 to $12 corner X, Y*
0 $13 Rotation angle, in degrees counterclockwise*
0 create outline with 6 corners*
4,1,6,$1,$2,$3,$4,$5,$6,$7,$8,$9,$10,$11,$12,$1,$2,$13*%
%AMOutline7P*
0 Free polygon, 7 corners , with rotation*
0 The origin of the aperture is its center*
0 number of corners: always 7*
0 $1 to $14 corner X, Y*
0 $15 Rotation angle, in degrees counterclockwise*
0 create outline with 7 corners*
4,1,7,$1,$2,$3,$4,$5,$6,$7,$8,$9,$10,$11,$12,$13,$14,$1,$2,$15*%
%AMOutline8P*
0 Free polygon, 8 corners , with rotation*
0 The origin of the aperture is its center*
0 number of corners: always 8*
0 $1 to $16 corner X, Y*
0 $17 Rotation angle, in degrees counterclockwise*
0 create outline with 8 corners*
4,1,8,$1,$2,$3,$4,$5,$6,$7,$8,$9,$10,$11,$12,$13,$14,$15,$16,$1,$2,$17*%
G04 Aperture macros list end*
%TA.AperFunction,SMDPad,CuDef*%
%ADD10R,0.800000X0.400000*%
%TD*%
%TA.AperFunction,SMDPad,CuDef*%
%ADD11R,0.400000X0.800000*%
%TD*%
%TA.AperFunction,SMDPad,CuDef*%
%ADD12R,1.450000X1.450000*%
%TD*%
%TA.AperFunction,SMDPad,CuDef*%
%ADD13Outline5P,-0.725000X0.130500X-0.130500X0.725000X0.725000X0.725000X0.725000X-0.725000X-0.725000X-0.725000X0.000000*%
%TD*%
%TA.AperFunction,SMDPad,CuDef*%
%ADD14R,0.700000X0.700000*%
%TD*%
%TA.AperFunction,ComponentPad*%
%ADD15RoundRect,0.250000X-0.600000X-0.675000X0.600000X-0.675000X0.600000X0.675000X-0.600000X0.675000X0*%
%TD*%
%TA.AperFunction,ComponentPad*%
%ADD16O,1.700000X1.850000*%
%TD*%
%TA.AperFunction,ComponentPad*%
%ADD17Outline5P,-0.850000X0.850000X0.850000X0.850000X0.850000X-0.850000X-0.340000X-0.850000X-0.850000X-0.340000X0.000000*%
%TD*%
%TA.AperFunction,ComponentPad*%
%ADD18O,1.700000X1.700000*%
%TD*%
%TA.AperFunction,ViaPad*%
%ADD19C,0.800000*%
%TD*%
%TA.AperFunction,Conductor*%
%ADD20C,0.250000*%
%TD*%
G04 APERTURE END LIST*
D10*
%TO.P,U1,1,GND*%
%TO.N,GND*%
X93900000Y-40093250D03*
%TO.P,U1,2,GND*%
X93900000Y-40893250D03*
%TO.P,U1,3,3V3*%
%TO.N,+3V3*%
X93900000Y-41693250D03*
%TO.P,U1,4,I36*%
%TO.N,unconnected-(U1-Pad4)*%
X93900000Y-42493250D03*
%TO.P,U1,5,I37*%
%TO.N,unconnected-(U1-Pad5)*%
X93900000Y-43293250D03*
%TO.P,U1,6,I38*%
%TO.N,unconnected-(U1-Pad6)*%
X93900000Y-44093250D03*
%TO.P,U1,7,I39*%
%TO.N,unconnected-(U1-Pad7)*%
X93900000Y-44893250D03*
%TO.P,U1,8,EN*%
%TO.N,EN*%
X93900000Y-45693250D03*
%TO.P,U1,9,I34*%
%TO.N,unconnected-(U1-Pad9)*%
X93900000Y-46493250D03*
%TO.P,U1,10,I35*%
%TO.N,unconnected-(U1-Pad10)*%
X93900000Y-47293250D03*
%TO.P,U1,11,GND*%
%TO.N,GND*%
X93900000Y-48093250D03*
D11*
%TO.P,U1,12,IO32*%
%TO.N,unconnected-(U1-Pad12)*%
X95000000Y-48993250D03*
%TO.P,U1,13,IO33*%
%TO.N,unconnected-(U1-Pad13)*%
X95800000Y-48993250D03*
%TO.P,U1,14,GND*%
%TO.N,GND*%
X96600000Y-48993250D03*
%TO.P,U1,15,IO25*%
%TO.N,unconnected-(U1-Pad15)*%
X97400000Y-48993250D03*
%TO.P,U1,16,IO26*%
%TO.N,TX*%
X98200000Y-48993250D03*
%TO.P,U1,17,IO27*%
%TO.N,RX*%
X99000000Y-48993250D03*
%TO.P,U1,18,IO14*%
%TO.N,unconnected-(U1-Pad18)*%
X99800000Y-48993250D03*
%TO.P,U1,19,IO12*%
%TO.N,unconnected-(U1-Pad19)*%
X100600000Y-48993250D03*
%TO.P,U1,20,IO13*%
%TO.N,unconnected-(U1-Pad20)*%
X101400000Y-48993250D03*
%TO.P,U1,21,IO15*%
%TO.N,unconnected-(U1-Pad21)*%
X102200000Y-48993250D03*
%TO.P,U1,22,IO2*%
%TO.N,unconnected-(U1-Pad22)*%
X103000000Y-48993250D03*
%TO.P,U1,23,IO0*%
%TO.N,GPIO0*%
X103800000Y-48993250D03*
%TO.P,U1,24,IO4*%
%TO.N,unconnected-(U1-Pad24)*%
X104600000Y-48993250D03*
D10*
%TO.P,U1,25,NC*%
%TO.N,unconnected-(U1-Pad25)*%
X105700000Y-48093250D03*
%TO.P,U1,26,IO20*%
%TO.N,unconnected-(U1-Pad26)*%
X105700000Y-47293250D03*
%TO.P,U1,27,IO7*%
%TO.N,B*%
X105700000Y-46493250D03*
%TO.P,U1,28,IO8*%
%TO.N,G*%
X105700000Y-45693250D03*
%TO.P,U1,29,IO5*%
%TO.N,unconnected-(U1-Pad29)*%
X105700000Y-44893250D03*
%TO.P,U1,30,RXD0*%
%TO.N,I*%
X105700000Y-44093250D03*
%TO.P,U1,31,TXD0*%
%TO.N,O*%
X105700000Y-43293250D03*
%TO.P,U1,32,NC*%
%TO.N,unconnected-(U1-Pad32)*%
X105700000Y-42493250D03*
%TO.P,U1,33,IO19*%
%TO.N,R*%
X105700000Y-41693250D03*
%TO.P,U1,34,IO22*%
%TO.N,unconnected-(U1-Pad34)*%
X105700000Y-40893250D03*
%TO.P,U1,35,IO21*%
%TO.N,unconnected-(U1-Pad35)*%
X105700000Y-40093250D03*
D11*
%TO.P,U1,36,GND*%
%TO.N,GND*%
X104600000Y-39193250D03*
%TO.P,U1,37,GND*%
X103800000Y-39193250D03*
%TO.P,U1,38,GND*%
X103000000Y-39193250D03*
%TO.P,U1,39,GND*%
X102200000Y-39193250D03*
%TO.P,U1,40,GND*%
X101400000Y-39193250D03*
%TO.P,U1,41,GND*%
X100600000Y-39193250D03*
%TO.P,U1,42,GND*%
X99800000Y-39193250D03*
%TO.P,U1,43,GND*%
X99000000Y-39193250D03*
%TO.P,U1,44,GND*%
X98200000Y-39193250D03*
%TO.P,U1,45,GND*%
X97400000Y-39193250D03*
%TO.P,U1,46,GND*%
X96600000Y-39193250D03*
%TO.P,U1,47,GND*%
X95800000Y-39193250D03*
%TO.P,U1,48,GND*%
X95000000Y-39193250D03*
D12*
%TO.P,U1,49,GND*%
X97825000Y-46068250D03*
X101775000Y-44093250D03*
X97825000Y-44093250D03*
X99800000Y-44093250D03*
X101775000Y-42118250D03*
X99800000Y-46068250D03*
D13*
X97825000Y-42118250D03*
D12*
X99800000Y-42118250D03*
X101775000Y-46068250D03*
D14*
%TO.P,U1,50,GND*%
X105750000Y-39143250D03*
%TO.P,U1,51,GND*%
X105750000Y-49043250D03*
%TO.P,U1,52,GND*%
X93850000Y-49043250D03*
%TO.P,U1,53,GND*%
X93850000Y-39143250D03*
%TD*%
D15*
%TO.P,J1,1,Pin_1*%
%TO.N,GND*%
X96050000Y-51400000D03*
D16*
%TO.P,J1,2,Pin_2*%
%TO.N,DC*%
X98550000Y-51400000D03*
%TO.P,J1,3,Pin_3*%
%TO.N,TX*%
X101050000Y-51400000D03*
%TO.P,J1,4,Pin_4*%
%TO.N,Net-(J1-Pad4)*%
X103550000Y-51400000D03*
%TD*%
D17*
%TO.P,J2,1,GND*%
%TO.N,GND*%
X104880000Y-56300000D03*
D18*
%TO.P,J2,2,0*%
%TO.N,GPIO0*%
X102340000Y-56300000D03*
%TO.P,J2,3,3V3*%
%TO.N,+3V3*%
X99800000Y-56300000D03*
%TO.P,J2,4,Rx*%
%TO.N,I*%
X97260000Y-56300000D03*
%TO.P,J2,5,Tx*%
%TO.N,O*%
X94720000Y-56300000D03*
%TD*%
D19*
%TO.N,GND*%
X95700000Y-40500000D03*
X97400000Y-45100000D03*
%TO.N,RX*%
X104323383Y-47998664D03*
%TO.N,EN*%
X98300000Y-47900000D03*
%TO.N,R*%
X102863789Y-40781895D03*
%TO.N,G*%
X104700383Y-44795939D03*
%TO.N,B*%
X104943568Y-46602392D03*
%TO.N,+3V3*%
X94324500Y-50397515D03*
X94900000Y-41400000D03*
X95550000Y-47150000D03*
X103900000Y-40750498D03*
%TO.N,I*%
X103906755Y-46593245D03*
%TO.N,O*%
X100624026Y-47402553D03*
%TD*%
D20*
%TO.N,GND*%
X93545489Y-49347761D02*
X93545489Y-56786499D01*
X93545489Y-49347761D02*
X93850000Y-49043250D01*
X94258990Y-57500000D02*
X103680000Y-57500000D01*
X94258990Y-57500011D02*
G75*
G02*
X93545489Y-56786499I10J713511D01*
G01*
X93545450Y-49347761D02*
G75*
G02*
X93850000Y-49043250I304550J-39D01*
G01*
X104880000Y-56300000D02*
G75*
G02*
X103680000Y-57500000I-1200000J0D01*
G01*
%TO.N,TX*%
X101050000Y-51340000D02*
X101050000Y-50250000D01*
X100600000Y-49800000D02*
X99006750Y-49800000D01*
X98200000Y-48993250D02*
G75*
G03*
X99006750Y-49800000I806800J50D01*
G01*
X100600000Y-49800000D02*
G75*
G02*
X101050000Y-50250000I0J-450000D01*
G01*
%TO.N,RX*%
X99843250Y-48150000D02*
X104172047Y-48150000D01*
X99000000Y-48993250D02*
G75*
G02*
X99843250Y-48150000I843200J50D01*
G01*
X104172047Y-48150083D02*
G75*
G03*
X104323383Y-47998664I-47J151383D01*
G01*
%TO.N,EN*%
X95550000Y-48150000D02*
X98050000Y-48150000D01*
X94800000Y-46593250D02*
X94800000Y-47400000D01*
X95550000Y-48150000D02*
G75*
G02*
X94800000Y-47400000I0J750000D01*
G01*
X94800050Y-46593250D02*
G75*
G03*
X93900000Y-45693250I-900050J-50D01*
G01*
X98050000Y-48150000D02*
G75*
G03*
X98300000Y-47900000I0J250000D01*
G01*
%TO.N,GPIO0*%
X103543250Y-49900000D02*
X103100000Y-49900000D01*
X103800000Y-48993250D02*
X103800000Y-49643250D01*
X102340000Y-50660000D02*
X102340000Y-56300000D01*
X103543250Y-49900000D02*
G75*
G03*
X103800000Y-49643250I50J256700D01*
G01*
X102340000Y-50660000D02*
G75*
G02*
X103100000Y-49900000I760000J0D01*
G01*
%TO.N,R*%
X102863789Y-40781895D02*
X103550209Y-41468315D01*
X104093250Y-41693250D02*
X105700000Y-41693250D01*
X104093250Y-41693292D02*
G75*
G02*
X103550210Y-41468314I50J767992D01*
G01*
%TO.N,G*%
X104700383Y-44795939D02*
X104700383Y-45343633D01*
X105050000Y-45693250D02*
X105700000Y-45693250D01*
X105050000Y-45693217D02*
G75*
G02*
X104700383Y-45343633I0J349617D01*
G01*
%TO.N,B*%
X105700000Y-46493250D02*
X105052710Y-46493250D01*
X104943550Y-46602392D02*
G75*
G02*
X105052710Y-46493250I109150J-8D01*
G01*
%TO.N,+3V3*%
X94800000Y-41500000D02*
X94800000Y-45150000D01*
X94800000Y-53400000D02*
X99050000Y-53400000D01*
X94900000Y-41400000D02*
X94606750Y-41693250D01*
X96314494Y-41400000D02*
X94900000Y-41400000D01*
X103400000Y-40000000D02*
X99694392Y-40000000D01*
X94606750Y-41693250D02*
X93900000Y-41693250D01*
X95550000Y-46503553D02*
X95550000Y-47150000D01*
X99800000Y-54150000D02*
X99800000Y-56300000D01*
X94324500Y-50397515D02*
X94324500Y-52924500D01*
X103900000Y-40750498D02*
X103900000Y-40500000D01*
X94976777Y-45576776D02*
X95300000Y-45900000D01*
X94976767Y-45576786D02*
G75*
G02*
X94800000Y-45150000I426833J426786D01*
G01*
X96314494Y-41399989D02*
G75*
G03*
X97655437Y-40844563I6J1896389D01*
G01*
X95550019Y-46503553D02*
G75*
G03*
X95300000Y-45900000I-853619J-47D01*
G01*
X97655445Y-40844571D02*
G75*
G02*
X99694392Y-40000000I2038955J-2038929D01*
G01*
X99800000Y-54150000D02*
G75*
G03*
X99050000Y-53400000I-750000J0D01*
G01*
X94800000Y-41500000D02*
G75*
G02*
X94900000Y-41400000I100000J0D01*
G01*
X103400000Y-40000000D02*
G75*
G02*
X103900000Y-40500000I0J-500000D01*
G01*
X94800000Y-53400000D02*
G75*
G02*
X94324500Y-52924500I0J475500D01*
G01*
%TO.N,I*%
X103906755Y-46593245D02*
X103817852Y-46504342D01*
X103817852Y-46504342D02*
X103817852Y-44617852D01*
X104435704Y-44000000D02*
X105606750Y-44000000D01*
X105700000Y-44093250D02*
G75*
G03*
X105606750Y-44000000I-93200J50D01*
G01*
X104435704Y-44000052D02*
G75*
G03*
X103817852Y-44617852I-4J-617848D01*
G01*
%TO.N,O*%
X104443250Y-43293250D02*
X105700000Y-43293250D01*
X102050000Y-47400000D02*
X102300000Y-47400000D01*
X100630189Y-47400000D02*
X102050000Y-47400000D01*
X103050000Y-46650000D02*
X103050000Y-44686500D01*
X100630189Y-47399988D02*
G75*
G03*
X100624026Y-47402553I11J-8712D01*
G01*
X103050000Y-46650000D02*
G75*
G02*
X102300000Y-47400000I-750000J0D01*
G01*
X104443250Y-43293300D02*
G75*
G03*
X103050000Y-44686500I-50J-1393200D01*
G01*
%TD*%
%TA.AperFunction,Conductor*%
%TO.N,GND*%
G36*
X100446287Y-50195185D02*
G01*
X100492042Y-50247989D01*
X100501986Y-50317147D01*
X100472961Y-50380703D01*
X100450997Y-50400633D01*
X100327640Y-50488137D01*
X100323556Y-50492404D01*
X100323554Y-50492405D01*
X100186509Y-50635564D01*
X100186505Y-50635568D01*
X100182425Y-50639831D01*
X100068515Y-50816246D01*
X100066308Y-50821721D01*
X100066307Y-50821724D01*
X99992227Y-51005539D01*
X99992226Y-51005544D01*
X99990019Y-51011019D01*
X99949770Y-51217122D01*
X99949500Y-51222643D01*
X99949500Y-51527469D01*
X99964439Y-51684046D01*
X100023553Y-51885549D01*
X100026256Y-51890797D01*
X100117004Y-52066996D01*
X100117007Y-52067001D01*
X100119705Y-52072239D01*
X100249424Y-52237379D01*
X100253878Y-52241244D01*
X100253879Y-52241245D01*
X100339197Y-52315280D01*
X100408029Y-52375010D01*
X100413134Y-52377963D01*
X100413135Y-52377964D01*
X100513113Y-52435802D01*
X100589799Y-52480166D01*
X100788174Y-52549053D01*
X100995996Y-52579186D01*
X101205767Y-52569477D01*
X101211506Y-52568094D01*
X101404185Y-52521658D01*
X101404188Y-52521657D01*
X101409918Y-52520276D01*
X101415286Y-52517836D01*
X101415290Y-52517834D01*
X101595710Y-52435802D01*
X101601081Y-52433360D01*
X101768759Y-52314417D01*
X101834826Y-52291687D01*
X101902696Y-52308283D01*
X101950819Y-52358938D01*
X101964500Y-52415557D01*
X101964500Y-55179021D01*
X101944815Y-55246060D01*
X101892011Y-55291815D01*
X101883432Y-55295351D01*
X101864193Y-55302449D01*
X101859310Y-55305354D01*
X101859306Y-55305356D01*
X101695262Y-55402952D01*
X101690371Y-55405862D01*
X101538305Y-55539220D01*
X101413089Y-55698057D01*
X101410442Y-55703088D01*
X101366496Y-55786616D01*
X101318914Y-55877053D01*
X101317229Y-55882479D01*
X101317228Y-55882482D01*
X101310570Y-55903926D01*
X101258937Y-56070213D01*
X101235164Y-56271069D01*
X101235535Y-56276731D01*
X101235535Y-56276735D01*
X101240851Y-56357842D01*
X101248392Y-56472894D01*
X101298178Y-56668928D01*
X101300554Y-56674082D01*
X101350896Y-56783280D01*
X101382856Y-56852607D01*
X101499588Y-57017780D01*
X101644466Y-57158913D01*
X101812637Y-57271282D01*
X101998470Y-57351122D01*
X102094502Y-57372852D01*
X102190193Y-57394505D01*
X102190195Y-57394505D01*
X102195740Y-57395760D01*
X102313135Y-57400372D01*
X102392161Y-57403477D01*
X102392163Y-57403477D01*
X102397842Y-57403700D01*
X102403462Y-57402885D01*
X102403465Y-57402885D01*
X102592387Y-57375493D01*
X102592389Y-57375493D01*
X102598007Y-57374678D01*
X102603384Y-57372853D01*
X102603387Y-57372852D01*
X102688090Y-57344099D01*
X102789531Y-57309664D01*
X102966001Y-57210837D01*
X103028433Y-57158913D01*
X103117138Y-57085137D01*
X103121505Y-57081505D01*
X103250837Y-56926001D01*
X103323464Y-56796316D01*
X103330764Y-56783280D01*
X103380696Y-56734407D01*
X103449124Y-56720287D01*
X103514323Y-56745403D01*
X103553473Y-56796316D01*
X103592473Y-56890237D01*
X103600740Y-56904443D01*
X103645092Y-56961518D01*
X103650196Y-56967302D01*
X104212671Y-57529777D01*
X104215729Y-57532472D01*
X104253009Y-57591565D01*
X104252423Y-57661432D01*
X104214157Y-57719891D01*
X104150360Y-57748382D01*
X104133743Y-57749500D01*
X93636885Y-57749500D01*
X93612694Y-57747117D01*
X93611980Y-57746975D01*
X93600000Y-57744592D01*
X93591826Y-57746218D01*
X93575339Y-57744595D01*
X93566985Y-57742933D01*
X93522280Y-57724416D01*
X93514793Y-57719413D01*
X93480587Y-57685207D01*
X93475584Y-57677720D01*
X93457067Y-57633015D01*
X93455405Y-57624661D01*
X93453782Y-57608174D01*
X93455408Y-57600000D01*
X93452883Y-57587306D01*
X93450500Y-57563115D01*
X93450500Y-56740217D01*
X93470185Y-56673178D01*
X93522989Y-56627423D01*
X93592147Y-56617479D01*
X93655703Y-56646504D01*
X93687110Y-56688303D01*
X93730896Y-56783280D01*
X93762856Y-56852607D01*
X93879588Y-57017780D01*
X94024466Y-57158913D01*
X94192637Y-57271282D01*
X94378470Y-57351122D01*
X94474502Y-57372852D01*
X94570193Y-57394505D01*
X94570195Y-57394505D01*
X94575740Y-57395760D01*
X94693135Y-57400372D01*
X94772161Y-57403477D01*
X94772163Y-57403477D01*
X94777842Y-57403700D01*
X94783462Y-57402885D01*
X94783465Y-57402885D01*
X94972387Y-57375493D01*
X94972389Y-57375493D01*
X94978007Y-57374678D01*
X94983384Y-57372853D01*
X94983387Y-57372852D01*
X95068090Y-57344099D01*
X95169531Y-57309664D01*
X95346001Y-57210837D01*
X95408433Y-57158913D01*
X95497138Y-57085137D01*
X95501505Y-57081505D01*
X95630837Y-56926001D01*
X95729664Y-56749531D01*
X95794678Y-56558007D01*
X95823700Y-56357842D01*
X95825215Y-56300000D01*
X95822557Y-56271069D01*
X96155164Y-56271069D01*
X96155535Y-56276731D01*
X96155535Y-56276735D01*
X96160851Y-56357842D01*
X96168392Y-56472894D01*
X96218178Y-56668928D01*
X96220554Y-56674082D01*
X96270896Y-56783280D01*
X96302856Y-56852607D01*
X96419588Y-57017780D01*
X96564466Y-57158913D01*
X96732637Y-57271282D01*
X96918470Y-57351122D01*
X97014502Y-57372852D01*
X97110193Y-57394505D01*
X97110195Y-57394505D01*
X97115740Y-57395760D01*
X97233135Y-57400372D01*
X97312161Y-57403477D01*
X97312163Y-57403477D01*
X97317842Y-57403700D01*
X97323462Y-57402885D01*
X97323465Y-57402885D01*
X97512387Y-57375493D01*
X97512389Y-57375493D01*
X97518007Y-57374678D01*
X97523384Y-57372853D01*
X97523387Y-57372852D01*
X97608090Y-57344099D01*
X97709531Y-57309664D01*
X97886001Y-57210837D01*
X97948433Y-57158913D01*
X98037138Y-57085137D01*
X98041505Y-57081505D01*
X98170837Y-56926001D01*
X98269664Y-56749531D01*
X98334678Y-56558007D01*
X98363700Y-56357842D01*
X98365215Y-56300000D01*
X98346708Y-56098591D01*
X98306080Y-55954534D01*
X98293352Y-55909403D01*
X98293351Y-55909400D01*
X98291807Y-55903926D01*
X98202351Y-55722527D01*
X98081335Y-55560467D01*
X97932812Y-55423174D01*
X97911319Y-55409613D01*
X97766566Y-55318280D01*
X97766564Y-55318279D01*
X97761757Y-55315246D01*
X97573898Y-55240298D01*
X97568317Y-55239188D01*
X97568314Y-55239187D01*
X97500373Y-55225673D01*
X97375526Y-55200839D01*
X97369839Y-55200765D01*
X97369834Y-55200764D01*
X97178975Y-55198266D01*
X97178970Y-55198266D01*
X97173286Y-55198192D01*
X97167682Y-55199155D01*
X97167681Y-55199155D01*
X96979546Y-55231482D01*
X96979543Y-55231483D01*
X96973949Y-55232444D01*
X96952660Y-55240298D01*
X96789521Y-55300483D01*
X96789519Y-55300484D01*
X96784193Y-55302449D01*
X96779310Y-55305354D01*
X96779308Y-55305355D01*
X96615262Y-55402952D01*
X96610371Y-55405862D01*
X96458305Y-55539220D01*
X96333089Y-55698057D01*
X96330442Y-55703088D01*
X96286496Y-55786616D01*
X96238914Y-55877053D01*
X96237229Y-55882479D01*
X96237228Y-55882482D01*
X96230570Y-55903926D01*
X96178937Y-56070213D01*
X96155164Y-56271069D01*
X95822557Y-56271069D01*
X95806708Y-56098591D01*
X95766080Y-55954534D01*
X95753352Y-55909403D01*
X95753351Y-55909400D01*
X95751807Y-55903926D01*
X95662351Y-55722527D01*
X95541335Y-55560467D01*
X95392812Y-55423174D01*
X95371319Y-55409613D01*
X95226566Y-55318280D01*
X95226564Y-55318279D01*
X95221757Y-55315246D01*
X95033898Y-55240298D01*
X95028317Y-55239188D01*
X95028314Y-55239187D01*
X94960373Y-55225673D01*
X94835526Y-55200839D01*
X94829839Y-55200765D01*
X94829834Y-55200764D01*
X94638975Y-55198266D01*
X94638970Y-55198266D01*
X94633286Y-55198192D01*
X94627682Y-55199155D01*
X94627681Y-55199155D01*
X94439546Y-55231482D01*
X94439543Y-55231483D01*
X94433949Y-55232444D01*
X94412660Y-55240298D01*
X94249521Y-55300483D01*
X94249519Y-55300484D01*
X94244193Y-55302449D01*
X94239310Y-55305354D01*
X94239308Y-55305355D01*
X94075262Y-55402952D01*
X94070371Y-55405862D01*
X93918305Y-55539220D01*
X93793089Y-55698057D01*
X93790442Y-55703088D01*
X93746496Y-55786616D01*
X93698914Y-55877053D01*
X93697229Y-55882481D01*
X93697224Y-55882492D01*
X93692922Y-55896347D01*
X93654243Y-55954534D01*
X93590246Y-55982572D01*
X93521250Y-55971560D01*
X93469160Y-55924993D01*
X93450500Y-55859576D01*
X93450500Y-50601821D01*
X93470185Y-50534782D01*
X93522989Y-50489027D01*
X93592147Y-50479083D01*
X93655703Y-50508108D01*
X93690948Y-50559207D01*
X93740643Y-50695005D01*
X93828458Y-50825687D01*
X93908455Y-50898478D01*
X93944790Y-50958155D01*
X93949000Y-50990191D01*
X93949000Y-52885188D01*
X93947473Y-52904585D01*
X93944319Y-52924500D01*
X93945808Y-52933901D01*
X93945846Y-52934287D01*
X93945846Y-52935042D01*
X93946165Y-52937529D01*
X93952792Y-53004815D01*
X93961313Y-53091325D01*
X93963082Y-53097156D01*
X93985654Y-53171565D01*
X94009974Y-53251739D01*
X94088995Y-53399578D01*
X94195340Y-53529160D01*
X94324922Y-53635505D01*
X94472761Y-53714526D01*
X94478584Y-53716293D01*
X94478588Y-53716294D01*
X94618317Y-53758680D01*
X94633175Y-53763187D01*
X94639228Y-53763783D01*
X94639232Y-53763784D01*
X94720225Y-53771761D01*
X94729300Y-53773180D01*
X94734548Y-53775023D01*
X94740055Y-53775500D01*
X94752097Y-53775500D01*
X94764250Y-53776097D01*
X94773351Y-53776993D01*
X94786972Y-53778335D01*
X94789458Y-53778654D01*
X94790213Y-53778654D01*
X94790599Y-53778692D01*
X94800000Y-53780181D01*
X94809641Y-53778654D01*
X94809642Y-53778654D01*
X94819915Y-53777027D01*
X94839312Y-53775500D01*
X99010688Y-53775500D01*
X99030085Y-53777027D01*
X99038345Y-53778335D01*
X99050000Y-53780181D01*
X99059637Y-53778655D01*
X99065840Y-53778655D01*
X99082020Y-53779716D01*
X99107550Y-53783077D01*
X99130745Y-53786130D01*
X99162008Y-53794507D01*
X99222170Y-53819427D01*
X99250198Y-53835608D01*
X99290230Y-53866327D01*
X99301862Y-53875253D01*
X99324747Y-53898138D01*
X99364392Y-53949802D01*
X99380573Y-53977830D01*
X99405492Y-54037989D01*
X99413870Y-54069257D01*
X99420284Y-54117980D01*
X99421345Y-54134160D01*
X99421345Y-54140363D01*
X99419819Y-54150000D01*
X99421346Y-54159639D01*
X99421346Y-54159641D01*
X99422973Y-54169915D01*
X99424500Y-54189312D01*
X99424500Y-55179021D01*
X99404815Y-55246060D01*
X99352011Y-55291815D01*
X99343432Y-55295351D01*
X99324193Y-55302449D01*
X99319310Y-55305354D01*
X99319306Y-55305356D01*
X99155262Y-55402952D01*
X99150371Y-55405862D01*
X98998305Y-55539220D01*
X98873089Y-55698057D01*
X98870442Y-55703088D01*
X98826496Y-55786616D01*
X98778914Y-55877053D01*
X98777229Y-55882479D01*
X98777228Y-55882482D01*
X98770570Y-55903926D01*
X98718937Y-56070213D01*
X98695164Y-56271069D01*
X98695535Y-56276731D01*
X98695535Y-56276735D01*
X98700851Y-56357842D01*
X98708392Y-56472894D01*
X98758178Y-56668928D01*
X98760554Y-56674082D01*
X98810896Y-56783280D01*
X98842856Y-56852607D01*
X98959588Y-57017780D01*
X99104466Y-57158913D01*
X99272637Y-57271282D01*
X99458470Y-57351122D01*
X99554502Y-57372852D01*
X99650193Y-57394505D01*
X99650195Y-57394505D01*
X99655740Y-57395760D01*
X99773135Y-57400372D01*
X99852161Y-57403477D01*
X99852163Y-57403477D01*
X99857842Y-57403700D01*
X99863462Y-57402885D01*
X99863465Y-57402885D01*
X100052387Y-57375493D01*
X100052389Y-57375493D01*
X100058007Y-57374678D01*
X100063384Y-57372853D01*
X100063387Y-57372852D01*
X100148090Y-57344099D01*
X100249531Y-57309664D01*
X100426001Y-57210837D01*
X100488433Y-57158913D01*
X100577138Y-57085137D01*
X100581505Y-57081505D01*
X100710837Y-56926001D01*
X100809664Y-56749531D01*
X100874678Y-56558007D01*
X100903700Y-56357842D01*
X100905215Y-56300000D01*
X100886708Y-56098591D01*
X100846080Y-55954534D01*
X100833352Y-55909403D01*
X100833351Y-55909400D01*
X100831807Y-55903926D01*
X100742351Y-55722527D01*
X100621335Y-55560467D01*
X100472812Y-55423174D01*
X100435023Y-55399331D01*
X100306569Y-55318282D01*
X100306568Y-55318281D01*
X100301757Y-55315246D01*
X100253551Y-55296014D01*
X100198579Y-55252889D01*
X100175500Y-55180841D01*
X100175500Y-54189312D01*
X100177027Y-54169915D01*
X100178655Y-54159639D01*
X100178655Y-54159635D01*
X100180181Y-54150000D01*
X100179328Y-54144612D01*
X100162635Y-53953812D01*
X100147717Y-53898138D01*
X100113065Y-53768813D01*
X100113063Y-53768809D01*
X100111664Y-53763586D01*
X100028435Y-53585101D01*
X99915476Y-53423779D01*
X99776221Y-53284524D01*
X99614900Y-53171565D01*
X99609991Y-53169276D01*
X99609986Y-53169273D01*
X99441317Y-53090622D01*
X99441314Y-53090621D01*
X99436414Y-53088336D01*
X99424938Y-53085261D01*
X99251411Y-53038764D01*
X99251406Y-53038763D01*
X99246188Y-53037365D01*
X99174308Y-53031076D01*
X99122774Y-53026567D01*
X99117880Y-53025829D01*
X99115452Y-53024977D01*
X99109945Y-53024500D01*
X99104554Y-53024500D01*
X99093747Y-53024028D01*
X99063069Y-53021344D01*
X99055388Y-53020672D01*
X99050000Y-53019819D01*
X99040365Y-53021345D01*
X99040361Y-53021345D01*
X99030085Y-53022973D01*
X99010688Y-53024500D01*
X96937402Y-53024500D01*
X96870363Y-53004815D01*
X96824608Y-52952011D01*
X96814664Y-52882853D01*
X96843689Y-52819297D01*
X96898158Y-52782874D01*
X96963481Y-52761080D01*
X96976443Y-52755009D01*
X97112907Y-52670562D01*
X97124120Y-52661675D01*
X97237501Y-52548096D01*
X97246370Y-52536865D01*
X97330575Y-52400259D01*
X97336627Y-52387282D01*
X97387285Y-52234554D01*
X97390108Y-52221387D01*
X97398836Y-52136195D01*
X97425251Y-52071511D01*
X97482443Y-52031377D01*
X97552255Y-52028534D01*
X97612521Y-52063886D01*
X97619368Y-52072504D01*
X97619705Y-52072239D01*
X97749424Y-52237379D01*
X97753878Y-52241244D01*
X97753879Y-52241245D01*
X97839197Y-52315280D01*
X97908029Y-52375010D01*
X97913134Y-52377963D01*
X97913135Y-52377964D01*
X98013113Y-52435802D01*
X98089799Y-52480166D01*
X98288174Y-52549053D01*
X98495996Y-52579186D01*
X98705767Y-52569477D01*
X98711506Y-52568094D01*
X98904185Y-52521658D01*
X98904188Y-52521657D01*
X98909918Y-52520276D01*
X98915286Y-52517836D01*
X98915290Y-52517834D01*
X99095710Y-52435802D01*
X99101081Y-52433360D01*
X99272360Y-52311863D01*
X99276446Y-52307595D01*
X99413491Y-52164436D01*
X99413495Y-52164432D01*
X99417575Y-52160169D01*
X99531485Y-51983754D01*
X99571063Y-51885549D01*
X99607773Y-51794461D01*
X99607774Y-51794456D01*
X99609981Y-51788981D01*
X99650230Y-51582878D01*
X99650500Y-51577357D01*
X99650500Y-51272531D01*
X99635561Y-51115954D01*
X99576447Y-50914451D01*
X99562651Y-50887664D01*
X99482996Y-50733004D01*
X99482993Y-50732999D01*
X99480295Y-50727761D01*
X99372936Y-50591087D01*
X99354220Y-50567260D01*
X99350576Y-50562621D01*
X99264741Y-50488137D01*
X99196424Y-50428854D01*
X99196423Y-50428853D01*
X99191971Y-50424990D01*
X99160585Y-50406833D01*
X99112413Y-50356225D01*
X99099250Y-50287606D01*
X99125274Y-50222764D01*
X99182223Y-50182285D01*
X99222678Y-50175500D01*
X100379248Y-50175500D01*
X100446287Y-50195185D01*
G37*
%TD.AperFunction*%
%TA.AperFunction,Conductor*%
G36*
X105202227Y-48529382D02*
G01*
X105202260Y-48529216D01*
X105269347Y-48542561D01*
X105269350Y-48542561D01*
X105275326Y-48543750D01*
X106025500Y-48543750D01*
X106092539Y-48563435D01*
X106138294Y-48616239D01*
X106149500Y-48667750D01*
X106149500Y-54895950D01*
X106129815Y-54962989D01*
X106077011Y-55008744D01*
X106007853Y-55018688D01*
X105965952Y-55004716D01*
X105964306Y-55003815D01*
X105845753Y-54959371D01*
X105830744Y-54955803D01*
X105780669Y-54950363D01*
X105773972Y-54950000D01*
X105147830Y-54950000D01*
X105132831Y-54954404D01*
X105131644Y-54955774D01*
X105130000Y-54963332D01*
X105130000Y-56426000D01*
X105110315Y-56493039D01*
X105057511Y-56538794D01*
X105006000Y-56550000D01*
X104754000Y-56550000D01*
X104686961Y-56530315D01*
X104641206Y-56477511D01*
X104630000Y-56426000D01*
X104630000Y-54967830D01*
X104625596Y-54952831D01*
X104624226Y-54951644D01*
X104616668Y-54950000D01*
X103986028Y-54950000D01*
X103979331Y-54950363D01*
X103929256Y-54955803D01*
X103914247Y-54959371D01*
X103795689Y-55003817D01*
X103780354Y-55012212D01*
X103679876Y-55087516D01*
X103667516Y-55099876D01*
X103592212Y-55200354D01*
X103583817Y-55215689D01*
X103539371Y-55334247D01*
X103535803Y-55349256D01*
X103530363Y-55399331D01*
X103530000Y-55406028D01*
X103530000Y-55692903D01*
X103510315Y-55759942D01*
X103457511Y-55805697D01*
X103388353Y-55815641D01*
X103324797Y-55786616D01*
X103294788Y-55747746D01*
X103284869Y-55727631D01*
X103284864Y-55727623D01*
X103282351Y-55722527D01*
X103161335Y-55560467D01*
X103012812Y-55423174D01*
X102975023Y-55399331D01*
X102846569Y-55318282D01*
X102846568Y-55318281D01*
X102841757Y-55315246D01*
X102793551Y-55296014D01*
X102738579Y-55252889D01*
X102715500Y-55180841D01*
X102715500Y-52477753D01*
X102735185Y-52410714D01*
X102787989Y-52364959D01*
X102857147Y-52355015D01*
X102907843Y-52375332D01*
X102908029Y-52375010D01*
X103089799Y-52480166D01*
X103288174Y-52549053D01*
X103495996Y-52579186D01*
X103705767Y-52569477D01*
X103711506Y-52568094D01*
X103904185Y-52521658D01*
X103904188Y-52521657D01*
X103909918Y-52520276D01*
X103915286Y-52517836D01*
X103915290Y-52517834D01*
X104095710Y-52435802D01*
X104101081Y-52433360D01*
X104272360Y-52311863D01*
X104276446Y-52307595D01*
X104413491Y-52164436D01*
X104413495Y-52164432D01*
X104417575Y-52160169D01*
X104531485Y-51983754D01*
X104571063Y-51885549D01*
X104607773Y-51794461D01*
X104607774Y-51794456D01*
X104609981Y-51788981D01*
X104650230Y-51582878D01*
X104650500Y-51577357D01*
X104650500Y-51272531D01*
X104635561Y-51115954D01*
X104576447Y-50914451D01*
X104562651Y-50887664D01*
X104482996Y-50733004D01*
X104482993Y-50732999D01*
X104480295Y-50727761D01*
X104372936Y-50591087D01*
X104354220Y-50567260D01*
X104350576Y-50562621D01*
X104264741Y-50488137D01*
X104196424Y-50428854D01*
X104196423Y-50428853D01*
X104191971Y-50424990D01*
X104186865Y-50422036D01*
X104015313Y-50322791D01*
X104015310Y-50322790D01*
X104010201Y-50319834D01*
X104004626Y-50317898D01*
X104000937Y-50316209D01*
X103948178Y-50270402D01*
X103928559Y-50203344D01*
X103948309Y-50136324D01*
X103964878Y-50115784D01*
X104040712Y-50039950D01*
X104116519Y-49919289D01*
X104163569Y-49784782D01*
X104164980Y-49772245D01*
X104165514Y-49767492D01*
X104168639Y-49739714D01*
X104195695Y-49675296D01*
X104253283Y-49635731D01*
X104316053Y-49631960D01*
X104358429Y-49640389D01*
X104375326Y-49643750D01*
X104824674Y-49643750D01*
X104830650Y-49642561D01*
X104830653Y-49642561D01*
X104864987Y-49635731D01*
X104897740Y-49629216D01*
X104980601Y-49573851D01*
X105035966Y-49490990D01*
X105050500Y-49417924D01*
X105050500Y-48649355D01*
X105070185Y-48582316D01*
X105122989Y-48536561D01*
X105192147Y-48526617D01*
X105202227Y-48529382D01*
G37*
%TD.AperFunction*%
%TA.AperFunction,Conductor*%
G36*
X96892539Y-48545185D02*
G01*
X96938294Y-48597989D01*
X96949500Y-48649500D01*
X96949500Y-49417924D01*
X96964034Y-49490990D01*
X97019399Y-49573851D01*
X97102260Y-49629216D01*
X97135013Y-49635731D01*
X97169347Y-49642561D01*
X97169350Y-49642561D01*
X97175326Y-49643750D01*
X97624674Y-49643750D01*
X97630650Y-49642561D01*
X97630653Y-49642561D01*
X97664987Y-49635731D01*
X97697740Y-49629216D01*
X97707898Y-49622429D01*
X97707900Y-49622428D01*
X97731110Y-49606920D01*
X97797787Y-49586042D01*
X97868890Y-49606920D01*
X97892100Y-49622428D01*
X97892102Y-49622429D01*
X97902260Y-49629216D01*
X97935013Y-49635731D01*
X97972937Y-49643275D01*
X98034848Y-49675660D01*
X98046805Y-49689409D01*
X98047350Y-49690299D01*
X98050515Y-49694005D01*
X98050516Y-49694006D01*
X98128046Y-49784782D01*
X98168202Y-49831798D01*
X98171903Y-49834959D01*
X98286186Y-49932566D01*
X98309701Y-49952650D01*
X98313849Y-49955192D01*
X98404080Y-50010488D01*
X98450954Y-50062301D01*
X98462375Y-50131231D01*
X98434717Y-50195393D01*
X98376761Y-50234416D01*
X98368341Y-50236763D01*
X98195815Y-50278342D01*
X98195812Y-50278343D01*
X98190082Y-50279724D01*
X98184714Y-50282164D01*
X98184710Y-50282166D01*
X98021826Y-50356225D01*
X97998919Y-50366640D01*
X97827640Y-50488137D01*
X97823556Y-50492404D01*
X97823554Y-50492405D01*
X97686509Y-50635564D01*
X97686505Y-50635568D01*
X97682425Y-50639831D01*
X97628645Y-50723122D01*
X97627084Y-50725539D01*
X97574182Y-50771180D01*
X97505002Y-50780976D01*
X97441509Y-50751815D01*
X97403860Y-50692956D01*
X97399574Y-50671072D01*
X97389849Y-50577328D01*
X97387003Y-50564151D01*
X97336080Y-50411519D01*
X97330009Y-50398557D01*
X97245562Y-50262093D01*
X97236675Y-50250880D01*
X97123096Y-50137499D01*
X97111865Y-50128630D01*
X96975259Y-50044425D01*
X96962282Y-50038373D01*
X96809554Y-49987715D01*
X96796387Y-49984892D01*
X96702981Y-49975322D01*
X96696675Y-49975000D01*
X96317830Y-49975000D01*
X96302831Y-49979404D01*
X96301644Y-49980774D01*
X96300000Y-49988332D01*
X96300000Y-51526000D01*
X96280315Y-51593039D01*
X96227511Y-51638794D01*
X96176000Y-51650000D01*
X95924000Y-51650000D01*
X95856961Y-51630315D01*
X95811206Y-51577511D01*
X95800000Y-51526000D01*
X95800000Y-49992831D01*
X95795596Y-49977832D01*
X95794226Y-49976645D01*
X95786668Y-49975001D01*
X95403364Y-49975001D01*
X95396985Y-49975331D01*
X95302329Y-49985151D01*
X95289151Y-49987997D01*
X95136519Y-50038920D01*
X95123557Y-50044991D01*
X95047266Y-50092201D01*
X94979900Y-50110739D01*
X94913206Y-50089913D01*
X94879825Y-50056992D01*
X94820268Y-49970336D01*
X94820265Y-49970333D01*
X94816031Y-49964172D01*
X94699485Y-49860333D01*
X94662526Y-49801039D01*
X94663490Y-49731176D01*
X94702073Y-49672925D01*
X94766023Y-49644780D01*
X94781974Y-49643750D01*
X95224674Y-49643750D01*
X95230650Y-49642561D01*
X95230653Y-49642561D01*
X95264987Y-49635731D01*
X95297740Y-49629216D01*
X95307898Y-49622429D01*
X95307900Y-49622428D01*
X95331110Y-49606920D01*
X95397787Y-49586042D01*
X95468890Y-49606920D01*
X95492100Y-49622428D01*
X95492102Y-49622429D01*
X95502260Y-49629216D01*
X95535013Y-49635731D01*
X95569347Y-49642561D01*
X95569350Y-49642561D01*
X95575326Y-49643750D01*
X96024674Y-49643750D01*
X96030650Y-49642561D01*
X96030653Y-49642561D01*
X96064987Y-49635731D01*
X96097740Y-49629216D01*
X96180601Y-49573851D01*
X96235966Y-49490990D01*
X96250500Y-49417924D01*
X96250500Y-48649500D01*
X96270185Y-48582461D01*
X96322989Y-48536706D01*
X96374500Y-48525500D01*
X96825500Y-48525500D01*
X96892539Y-48545185D01*
G37*
%TD.AperFunction*%
%TA.AperFunction,Conductor*%
G36*
X94430385Y-47742794D02*
G01*
X94485562Y-47785657D01*
X94497366Y-47805779D01*
X94569273Y-47959986D01*
X94569276Y-47959991D01*
X94571565Y-47964900D01*
X94684524Y-48126221D01*
X94723704Y-48165401D01*
X94757189Y-48226724D01*
X94752205Y-48296416D01*
X94710333Y-48352349D01*
X94702097Y-48357040D01*
X94702260Y-48357284D01*
X94651815Y-48390990D01*
X94619399Y-48412649D01*
X94564034Y-48495510D01*
X94561651Y-48507491D01*
X94555421Y-48538812D01*
X94549500Y-48568576D01*
X94549500Y-49417924D01*
X94564034Y-49490990D01*
X94570820Y-49501146D01*
X94619399Y-49573851D01*
X94617553Y-49575084D01*
X94643282Y-49622203D01*
X94638298Y-49691895D01*
X94596426Y-49747828D01*
X94530962Y-49772245D01*
X94491910Y-49768825D01*
X94406628Y-49747404D01*
X94324829Y-49746976D01*
X94256658Y-49746619D01*
X94256657Y-49746619D01*
X94249184Y-49746580D01*
X94241921Y-49748324D01*
X94241918Y-49748324D01*
X94172636Y-49764958D01*
X94096088Y-49783335D01*
X93956179Y-49855547D01*
X93837534Y-49959048D01*
X93747001Y-50087863D01*
X93744285Y-50094828D01*
X93744285Y-50094829D01*
X93690030Y-50233987D01*
X93647338Y-50289297D01*
X93581520Y-50312745D01*
X93513474Y-50296888D01*
X93464803Y-50246759D01*
X93450500Y-50188944D01*
X93450500Y-47867750D01*
X93470185Y-47800711D01*
X93522989Y-47754956D01*
X93574500Y-47743750D01*
X94324674Y-47743750D01*
X94360795Y-47736565D01*
X94430385Y-47742794D01*
G37*
%TD.AperFunction*%
%TA.AperFunction,Conductor*%
G36*
X102209611Y-40395185D02*
G01*
X102255366Y-40447989D01*
X102265310Y-40517147D01*
X102258103Y-40544540D01*
X102229098Y-40618934D01*
X102208547Y-40775033D01*
X102209367Y-40782461D01*
X102209367Y-40782463D01*
X102210116Y-40789247D01*
X102225824Y-40931528D01*
X102228390Y-40938540D01*
X102228391Y-40938544D01*
X102252643Y-41004815D01*
X102279932Y-41079385D01*
X102367747Y-41210067D01*
X102382032Y-41223065D01*
X102478667Y-41310997D01*
X102478671Y-41311000D01*
X102484199Y-41316030D01*
X102622565Y-41391157D01*
X102724820Y-41417983D01*
X102767630Y-41429214D01*
X102767632Y-41429214D01*
X102774858Y-41431110D01*
X102932284Y-41433583D01*
X102932242Y-41436252D01*
X102988590Y-41446566D01*
X103020485Y-41469628D01*
X103256879Y-41706022D01*
X103269517Y-41720819D01*
X103281362Y-41737125D01*
X103289260Y-41742864D01*
X103289280Y-41742884D01*
X103296833Y-41748838D01*
X103338215Y-41784187D01*
X103413383Y-41848395D01*
X103419030Y-41853219D01*
X103490585Y-41897074D01*
X103568339Y-41944730D01*
X103568346Y-41944734D01*
X103572491Y-41947274D01*
X103576984Y-41949135D01*
X103576987Y-41949137D01*
X103697366Y-41999009D01*
X103738776Y-42016165D01*
X103743512Y-42017302D01*
X103743511Y-42017302D01*
X103909054Y-42057057D01*
X103909058Y-42057058D01*
X103913790Y-42058194D01*
X103918642Y-42058576D01*
X103918647Y-42058577D01*
X103969402Y-42062575D01*
X104018826Y-42066468D01*
X104025398Y-42067430D01*
X104027798Y-42068273D01*
X104033305Y-42068750D01*
X104042921Y-42068750D01*
X104052657Y-42069133D01*
X104063590Y-42069994D01*
X104074526Y-42070856D01*
X104083386Y-42071904D01*
X104083586Y-42071904D01*
X104093225Y-42073431D01*
X104113161Y-42070275D01*
X104132549Y-42068750D01*
X104938154Y-42068750D01*
X105005193Y-42088435D01*
X105050948Y-42141239D01*
X105059771Y-42216941D01*
X105049500Y-42268576D01*
X105049500Y-42717924D01*
X105050689Y-42723900D01*
X105050689Y-42723903D01*
X105059771Y-42769558D01*
X105053544Y-42839150D01*
X105010681Y-42894327D01*
X104938154Y-42917750D01*
X104482576Y-42917750D01*
X104463175Y-42916223D01*
X104452900Y-42914595D01*
X104452897Y-42914595D01*
X104443264Y-42913069D01*
X104440812Y-42913457D01*
X104430628Y-42914185D01*
X104402121Y-42916223D01*
X104190902Y-42931323D01*
X103943677Y-42985095D01*
X103706621Y-43073505D01*
X103702738Y-43075625D01*
X103702734Y-43075627D01*
X103522059Y-43174277D01*
X103484560Y-43194752D01*
X103481014Y-43197407D01*
X103481010Y-43197409D01*
X103339303Y-43303486D01*
X103282015Y-43346369D01*
X103103110Y-43525267D01*
X102951487Y-43727807D01*
X102830231Y-43949863D01*
X102741813Y-44186916D01*
X102688032Y-44434139D01*
X102670116Y-44684623D01*
X102669819Y-44686500D01*
X102671345Y-44696135D01*
X102671345Y-44696138D01*
X102672973Y-44706415D01*
X102674500Y-44725812D01*
X102674500Y-46610688D01*
X102672973Y-46630085D01*
X102669819Y-46650000D01*
X102671345Y-46659637D01*
X102671345Y-46665840D01*
X102670284Y-46682020D01*
X102663870Y-46730743D01*
X102655493Y-46762008D01*
X102630573Y-46822170D01*
X102614392Y-46850198D01*
X102599622Y-46869446D01*
X102574747Y-46901862D01*
X102551862Y-46924747D01*
X102500198Y-46964392D01*
X102472170Y-46980573D01*
X102412008Y-47005493D01*
X102380745Y-47013870D01*
X102357550Y-47016923D01*
X102332020Y-47020284D01*
X102315840Y-47021345D01*
X102309637Y-47021345D01*
X102300000Y-47019819D01*
X102290359Y-47021346D01*
X102280085Y-47022973D01*
X102260688Y-47024500D01*
X101218796Y-47024500D01*
X101151757Y-47004815D01*
X101126009Y-46979852D01*
X101124733Y-46980977D01*
X101119794Y-46975375D01*
X101115557Y-46969210D01*
X101054501Y-46914811D01*
X101003585Y-46869446D01*
X101003584Y-46869445D01*
X100998002Y-46864472D01*
X100858857Y-46790798D01*
X100706154Y-46752442D01*
X100624355Y-46752014D01*
X100556184Y-46751657D01*
X100556183Y-46751657D01*
X100548710Y-46751618D01*
X100541447Y-46753362D01*
X100541444Y-46753362D01*
X100472162Y-46769995D01*
X100395614Y-46788373D01*
X100255705Y-46860585D01*
X100137060Y-46964086D01*
X100046527Y-47092901D01*
X99989335Y-47239592D01*
X99968784Y-47395691D01*
X99969604Y-47403119D01*
X99969604Y-47403121D01*
X99976728Y-47467650D01*
X99986061Y-47552186D01*
X99988628Y-47559201D01*
X99988629Y-47559205D01*
X100006444Y-47607887D01*
X100010997Y-47677608D01*
X99977133Y-47738723D01*
X99915603Y-47771827D01*
X99889996Y-47774500D01*
X99882578Y-47774500D01*
X99863173Y-47772972D01*
X99852912Y-47771346D01*
X99852911Y-47771346D01*
X99843273Y-47769819D01*
X99833633Y-47771345D01*
X99832621Y-47771345D01*
X99826955Y-47772015D01*
X99656877Y-47785392D01*
X99656876Y-47785392D01*
X99652021Y-47785774D01*
X99593581Y-47799801D01*
X99470217Y-47829412D01*
X99470211Y-47829414D01*
X99465478Y-47830550D01*
X99460979Y-47832413D01*
X99460974Y-47832415D01*
X99376858Y-47867255D01*
X99288237Y-47903960D01*
X99284083Y-47906505D01*
X99284074Y-47906510D01*
X99143276Y-47992788D01*
X99075830Y-48011032D01*
X99009228Y-47989915D01*
X98964615Y-47936142D01*
X98956090Y-47899902D01*
X98955278Y-47900000D01*
X98937262Y-47751119D01*
X98937261Y-47751115D01*
X98936363Y-47743694D01*
X98924260Y-47711664D01*
X98883354Y-47603408D01*
X98883352Y-47603405D01*
X98880710Y-47596412D01*
X98859342Y-47565321D01*
X98795768Y-47472821D01*
X98795765Y-47472818D01*
X98791531Y-47466657D01*
X98701958Y-47386850D01*
X98679559Y-47366893D01*
X98679558Y-47366892D01*
X98673976Y-47361919D01*
X98534831Y-47288245D01*
X98382128Y-47249889D01*
X98300329Y-47249461D01*
X98232158Y-47249104D01*
X98232157Y-47249104D01*
X98224684Y-47249065D01*
X98217421Y-47250809D01*
X98217418Y-47250809D01*
X98162358Y-47264028D01*
X98071588Y-47285820D01*
X97931679Y-47358032D01*
X97926048Y-47362945D01*
X97926047Y-47362945D01*
X97910829Y-47376221D01*
X97813034Y-47461533D01*
X97722501Y-47590348D01*
X97719785Y-47597315D01*
X97681487Y-47695543D01*
X97638794Y-47750853D01*
X97565957Y-47774500D01*
X96144113Y-47774500D01*
X96077074Y-47754815D01*
X96031319Y-47702011D01*
X96021375Y-47632853D01*
X96043415Y-47578141D01*
X96094318Y-47507301D01*
X96124224Y-47465683D01*
X96182950Y-47319598D01*
X96187412Y-47288245D01*
X96204562Y-47167744D01*
X96204562Y-47167740D01*
X96205134Y-47163723D01*
X96205278Y-47150000D01*
X96203039Y-47131497D01*
X96187262Y-47001119D01*
X96187261Y-47001115D01*
X96186363Y-46993694D01*
X96137922Y-46865498D01*
X96133354Y-46853408D01*
X96133352Y-46853405D01*
X96130710Y-46846412D01*
X96089622Y-46786629D01*
X96045768Y-46722821D01*
X96045765Y-46722818D01*
X96041531Y-46716657D01*
X95967011Y-46650262D01*
X95930052Y-46590968D01*
X95925500Y-46557679D01*
X95925500Y-46542850D01*
X95927026Y-46523459D01*
X95927094Y-46523027D01*
X95930181Y-46503532D01*
X95928653Y-46493888D01*
X95928653Y-46492659D01*
X95928087Y-46487873D01*
X95914515Y-46315533D01*
X95914514Y-46315528D01*
X95914132Y-46310675D01*
X95868964Y-46122568D01*
X95865794Y-46114915D01*
X95796791Y-45948341D01*
X95796789Y-45948338D01*
X95794927Y-45943842D01*
X95693845Y-45778897D01*
X95615626Y-45687315D01*
X95612305Y-45682855D01*
X95611463Y-45681101D01*
X95607906Y-45676869D01*
X95603119Y-45672082D01*
X95596509Y-45664932D01*
X95578570Y-45643928D01*
X95575374Y-45639874D01*
X95574564Y-45639064D01*
X95568829Y-45631171D01*
X95560937Y-45625437D01*
X95560935Y-45625435D01*
X95552509Y-45619313D01*
X95537716Y-45606678D01*
X95270106Y-45339068D01*
X95257465Y-45324267D01*
X95251357Y-45315859D01*
X95251356Y-45315858D01*
X95245620Y-45307962D01*
X95237724Y-45302225D01*
X95233268Y-45297768D01*
X95222575Y-45285573D01*
X95215989Y-45276989D01*
X95199808Y-45248960D01*
X95198714Y-45246320D01*
X95189519Y-45224118D01*
X95181141Y-45192849D01*
X95179715Y-45182013D01*
X95178655Y-45165838D01*
X95178655Y-45159638D01*
X95180181Y-45150000D01*
X95177027Y-45130085D01*
X95175500Y-45110688D01*
X95175500Y-42066048D01*
X95195185Y-41999009D01*
X95243786Y-41955270D01*
X95262625Y-41945795D01*
X95268306Y-41940943D01*
X95268309Y-41940941D01*
X95376666Y-41848395D01*
X95376667Y-41848394D01*
X95382348Y-41843542D01*
X95394133Y-41827141D01*
X95449237Y-41784187D01*
X95494831Y-41775500D01*
X96275181Y-41775500D01*
X96294578Y-41777027D01*
X96304851Y-41778654D01*
X96304852Y-41778654D01*
X96314493Y-41780181D01*
X96324134Y-41778654D01*
X96326513Y-41778654D01*
X96331625Y-41778107D01*
X96565794Y-41764957D01*
X96565798Y-41764957D01*
X96569262Y-41764762D01*
X96572685Y-41764180D01*
X96572689Y-41764180D01*
X96817391Y-41722605D01*
X96817392Y-41722605D01*
X96820828Y-41722021D01*
X96943428Y-41686701D01*
X97062678Y-41652347D01*
X97062681Y-41652346D01*
X97066027Y-41651382D01*
X97301775Y-41553734D01*
X97525107Y-41430304D01*
X97527943Y-41428292D01*
X97527949Y-41428288D01*
X97683740Y-41317750D01*
X97733216Y-41282646D01*
X97910761Y-41123985D01*
X97920023Y-41116512D01*
X97920318Y-41116260D01*
X97924263Y-41113394D01*
X97924267Y-41113390D01*
X97927127Y-41109454D01*
X97927135Y-41109444D01*
X97929429Y-41106286D01*
X97947118Y-41086715D01*
X98125481Y-40927319D01*
X98136352Y-40918649D01*
X98354374Y-40763952D01*
X98366148Y-40756554D01*
X98600112Y-40627245D01*
X98612641Y-40621211D01*
X98859614Y-40518910D01*
X98872739Y-40514317D01*
X99102965Y-40447989D01*
X99129621Y-40440310D01*
X99143176Y-40437216D01*
X99406719Y-40392438D01*
X99420536Y-40390881D01*
X99625799Y-40379352D01*
X99659328Y-40377469D01*
X99682773Y-40378654D01*
X99684753Y-40378654D01*
X99694393Y-40380181D01*
X99704034Y-40378654D01*
X99704035Y-40378654D01*
X99714308Y-40377027D01*
X99733705Y-40375500D01*
X102142572Y-40375500D01*
X102209611Y-40395185D01*
G37*
%TD.AperFunction*%
%TA.AperFunction,Conductor*%
G36*
X105987306Y-38752883D02*
G01*
X106000000Y-38755408D01*
X106008174Y-38753782D01*
X106024661Y-38755405D01*
X106033015Y-38757067D01*
X106077720Y-38775584D01*
X106085207Y-38780587D01*
X106119413Y-38814793D01*
X106124416Y-38822280D01*
X106142933Y-38866985D01*
X106144595Y-38875339D01*
X106146218Y-38891826D01*
X106144592Y-38900000D01*
X106146975Y-38911980D01*
X106147117Y-38912694D01*
X106149500Y-38936885D01*
X106149500Y-39518750D01*
X106129815Y-39585789D01*
X106077011Y-39631544D01*
X106025500Y-39642750D01*
X105275326Y-39642750D01*
X105269350Y-39643939D01*
X105269347Y-39643939D01*
X105250501Y-39647688D01*
X105202260Y-39657284D01*
X105119399Y-39712649D01*
X105064034Y-39795510D01*
X105049500Y-39868576D01*
X105049500Y-40317924D01*
X105064034Y-40390990D01*
X105070821Y-40401148D01*
X105070822Y-40401150D01*
X105086330Y-40424360D01*
X105107208Y-40491037D01*
X105086330Y-40562140D01*
X105070822Y-40585350D01*
X105070821Y-40585352D01*
X105064034Y-40595510D01*
X105049500Y-40668576D01*
X105049500Y-41117924D01*
X105050689Y-41123900D01*
X105050689Y-41123903D01*
X105059771Y-41169558D01*
X105053544Y-41239150D01*
X105010681Y-41294327D01*
X104938154Y-41317750D01*
X104535250Y-41317750D01*
X104468211Y-41298065D01*
X104422456Y-41245261D01*
X104412512Y-41176103D01*
X104434550Y-41121393D01*
X104474224Y-41066181D01*
X104532950Y-40920096D01*
X104551217Y-40791744D01*
X104554562Y-40768242D01*
X104554562Y-40768238D01*
X104555134Y-40764221D01*
X104555278Y-40750498D01*
X104546102Y-40674671D01*
X104537262Y-40601617D01*
X104537261Y-40601613D01*
X104536363Y-40594192D01*
X104517602Y-40544543D01*
X104483354Y-40453906D01*
X104483352Y-40453903D01*
X104480710Y-40446910D01*
X104476174Y-40440310D01*
X104395768Y-40323319D01*
X104395765Y-40323316D01*
X104391531Y-40317155D01*
X104273976Y-40212417D01*
X104258676Y-40204316D01*
X104207342Y-40153185D01*
X104131474Y-40011245D01*
X104022067Y-39877933D01*
X104012715Y-39870258D01*
X103893467Y-39772393D01*
X103888755Y-39768526D01*
X103736660Y-39687230D01*
X103730837Y-39685463D01*
X103730833Y-39685462D01*
X103577450Y-39638934D01*
X103577449Y-39638934D01*
X103571628Y-39637168D01*
X103511347Y-39631231D01*
X103478763Y-39628021D01*
X103470395Y-39626712D01*
X103465452Y-39624977D01*
X103459945Y-39624500D01*
X103449100Y-39624500D01*
X103436946Y-39623903D01*
X103427503Y-39622973D01*
X103411067Y-39621354D01*
X103411005Y-39621346D01*
X103410984Y-39621346D01*
X103407430Y-39620996D01*
X103400000Y-39619819D01*
X103390359Y-39621346D01*
X103390358Y-39621346D01*
X103380085Y-39622973D01*
X103360688Y-39624500D01*
X99733703Y-39624500D01*
X99714306Y-39622973D01*
X99704033Y-39621346D01*
X99704032Y-39621346D01*
X99694391Y-39619819D01*
X99687517Y-39620908D01*
X99681037Y-39621226D01*
X99681009Y-39621218D01*
X99680824Y-39621237D01*
X99374566Y-39636283D01*
X99371554Y-39636730D01*
X99371552Y-39636730D01*
X99060821Y-39682824D01*
X99060819Y-39682824D01*
X99057822Y-39683269D01*
X98747209Y-39761075D01*
X98744345Y-39762100D01*
X98744341Y-39762101D01*
X98448595Y-39867921D01*
X98448591Y-39867923D01*
X98445717Y-39868951D01*
X98156251Y-40005860D01*
X97881598Y-40170483D01*
X97818352Y-40217390D01*
X97626856Y-40359414D01*
X97626850Y-40359419D01*
X97624404Y-40361233D01*
X97622146Y-40363279D01*
X97622143Y-40363282D01*
X97603498Y-40380181D01*
X97397289Y-40567081D01*
X97394179Y-40569605D01*
X97394261Y-40569701D01*
X97390552Y-40572869D01*
X97386611Y-40575732D01*
X97386607Y-40575736D01*
X97383745Y-40579676D01*
X97383740Y-40579681D01*
X97382310Y-40581649D01*
X97363756Y-40601985D01*
X97246460Y-40704850D01*
X97233591Y-40714725D01*
X97081693Y-40816218D01*
X97067646Y-40824327D01*
X96903800Y-40905126D01*
X96888814Y-40911334D01*
X96715818Y-40970057D01*
X96700160Y-40974253D01*
X96631454Y-40987919D01*
X96520980Y-41009892D01*
X96504900Y-41012009D01*
X96349170Y-41022216D01*
X96330195Y-41021346D01*
X96324136Y-41021346D01*
X96314495Y-41019819D01*
X96304854Y-41021346D01*
X96304853Y-41021346D01*
X96294580Y-41022973D01*
X96275183Y-41024500D01*
X95496525Y-41024500D01*
X95429486Y-41004815D01*
X95401522Y-40977705D01*
X95400707Y-40978424D01*
X95395768Y-40972822D01*
X95391531Y-40966657D01*
X95273976Y-40861919D01*
X95134831Y-40788245D01*
X95022967Y-40760147D01*
X94989378Y-40751710D01*
X94982128Y-40749889D01*
X94900329Y-40749461D01*
X94832158Y-40749104D01*
X94832157Y-40749104D01*
X94824684Y-40749065D01*
X94817421Y-40750809D01*
X94817418Y-40750809D01*
X94748136Y-40767442D01*
X94671588Y-40785820D01*
X94531679Y-40858032D01*
X94413034Y-40961533D01*
X94322501Y-41090348D01*
X94319785Y-41097313D01*
X94319785Y-41097314D01*
X94293866Y-41163793D01*
X94251174Y-41219103D01*
X94178336Y-41242750D01*
X93574500Y-41242750D01*
X93507461Y-41223065D01*
X93461706Y-41170261D01*
X93450500Y-41118750D01*
X93450500Y-38936885D01*
X93452883Y-38912694D01*
X93453025Y-38911980D01*
X93455408Y-38900000D01*
X93453782Y-38891826D01*
X93455405Y-38875339D01*
X93457067Y-38866985D01*
X93475584Y-38822280D01*
X93480587Y-38814793D01*
X93514793Y-38780587D01*
X93522280Y-38775584D01*
X93566985Y-38757067D01*
X93575339Y-38755405D01*
X93591826Y-38753782D01*
X93600000Y-38755408D01*
X93611980Y-38753025D01*
X93612694Y-38752883D01*
X93636885Y-38750500D01*
X105963115Y-38750500D01*
X105987306Y-38752883D01*
G37*
%TD.AperFunction*%
%TD*%
M02*
