%TF.GenerationSoftware,KiCad,Pcbnew,(6.0.2-0)*%
%TF.CreationDate,2022-04-02T10:18:42+01:00*%
%TF.ProjectId,Daikin,4461696b-696e-42e6-9b69-6361645f7063,1*%
%TF.SameCoordinates,Original*%
%TF.FileFunction,Copper,L2,Bot*%
%TF.FilePolarity,Positive*%
%FSLAX46Y46*%
G04 Gerber Fmt 4.6, Leading zero omitted, Abs format (unit mm)*
G04 Created by KiCad (PCBNEW (6.0.2-0)) date 2022-04-02 10:18:42*
%MOMM*%
%LPD*%
G01*
G04 APERTURE LIST*
G04 Aperture macros list*
%AMRoundRect*
0 Rectangle with rounded corners*
0 $1 Rounding radius*
0 $2 $3 $4 $5 $6 $7 $8 $9 X,Y pos of 4 corners*
0 Add a 4 corners polygon primitive as box body*
4,1,4,$2,$3,$4,$5,$6,$7,$8,$9,$2,$3,0*
0 Add four circle primitives for the rounded corners*
1,1,$1+$1,$2,$3*
1,1,$1+$1,$4,$5*
1,1,$1+$1,$6,$7*
1,1,$1+$1,$8,$9*
0 Add four rect primitives between the rounded corners*
20,1,$1+$1,$2,$3,$4,$5,0*
20,1,$1+$1,$4,$5,$6,$7,0*
20,1,$1+$1,$6,$7,$8,$9,0*
20,1,$1+$1,$8,$9,$2,$3,0*%
%AMFreePoly0*
4,1,43,1.487500,0.558253,1.533253,0.512500,1.550000,0.450000,1.535584,0.322050,1.493057,0.200517,1.424553,0.091493,1.333507,0.000447,1.224483,-0.068057,1.102950,-0.110584,0.975000,-0.125000,-0.975000,-0.125000,-1.102950,-0.110584,-1.224483,-0.068057,-1.333507,0.000447,-1.424553,0.091493,-1.493057,0.200517,-1.535584,0.322050,-1.550000,0.450000,-1.533253,0.512500,-1.487500,0.558253,
-1.425000,0.575000,-1.362500,0.558253,-1.316747,0.512500,-1.300000,0.450000,-1.302546,0.440498,-1.287946,0.348318,-1.241208,0.256589,-1.168411,0.183792,-1.076682,0.137054,-0.984502,0.122454,-0.975000,0.125000,0.975000,0.125000,0.984502,0.122454,1.076682,0.137054,1.168411,0.183792,1.241208,0.256589,1.287946,0.348318,1.302546,0.440498,1.300000,0.450000,1.316747,0.512500,
1.362500,0.558253,1.425000,0.575000,1.487500,0.558253,1.487500,0.558253,$1*%
%AMFreePoly1*
4,1,24,1.427950,0.110584,1.549483,0.068057,1.658507,-0.000447,1.749553,-0.091493,1.818057,-0.200517,1.860584,-0.322050,1.875000,-0.450000,1.858253,-0.512500,1.812500,-0.558253,1.750000,-0.575000,1.687500,-0.558253,1.641747,-0.512500,1.625000,-0.450000,1.627546,-0.440498,1.612946,-0.348318,1.566208,-0.256589,1.493411,-0.183792,1.401682,-0.137054,1.309502,-0.122454,1.300000,-0.125000,
-1.300000,-0.125000,-1.300000,0.125000,1.300000,0.125000,1.427950,0.110584,1.427950,0.110584,$1*%
%AMFreePoly2*
4,1,37,0.195545,0.234610,0.386273,0.188820,0.567490,0.113758,0.734733,0.011271,0.883885,-0.116117,1.011272,-0.265269,1.113759,-0.432512,1.188821,-0.613729,1.234611,-0.804457,1.250000,-1.000000,1.230970,-1.095671,1.176777,-1.176777,1.095671,-1.230970,1.000000,-1.250000,0.904329,-1.230970,0.823223,-1.176777,0.769030,-1.095671,0.750000,-1.000000,0.752427,-0.987798,0.739148,-0.852974,
0.696263,-0.711599,0.626620,-0.581306,0.532897,-0.467104,0.418695,-0.373381,0.288403,-0.303738,0.147027,-0.260852,0.012204,-0.247573,0.000002,-0.250000,-0.095669,-0.230970,-0.176775,-0.176777,-0.230968,-0.095671,-0.249998,0.000000,-0.230968,0.095671,-0.176775,0.176777,-0.095669,0.230970,0.000002,0.250000,0.195545,0.234610,0.195545,0.234610,$1*%
%AMFreePoly3*
4,1,72,6.695652,0.230924,6.776741,0.176741,6.830924,0.095652,6.849950,0.000000,6.830924,-0.095652,6.776741,-0.176741,6.695652,-0.230924,6.600000,-0.249950,5.112450,-0.249950,5.112450,-1.380300,5.176741,-1.423259,5.230924,-1.504348,5.249950,-1.600000,5.249950,-6.400000,5.236501,-6.536553,5.196669,-6.667859,5.131987,-6.788871,5.044939,-6.894939,4.938871,-6.981987,4.817859,-7.046669,
4.686553,-7.086501,4.550000,-7.099950,1.550000,-7.099950,1.413447,-7.086501,1.282141,-7.046669,1.161129,-6.981987,1.055061,-6.894939,0.968013,-6.788871,0.903331,-6.667859,0.863499,-6.536553,0.850050,-6.400000,0.850050,-5.900000,0.869076,-5.804348,0.923259,-5.723259,1.004348,-5.669076,1.100000,-5.650050,1.195652,-5.669076,1.276741,-5.723259,1.330924,-5.804348,1.349950,-5.900000,
1.349950,-6.400000,1.348562,-6.406980,1.357369,-6.462590,1.386138,-6.519052,1.430948,-6.563862,1.487410,-6.592631,1.543020,-6.601438,1.550000,-6.600050,4.550000,-6.600050,4.556980,-6.601438,4.612590,-6.592631,4.669052,-6.563862,4.713862,-6.519052,4.742631,-6.462590,4.751438,-6.406980,4.750050,-6.400000,4.750050,-1.819700,4.685759,-1.776741,4.631576,-1.695652,4.612550,-1.600000,
4.612550,-0.249950,0.000000,-0.249950,-0.095652,-0.230924,-0.176741,-0.176741,-0.230924,-0.095652,-0.249950,0.000000,-0.230924,0.095652,-0.176741,0.176741,-0.095652,0.230924,0.000000,0.249950,6.600000,0.249950,6.695652,0.230924,6.695652,0.230924,$1*%
G04 Aperture macros list end*
%TA.AperFunction,SMDPad,CuDef*%
%ADD10R,0.700000X0.450000*%
%TD*%
%TA.AperFunction,ComponentPad*%
%ADD11R,1.700000X1.700000*%
%TD*%
%TA.AperFunction,ComponentPad*%
%ADD12O,1.700000X1.700000*%
%TD*%
%TA.AperFunction,ComponentPad*%
%ADD13RoundRect,0.250000X-0.600000X-0.675000X0.600000X-0.675000X0.600000X0.675000X-0.600000X0.675000X0*%
%TD*%
%TA.AperFunction,ComponentPad*%
%ADD14O,1.700000X1.850000*%
%TD*%
%TA.AperFunction,SMDPad,CuDef*%
%ADD15RoundRect,0.200000X-0.275000X0.200000X-0.275000X-0.200000X0.275000X-0.200000X0.275000X0.200000X0*%
%TD*%
%TA.AperFunction,SMDPad,CuDef*%
%ADD16RoundRect,0.200000X0.200000X0.275000X-0.200000X0.275000X-0.200000X-0.275000X0.200000X-0.275000X0*%
%TD*%
%TA.AperFunction,SMDPad,CuDef*%
%ADD17RoundRect,0.200000X-0.200000X-0.275000X0.200000X-0.275000X0.200000X0.275000X-0.200000X0.275000X0*%
%TD*%
%TA.AperFunction,SMDPad,CuDef*%
%ADD18R,0.850000X0.500000*%
%TD*%
%TA.AperFunction,SMDPad,CuDef*%
%ADD19R,0.500000X2.000000*%
%TD*%
%TA.AperFunction,SMDPad,CuDef*%
%ADD20R,0.600000X1.100000*%
%TD*%
%TA.AperFunction,SMDPad,CuDef*%
%ADD21R,1.425000X3.700000*%
%TD*%
%TA.AperFunction,SMDPad,CuDef*%
%ADD22FreePoly0,180.000000*%
%TD*%
%TA.AperFunction,SMDPad,CuDef*%
%ADD23RoundRect,0.249375X0.463125X0.625625X-0.463125X0.625625X-0.463125X-0.625625X0.463125X-0.625625X0*%
%TD*%
%TA.AperFunction,SMDPad,CuDef*%
%ADD24R,2.000000X0.500000*%
%TD*%
%TA.AperFunction,SMDPad,CuDef*%
%ADD25RoundRect,0.225000X0.250000X-0.225000X0.250000X0.225000X-0.250000X0.225000X-0.250000X-0.225000X0*%
%TD*%
%TA.AperFunction,SMDPad,CuDef*%
%ADD26FreePoly1,180.000000*%
%TD*%
%TA.AperFunction,SMDPad,CuDef*%
%ADD27RoundRect,0.250000X-0.475000X0.250000X-0.475000X-0.250000X0.475000X-0.250000X0.475000X0.250000X0*%
%TD*%
%TA.AperFunction,SMDPad,CuDef*%
%ADD28FreePoly2,180.000000*%
%TD*%
%TA.AperFunction,SMDPad,CuDef*%
%ADD29FreePoly3,180.000000*%
%TD*%
%TA.AperFunction,SMDPad,CuDef*%
%ADD30R,0.500000X4.000000*%
%TD*%
G04 APERTURE END LIST*
D10*
%TO.P,Q2,1,G*%
%TO.N,TX*%
X98285714Y-53350000D03*
%TO.P,Q2,2,S*%
%TO.N,GND*%
X98285714Y-54650000D03*
%TO.P,Q2,3,D*%
%TO.N,Net-(J1-Pad4)*%
X96285714Y-54000000D03*
%TD*%
%TO.P,Q1,1,G*%
%TO.N,TX*%
X102735714Y-53350000D03*
%TO.P,Q1,2,S*%
%TO.N,RX*%
X102735714Y-54650000D03*
%TO.P,Q1,3,D*%
%TO.N,Net-(J1-Pad4)*%
X100735714Y-54000000D03*
%TD*%
D11*
%TO.P,J2,1,Pin_1*%
%TO.N,GND*%
X94750000Y-56750000D03*
D12*
%TO.P,J2,2,Pin_2*%
%TO.N,GPIO0*%
X97290000Y-56750000D03*
%TO.P,J2,3,Pin_3*%
%TO.N,+3V3*%
X99830000Y-56750000D03*
%TO.P,J2,4,Pin_4*%
%TO.N,I*%
X102370000Y-56750000D03*
%TO.P,J2,5,Pin_5*%
%TO.N,O*%
X104910000Y-56750000D03*
%TD*%
D13*
%TO.P,J1,1,Pin_1*%
%TO.N,GND*%
X96250000Y-51440000D03*
D14*
%TO.P,J1,2,Pin_2*%
%TO.N,DC*%
X98750000Y-51440000D03*
%TO.P,J1,3,Pin_3*%
%TO.N,RX*%
X101250000Y-51440000D03*
%TO.P,J1,4,Pin_4*%
%TO.N,Net-(J1-Pad4)*%
X103750000Y-51440000D03*
%TD*%
D15*
%TO.P,R2,1*%
%TO.N,Net-(D1-Pad3)*%
X104550000Y-43900000D03*
%TO.P,R2,2*%
%TO.N,G*%
X104550000Y-45550000D03*
%TD*%
D16*
%TO.P,C1,1*%
%TO.N,GND*%
X99975000Y-47200000D03*
%TO.P,C1,2*%
%TO.N,EN*%
X98425000Y-47200000D03*
%TD*%
D17*
%TO.P,R6,1*%
%TO.N,GND*%
X101700000Y-39500000D03*
%TO.P,R6,2*%
%TO.N,Net-(R5-Pad2)*%
X103350000Y-39500000D03*
%TD*%
D15*
%TO.P,R1,1*%
%TO.N,Net-(D1-Pad2)*%
X102700000Y-43875000D03*
%TO.P,R1,2*%
%TO.N,R*%
X102700000Y-45525000D03*
%TD*%
%TO.P,R3,1*%
%TO.N,Net-(D1-Pad4)*%
X105850000Y-43875000D03*
%TO.P,R3,2*%
%TO.N,B*%
X105850000Y-45525000D03*
%TD*%
D17*
%TO.P,R4,1*%
%TO.N,+3V3*%
X95575000Y-47200000D03*
%TO.P,R4,2*%
%TO.N,EN*%
X97225000Y-47200000D03*
%TD*%
D18*
%TO.P,D1,1,A*%
%TO.N,+3V3*%
X105775000Y-41100000D03*
%TO.P,D1,2,RK*%
%TO.N,Net-(D1-Pad2)*%
X104025000Y-41100000D03*
%TO.P,D1,3,GK*%
%TO.N,Net-(D1-Pad3)*%
X104025000Y-42100000D03*
%TO.P,D1,4,BK*%
%TO.N,Net-(D1-Pad4)*%
X105775000Y-42100000D03*
%TD*%
D15*
%TO.P,C5,1*%
%TO.N,+3V3*%
X94700000Y-49525000D03*
%TO.P,C5,2*%
%TO.N,GND*%
X94700000Y-51075000D03*
%TD*%
D19*
%TO.P,U2,*%
%TO.N,*%
X98900000Y-43900000D03*
D20*
X98900000Y-40250000D03*
D21*
X97450000Y-41650000D03*
D22*
X100325000Y-42050000D03*
D23*
X99052500Y-44770000D03*
D24*
X97950000Y-42950000D03*
D25*
X101950000Y-42625000D03*
D26*
X100650000Y-41150000D03*
D25*
X101950000Y-41075000D03*
D20*
X98900000Y-42950000D03*
%TO.P,U2,1,SHDN*%
%TO.N,DC*%
X100800000Y-42950000D03*
D27*
%TO.P,U2,2,VIN*%
X100700000Y-44200000D03*
D20*
X99850000Y-42950000D03*
D28*
X100910000Y-44150000D03*
D20*
%TO.P,U2,3,GND*%
%TO.N,GND*%
X99850000Y-40250000D03*
D27*
X100700000Y-46100000D03*
X94450000Y-46100000D03*
D29*
X100950000Y-46100000D03*
D23*
X96087500Y-44770000D03*
D30*
%TO.P,U2,4,VOUT*%
%TO.N,+3V3*%
X94450000Y-42400000D03*
D27*
X94450000Y-44200000D03*
D21*
X94450000Y-41650000D03*
D20*
%TO.P,U2,5,FB*%
%TO.N,Net-(R5-Pad2)*%
X100800000Y-40250000D03*
%TD*%
D16*
%TO.P,R5,1*%
%TO.N,+3V3*%
X105825000Y-39500000D03*
%TO.P,R5,2*%
%TO.N,Net-(R5-Pad2)*%
X104175000Y-39500000D03*
%TD*%
%TA.AperFunction,Conductor*%
%TO.N,GND*%
G36*
X105163877Y-38874002D02*
G01*
X105210370Y-38927658D01*
X105220474Y-38997932D01*
X105214641Y-39021743D01*
X105173507Y-39138873D01*
X105170500Y-39170685D01*
X105170501Y-39829314D01*
X105173507Y-39861127D01*
X105218791Y-39990076D01*
X105299990Y-40100010D01*
X105409924Y-40181209D01*
X105538873Y-40226493D01*
X105546515Y-40227215D01*
X105546518Y-40227216D01*
X105561421Y-40228624D01*
X105570685Y-40229500D01*
X105824828Y-40229500D01*
X106079314Y-40229499D01*
X106082262Y-40229220D01*
X106082271Y-40229220D01*
X106103478Y-40227216D01*
X106103480Y-40227216D01*
X106111127Y-40226493D01*
X106178253Y-40202920D01*
X106249152Y-40199222D01*
X106310797Y-40234442D01*
X106343614Y-40297399D01*
X106346000Y-40321803D01*
X106346000Y-40469500D01*
X106325998Y-40537621D01*
X106272342Y-40584114D01*
X106220000Y-40595500D01*
X105819863Y-40595500D01*
X105324934Y-40595501D01*
X105289182Y-40602612D01*
X105262874Y-40607844D01*
X105262872Y-40607845D01*
X105250699Y-40610266D01*
X105240379Y-40617161D01*
X105240378Y-40617162D01*
X105179985Y-40657516D01*
X105166516Y-40666516D01*
X105110266Y-40750699D01*
X105095500Y-40824933D01*
X105095501Y-41375066D01*
X105110266Y-41449301D01*
X105164188Y-41530000D01*
X105185402Y-41597750D01*
X105164188Y-41670000D01*
X105110266Y-41750699D01*
X105095500Y-41824933D01*
X105095501Y-42375066D01*
X105110266Y-42449301D01*
X105166516Y-42533484D01*
X105250699Y-42589734D01*
X105324933Y-42604500D01*
X105331120Y-42604500D01*
X105819834Y-42604499D01*
X106220000Y-42604499D01*
X106288121Y-42624501D01*
X106334614Y-42678157D01*
X106346000Y-42730499D01*
X106346000Y-43097784D01*
X106325998Y-43165905D01*
X106272342Y-43212398D01*
X106208143Y-43223225D01*
X106179315Y-43220500D01*
X105850223Y-43220500D01*
X105520686Y-43220501D01*
X105517738Y-43220780D01*
X105517729Y-43220780D01*
X105496522Y-43222784D01*
X105496520Y-43222784D01*
X105488873Y-43223507D01*
X105359924Y-43268791D01*
X105277731Y-43329500D01*
X105257936Y-43344121D01*
X105191257Y-43368504D01*
X105121982Y-43352967D01*
X105108223Y-43344126D01*
X105040076Y-43293791D01*
X104911127Y-43248507D01*
X104903485Y-43247785D01*
X104903482Y-43247784D01*
X104888579Y-43246376D01*
X104879315Y-43245500D01*
X104550223Y-43245500D01*
X104220686Y-43245501D01*
X104217738Y-43245780D01*
X104217729Y-43245780D01*
X104196522Y-43247784D01*
X104196520Y-43247784D01*
X104188873Y-43248507D01*
X104059924Y-43293791D01*
X103949990Y-43374990D01*
X103868791Y-43484924D01*
X103823507Y-43613873D01*
X103820500Y-43645685D01*
X103820501Y-44154314D01*
X103820780Y-44157262D01*
X103820780Y-44157271D01*
X103822784Y-44178478D01*
X103823507Y-44186127D01*
X103868791Y-44315076D01*
X103949990Y-44425010D01*
X104059924Y-44506209D01*
X104188873Y-44551493D01*
X104196515Y-44552215D01*
X104196518Y-44552216D01*
X104211421Y-44553624D01*
X104220685Y-44554500D01*
X104549777Y-44554500D01*
X104879314Y-44554499D01*
X104882262Y-44554220D01*
X104882271Y-44554220D01*
X104903478Y-44552216D01*
X104903480Y-44552216D01*
X104911127Y-44551493D01*
X105040076Y-44506209D01*
X105142064Y-44430879D01*
X105208743Y-44406496D01*
X105278018Y-44422033D01*
X105291777Y-44430874D01*
X105359924Y-44481209D01*
X105488873Y-44526493D01*
X105496515Y-44527215D01*
X105496518Y-44527216D01*
X105511421Y-44528624D01*
X105520685Y-44529500D01*
X105849777Y-44529500D01*
X106179314Y-44529499D01*
X106186577Y-44528813D01*
X106208149Y-44526775D01*
X106277849Y-44540281D01*
X106329182Y-44589326D01*
X106346000Y-44652216D01*
X106346000Y-44747784D01*
X106325998Y-44815905D01*
X106272342Y-44862398D01*
X106208143Y-44873225D01*
X106179315Y-44870500D01*
X105850223Y-44870500D01*
X105520686Y-44870501D01*
X105517738Y-44870780D01*
X105517729Y-44870780D01*
X105496522Y-44872784D01*
X105496520Y-44872784D01*
X105488873Y-44873507D01*
X105359924Y-44918791D01*
X105326077Y-44943791D01*
X105257936Y-44994121D01*
X105191257Y-45018504D01*
X105121982Y-45002967D01*
X105108223Y-44994126D01*
X105040076Y-44943791D01*
X104911127Y-44898507D01*
X104903485Y-44897785D01*
X104903482Y-44897784D01*
X104888579Y-44896376D01*
X104879315Y-44895500D01*
X104550223Y-44895500D01*
X104220686Y-44895501D01*
X104217738Y-44895780D01*
X104217729Y-44895780D01*
X104196522Y-44897784D01*
X104196520Y-44897784D01*
X104188873Y-44898507D01*
X104059924Y-44943791D01*
X103949990Y-45024990D01*
X103868791Y-45134924D01*
X103823507Y-45263873D01*
X103822785Y-45271515D01*
X103822784Y-45271518D01*
X103822130Y-45278442D01*
X103820500Y-45295685D01*
X103820501Y-45804314D01*
X103820780Y-45807262D01*
X103820780Y-45807271D01*
X103822784Y-45828478D01*
X103823507Y-45836127D01*
X103868791Y-45965076D01*
X103949990Y-46075010D01*
X104059924Y-46156209D01*
X104188873Y-46201493D01*
X104196515Y-46202215D01*
X104196518Y-46202216D01*
X104211421Y-46203624D01*
X104220685Y-46204500D01*
X104549777Y-46204500D01*
X104879314Y-46204499D01*
X104882262Y-46204220D01*
X104882271Y-46204220D01*
X104903478Y-46202216D01*
X104903480Y-46202216D01*
X104911127Y-46201493D01*
X105040076Y-46156209D01*
X105142064Y-46080879D01*
X105208743Y-46056496D01*
X105278018Y-46072033D01*
X105291777Y-46080874D01*
X105359924Y-46131209D01*
X105488873Y-46176493D01*
X105496515Y-46177215D01*
X105496518Y-46177216D01*
X105511421Y-46178624D01*
X105520685Y-46179500D01*
X105849777Y-46179500D01*
X106179314Y-46179499D01*
X106186577Y-46178813D01*
X106208149Y-46176775D01*
X106277849Y-46190281D01*
X106329182Y-46239326D01*
X106346000Y-46302216D01*
X106346000Y-57720000D01*
X106325998Y-57788121D01*
X106272342Y-57834614D01*
X106220000Y-57846000D01*
X105668168Y-57846000D01*
X105600047Y-57825998D01*
X105553554Y-57772342D01*
X105543450Y-57702068D01*
X105572944Y-57637488D01*
X105587598Y-57623126D01*
X105689913Y-57538031D01*
X105694345Y-57534345D01*
X105824147Y-57378276D01*
X105923334Y-57201165D01*
X105925190Y-57195698D01*
X105925192Y-57195693D01*
X105986728Y-57014414D01*
X105986729Y-57014409D01*
X105988584Y-57008945D01*
X105989412Y-57003236D01*
X105989413Y-57003231D01*
X106017179Y-56811727D01*
X106017712Y-56808053D01*
X106019232Y-56750000D01*
X106000658Y-56547859D01*
X105999090Y-56542299D01*
X105947125Y-56358046D01*
X105947124Y-56358044D01*
X105945557Y-56352487D01*
X105934978Y-56331033D01*
X105858331Y-56175609D01*
X105855776Y-56170428D01*
X105734320Y-56007779D01*
X105585258Y-55869987D01*
X105580375Y-55866906D01*
X105580371Y-55866903D01*
X105418464Y-55764748D01*
X105413581Y-55761667D01*
X105225039Y-55686446D01*
X105219379Y-55685320D01*
X105219375Y-55685319D01*
X105031613Y-55647971D01*
X105031610Y-55647971D01*
X105025946Y-55646844D01*
X105020171Y-55646768D01*
X105020167Y-55646768D01*
X104918793Y-55645441D01*
X104822971Y-55644187D01*
X104817274Y-55645166D01*
X104817273Y-55645166D01*
X104719620Y-55661946D01*
X104622910Y-55678564D01*
X104432463Y-55748824D01*
X104258010Y-55852612D01*
X104253670Y-55856418D01*
X104253666Y-55856421D01*
X104233723Y-55873911D01*
X104105392Y-55986455D01*
X103979720Y-56145869D01*
X103977031Y-56150980D01*
X103977029Y-56150983D01*
X103965507Y-56172883D01*
X103885203Y-56325515D01*
X103825007Y-56519378D01*
X103801148Y-56720964D01*
X103814424Y-56923522D01*
X103815845Y-56929118D01*
X103815846Y-56929123D01*
X103834863Y-57004000D01*
X103864392Y-57120269D01*
X103866809Y-57125512D01*
X103904010Y-57206208D01*
X103949377Y-57304616D01*
X104066533Y-57470389D01*
X104211938Y-57612035D01*
X104216742Y-57615245D01*
X104221232Y-57618881D01*
X104220515Y-57619767D01*
X104262255Y-57669713D01*
X104271102Y-57740157D01*
X104240460Y-57804200D01*
X104180058Y-57841511D01*
X104146725Y-57846000D01*
X103128168Y-57846000D01*
X103060047Y-57825998D01*
X103013554Y-57772342D01*
X103003450Y-57702068D01*
X103032944Y-57637488D01*
X103047598Y-57623126D01*
X103149913Y-57538031D01*
X103154345Y-57534345D01*
X103284147Y-57378276D01*
X103383334Y-57201165D01*
X103385190Y-57195698D01*
X103385192Y-57195693D01*
X103446728Y-57014414D01*
X103446729Y-57014409D01*
X103448584Y-57008945D01*
X103449412Y-57003236D01*
X103449413Y-57003231D01*
X103477179Y-56811727D01*
X103477712Y-56808053D01*
X103479232Y-56750000D01*
X103460658Y-56547859D01*
X103459090Y-56542299D01*
X103407125Y-56358046D01*
X103407124Y-56358044D01*
X103405557Y-56352487D01*
X103394978Y-56331033D01*
X103318331Y-56175609D01*
X103315776Y-56170428D01*
X103194320Y-56007779D01*
X103045258Y-55869987D01*
X103040375Y-55866906D01*
X103040371Y-55866903D01*
X102878464Y-55764748D01*
X102873581Y-55761667D01*
X102685039Y-55686446D01*
X102679379Y-55685320D01*
X102679375Y-55685319D01*
X102491613Y-55647971D01*
X102491610Y-55647971D01*
X102485946Y-55646844D01*
X102480171Y-55646768D01*
X102480167Y-55646768D01*
X102378793Y-55645441D01*
X102282971Y-55644187D01*
X102277274Y-55645166D01*
X102277273Y-55645166D01*
X102179620Y-55661946D01*
X102082910Y-55678564D01*
X101892463Y-55748824D01*
X101718010Y-55852612D01*
X101713670Y-55856418D01*
X101713666Y-55856421D01*
X101693723Y-55873911D01*
X101565392Y-55986455D01*
X101439720Y-56145869D01*
X101437031Y-56150980D01*
X101437029Y-56150983D01*
X101425507Y-56172883D01*
X101345203Y-56325515D01*
X101285007Y-56519378D01*
X101261148Y-56720964D01*
X101274424Y-56923522D01*
X101275845Y-56929118D01*
X101275846Y-56929123D01*
X101294863Y-57004000D01*
X101324392Y-57120269D01*
X101326809Y-57125512D01*
X101364010Y-57206208D01*
X101409377Y-57304616D01*
X101526533Y-57470389D01*
X101671938Y-57612035D01*
X101676742Y-57615245D01*
X101681232Y-57618881D01*
X101680515Y-57619767D01*
X101722255Y-57669713D01*
X101731102Y-57740157D01*
X101700460Y-57804200D01*
X101640058Y-57841511D01*
X101606725Y-57846000D01*
X100588168Y-57846000D01*
X100520047Y-57825998D01*
X100473554Y-57772342D01*
X100463450Y-57702068D01*
X100492944Y-57637488D01*
X100507598Y-57623126D01*
X100609913Y-57538031D01*
X100614345Y-57534345D01*
X100744147Y-57378276D01*
X100843334Y-57201165D01*
X100845190Y-57195698D01*
X100845192Y-57195693D01*
X100906728Y-57014414D01*
X100906729Y-57014409D01*
X100908584Y-57008945D01*
X100909412Y-57003236D01*
X100909413Y-57003231D01*
X100937179Y-56811727D01*
X100937712Y-56808053D01*
X100939232Y-56750000D01*
X100920658Y-56547859D01*
X100919090Y-56542299D01*
X100867125Y-56358046D01*
X100867124Y-56358044D01*
X100865557Y-56352487D01*
X100854978Y-56331033D01*
X100778331Y-56175609D01*
X100775776Y-56170428D01*
X100654320Y-56007779D01*
X100505258Y-55869987D01*
X100500375Y-55866906D01*
X100500371Y-55866903D01*
X100338464Y-55764748D01*
X100333581Y-55761667D01*
X100145039Y-55686446D01*
X100139379Y-55685320D01*
X100139375Y-55685319D01*
X99951613Y-55647971D01*
X99951610Y-55647971D01*
X99945946Y-55646844D01*
X99940171Y-55646768D01*
X99940167Y-55646768D01*
X99838793Y-55645441D01*
X99742971Y-55644187D01*
X99737274Y-55645166D01*
X99737273Y-55645166D01*
X99639620Y-55661946D01*
X99542910Y-55678564D01*
X99352463Y-55748824D01*
X99178010Y-55852612D01*
X99173670Y-55856418D01*
X99173666Y-55856421D01*
X99153723Y-55873911D01*
X99025392Y-55986455D01*
X98899720Y-56145869D01*
X98897031Y-56150980D01*
X98897029Y-56150983D01*
X98885507Y-56172883D01*
X98805203Y-56325515D01*
X98745007Y-56519378D01*
X98721148Y-56720964D01*
X98734424Y-56923522D01*
X98735845Y-56929118D01*
X98735846Y-56929123D01*
X98754863Y-57004000D01*
X98784392Y-57120269D01*
X98786809Y-57125512D01*
X98824010Y-57206208D01*
X98869377Y-57304616D01*
X98986533Y-57470389D01*
X99131938Y-57612035D01*
X99136742Y-57615245D01*
X99141232Y-57618881D01*
X99140515Y-57619767D01*
X99182255Y-57669713D01*
X99191102Y-57740157D01*
X99160460Y-57804200D01*
X99100058Y-57841511D01*
X99066725Y-57846000D01*
X98048168Y-57846000D01*
X97980047Y-57825998D01*
X97933554Y-57772342D01*
X97923450Y-57702068D01*
X97952944Y-57637488D01*
X97967598Y-57623126D01*
X98069913Y-57538031D01*
X98074345Y-57534345D01*
X98204147Y-57378276D01*
X98303334Y-57201165D01*
X98305190Y-57195698D01*
X98305192Y-57195693D01*
X98366728Y-57014414D01*
X98366729Y-57014409D01*
X98368584Y-57008945D01*
X98369412Y-57003236D01*
X98369413Y-57003231D01*
X98397179Y-56811727D01*
X98397712Y-56808053D01*
X98399232Y-56750000D01*
X98380658Y-56547859D01*
X98379090Y-56542299D01*
X98327125Y-56358046D01*
X98327124Y-56358044D01*
X98325557Y-56352487D01*
X98314978Y-56331033D01*
X98238331Y-56175609D01*
X98235776Y-56170428D01*
X98114320Y-56007779D01*
X97965258Y-55869987D01*
X97960375Y-55866906D01*
X97960371Y-55866903D01*
X97798464Y-55764748D01*
X97793581Y-55761667D01*
X97605039Y-55686446D01*
X97599379Y-55685320D01*
X97599375Y-55685319D01*
X97411613Y-55647971D01*
X97411610Y-55647971D01*
X97405946Y-55646844D01*
X97400171Y-55646768D01*
X97400167Y-55646768D01*
X97298793Y-55645441D01*
X97202971Y-55644187D01*
X97197274Y-55645166D01*
X97197273Y-55645166D01*
X97099620Y-55661946D01*
X97002910Y-55678564D01*
X96812463Y-55748824D01*
X96638010Y-55852612D01*
X96633670Y-55856418D01*
X96633666Y-55856421D01*
X96613723Y-55873911D01*
X96485392Y-55986455D01*
X96359720Y-56145869D01*
X96357031Y-56150980D01*
X96357029Y-56150983D01*
X96345507Y-56172883D01*
X96296087Y-56223856D01*
X96226955Y-56240018D01*
X96160059Y-56216239D01*
X96116638Y-56160068D01*
X96107999Y-56114215D01*
X96107999Y-55855331D01*
X96107629Y-55848510D01*
X96102105Y-55797648D01*
X96098479Y-55782396D01*
X96053324Y-55661946D01*
X96044786Y-55646351D01*
X95968285Y-55544276D01*
X95955724Y-55531715D01*
X95853649Y-55455214D01*
X95838054Y-55446676D01*
X95717606Y-55401522D01*
X95702351Y-55397895D01*
X95651486Y-55392369D01*
X95644672Y-55392000D01*
X95022115Y-55392000D01*
X95006876Y-55396475D01*
X95005671Y-55397865D01*
X95004000Y-55405548D01*
X95004000Y-56878000D01*
X94983998Y-56946121D01*
X94930342Y-56992614D01*
X94878000Y-57004000D01*
X94622000Y-57004000D01*
X94553879Y-56983998D01*
X94507386Y-56930342D01*
X94496000Y-56878000D01*
X94496000Y-55410116D01*
X94491525Y-55394877D01*
X94490135Y-55393672D01*
X94482452Y-55392001D01*
X93855331Y-55392001D01*
X93848510Y-55392371D01*
X93793605Y-55398334D01*
X93723723Y-55385805D01*
X93671708Y-55337483D01*
X93654000Y-55273071D01*
X93654000Y-54919669D01*
X97427715Y-54919669D01*
X97428085Y-54926490D01*
X97433609Y-54977352D01*
X97437235Y-54992604D01*
X97482390Y-55113054D01*
X97490928Y-55128649D01*
X97567429Y-55230724D01*
X97579990Y-55243285D01*
X97682065Y-55319786D01*
X97697660Y-55328324D01*
X97818108Y-55373478D01*
X97833363Y-55377105D01*
X97884228Y-55382631D01*
X97891042Y-55383000D01*
X98042599Y-55383000D01*
X98057838Y-55378525D01*
X98059043Y-55377135D01*
X98060714Y-55369452D01*
X98060714Y-55364884D01*
X98510714Y-55364884D01*
X98515189Y-55380123D01*
X98516579Y-55381328D01*
X98524262Y-55382999D01*
X98680383Y-55382999D01*
X98687204Y-55382629D01*
X98738066Y-55377105D01*
X98753318Y-55373479D01*
X98873768Y-55328324D01*
X98889363Y-55319786D01*
X98991438Y-55243285D01*
X99003999Y-55230724D01*
X99080500Y-55128649D01*
X99089038Y-55113054D01*
X99134192Y-54992606D01*
X99137819Y-54977351D01*
X99143345Y-54926486D01*
X99143714Y-54919672D01*
X99143714Y-54893115D01*
X99139239Y-54877876D01*
X99137849Y-54876671D01*
X99130166Y-54875000D01*
X98528829Y-54875000D01*
X98513590Y-54879475D01*
X98512385Y-54880865D01*
X98510714Y-54888548D01*
X98510714Y-55364884D01*
X98060714Y-55364884D01*
X98060714Y-54893115D01*
X98056239Y-54877876D01*
X98054849Y-54876671D01*
X98047166Y-54875000D01*
X97445830Y-54875000D01*
X97430591Y-54879475D01*
X97429386Y-54880865D01*
X97427715Y-54888548D01*
X97427715Y-54919669D01*
X93654000Y-54919669D01*
X93654000Y-53749933D01*
X95681214Y-53749933D01*
X95681215Y-54250066D01*
X95688326Y-54285818D01*
X95692618Y-54307396D01*
X95695980Y-54324301D01*
X95702875Y-54334620D01*
X95702876Y-54334622D01*
X95742460Y-54393863D01*
X95752230Y-54408484D01*
X95836413Y-54464734D01*
X95910647Y-54479500D01*
X96285653Y-54479500D01*
X96660780Y-54479499D01*
X96696532Y-54472388D01*
X96722840Y-54467156D01*
X96722842Y-54467155D01*
X96735015Y-54464734D01*
X96745335Y-54457839D01*
X96745336Y-54457838D01*
X96808882Y-54415377D01*
X96819198Y-54408484D01*
X96820266Y-54406885D01*
X97427714Y-54406885D01*
X97432189Y-54422124D01*
X97433579Y-54423329D01*
X97441262Y-54425000D01*
X99125598Y-54425000D01*
X99140837Y-54420525D01*
X99142042Y-54419135D01*
X99143713Y-54411452D01*
X99143713Y-54380331D01*
X99143343Y-54373510D01*
X99137819Y-54322648D01*
X99134193Y-54307396D01*
X99089038Y-54186946D01*
X99080500Y-54171351D01*
X99003999Y-54069276D01*
X98991438Y-54056715D01*
X98889363Y-53980214D01*
X98873768Y-53971676D01*
X98859772Y-53966429D01*
X98803008Y-53923787D01*
X98778308Y-53857225D01*
X98793516Y-53787877D01*
X98811902Y-53763359D01*
X98819198Y-53758484D01*
X98824912Y-53749933D01*
X100131214Y-53749933D01*
X100131215Y-54250066D01*
X100138326Y-54285818D01*
X100142618Y-54307396D01*
X100145980Y-54324301D01*
X100152875Y-54334620D01*
X100152876Y-54334622D01*
X100192460Y-54393863D01*
X100202230Y-54408484D01*
X100286413Y-54464734D01*
X100360647Y-54479500D01*
X100735653Y-54479500D01*
X101110780Y-54479499D01*
X101146532Y-54472388D01*
X101172840Y-54467156D01*
X101172842Y-54467155D01*
X101185015Y-54464734D01*
X101195335Y-54457839D01*
X101195336Y-54457838D01*
X101258882Y-54415377D01*
X101269198Y-54408484D01*
X101274912Y-54399933D01*
X102131214Y-54399933D01*
X102131215Y-54900066D01*
X102145980Y-54974301D01*
X102202230Y-55058484D01*
X102286413Y-55114734D01*
X102360647Y-55129500D01*
X102735653Y-55129500D01*
X103110780Y-55129499D01*
X103146532Y-55122388D01*
X103172840Y-55117156D01*
X103172842Y-55117155D01*
X103185015Y-55114734D01*
X103195335Y-55107839D01*
X103195336Y-55107838D01*
X103258882Y-55065377D01*
X103269198Y-55058484D01*
X103325448Y-54974301D01*
X103340214Y-54900067D01*
X103340213Y-54399934D01*
X103325448Y-54325699D01*
X103269198Y-54241516D01*
X103185015Y-54185266D01*
X103110781Y-54170500D01*
X102735775Y-54170500D01*
X102360648Y-54170501D01*
X102324896Y-54177612D01*
X102298588Y-54182844D01*
X102298586Y-54182845D01*
X102286413Y-54185266D01*
X102276093Y-54192161D01*
X102276092Y-54192162D01*
X102215699Y-54232516D01*
X102202230Y-54241516D01*
X102145980Y-54325699D01*
X102131214Y-54399933D01*
X101274912Y-54399933D01*
X101325448Y-54324301D01*
X101340214Y-54250067D01*
X101340213Y-53749934D01*
X101325448Y-53675699D01*
X101269198Y-53591516D01*
X101185015Y-53535266D01*
X101110781Y-53520500D01*
X100735775Y-53520500D01*
X100360648Y-53520501D01*
X100324896Y-53527612D01*
X100298588Y-53532844D01*
X100298586Y-53532845D01*
X100286413Y-53535266D01*
X100276093Y-53542161D01*
X100276092Y-53542162D01*
X100215699Y-53582516D01*
X100202230Y-53591516D01*
X100145980Y-53675699D01*
X100131214Y-53749933D01*
X98824912Y-53749933D01*
X98875448Y-53674301D01*
X98890214Y-53600067D01*
X98890213Y-53099934D01*
X98890213Y-53099933D01*
X102131214Y-53099933D01*
X102131215Y-53600066D01*
X102145980Y-53674301D01*
X102202230Y-53758484D01*
X102286413Y-53814734D01*
X102360647Y-53829500D01*
X102735653Y-53829500D01*
X103110780Y-53829499D01*
X103150173Y-53821664D01*
X103172840Y-53817156D01*
X103172842Y-53817155D01*
X103185015Y-53814734D01*
X103195335Y-53807839D01*
X103195336Y-53807838D01*
X103258882Y-53765377D01*
X103269198Y-53758484D01*
X103325448Y-53674301D01*
X103340214Y-53600067D01*
X103340213Y-53099934D01*
X103325448Y-53025699D01*
X103269198Y-52941516D01*
X103185015Y-52885266D01*
X103110781Y-52870500D01*
X102735775Y-52870500D01*
X102360648Y-52870501D01*
X102324896Y-52877612D01*
X102298588Y-52882844D01*
X102298586Y-52882845D01*
X102286413Y-52885266D01*
X102276093Y-52892161D01*
X102276092Y-52892162D01*
X102215699Y-52932516D01*
X102202230Y-52941516D01*
X102145980Y-53025699D01*
X102131214Y-53099933D01*
X98890213Y-53099933D01*
X98875448Y-53025699D01*
X98819198Y-52941516D01*
X98735015Y-52885266D01*
X98669765Y-52872287D01*
X98664911Y-52869748D01*
X98654305Y-52870500D01*
X98277215Y-52870501D01*
X97910648Y-52870501D01*
X97874896Y-52877612D01*
X97848588Y-52882844D01*
X97848586Y-52882845D01*
X97836413Y-52885266D01*
X97826093Y-52892161D01*
X97826092Y-52892162D01*
X97765699Y-52932516D01*
X97752230Y-52941516D01*
X97695980Y-53025699D01*
X97681214Y-53099933D01*
X97681215Y-53600066D01*
X97695980Y-53674301D01*
X97752230Y-53758484D01*
X97758240Y-53762500D01*
X97790547Y-53821664D01*
X97785482Y-53892479D01*
X97742935Y-53949315D01*
X97711656Y-53966429D01*
X97697660Y-53971676D01*
X97682065Y-53980214D01*
X97579990Y-54056715D01*
X97567429Y-54069276D01*
X97490928Y-54171351D01*
X97482390Y-54186946D01*
X97437236Y-54307394D01*
X97433609Y-54322649D01*
X97428083Y-54373514D01*
X97427714Y-54380328D01*
X97427714Y-54406885D01*
X96820266Y-54406885D01*
X96875448Y-54324301D01*
X96890214Y-54250067D01*
X96890213Y-53749934D01*
X96875448Y-53675699D01*
X96819198Y-53591516D01*
X96735015Y-53535266D01*
X96660781Y-53520500D01*
X96285775Y-53520500D01*
X95910648Y-53520501D01*
X95874896Y-53527612D01*
X95848588Y-53532844D01*
X95848586Y-53532845D01*
X95836413Y-53535266D01*
X95826093Y-53542161D01*
X95826092Y-53542162D01*
X95765699Y-53582516D01*
X95752230Y-53591516D01*
X95695980Y-53675699D01*
X95681214Y-53749933D01*
X93654000Y-53749933D01*
X93654000Y-52162095D01*
X94892001Y-52162095D01*
X94892338Y-52168614D01*
X94902257Y-52264206D01*
X94905149Y-52277600D01*
X94956588Y-52431784D01*
X94962761Y-52444962D01*
X95048063Y-52582807D01*
X95057099Y-52594208D01*
X95171829Y-52708739D01*
X95183240Y-52717751D01*
X95321243Y-52802816D01*
X95334424Y-52808963D01*
X95488710Y-52860138D01*
X95502086Y-52863005D01*
X95596438Y-52872672D01*
X95602854Y-52873000D01*
X95977885Y-52873000D01*
X95993124Y-52868525D01*
X95994329Y-52867135D01*
X95996000Y-52859452D01*
X95996000Y-52854884D01*
X96504000Y-52854884D01*
X96508475Y-52870123D01*
X96509865Y-52871328D01*
X96517548Y-52872999D01*
X96897095Y-52872999D01*
X96903614Y-52872662D01*
X96999206Y-52862743D01*
X97012600Y-52859851D01*
X97166784Y-52808412D01*
X97179962Y-52802239D01*
X97317807Y-52716937D01*
X97329208Y-52707901D01*
X97443739Y-52593171D01*
X97452751Y-52581760D01*
X97537816Y-52443757D01*
X97543963Y-52430576D01*
X97595138Y-52276290D01*
X97598005Y-52262914D01*
X97604869Y-52195919D01*
X97631710Y-52130192D01*
X97689824Y-52089410D01*
X97760762Y-52086520D01*
X97822001Y-52122442D01*
X97829299Y-52130928D01*
X97946514Y-52280149D01*
X97951044Y-52284080D01*
X97951045Y-52284081D01*
X98101165Y-52414350D01*
X98101170Y-52414354D01*
X98105696Y-52418281D01*
X98288126Y-52523819D01*
X98487222Y-52592957D01*
X98493155Y-52593817D01*
X98493158Y-52593818D01*
X98672385Y-52619804D01*
X98681342Y-52623908D01*
X98683115Y-52623210D01*
X98694312Y-52622983D01*
X98695800Y-52623199D01*
X98906333Y-52613455D01*
X98912157Y-52612051D01*
X98912160Y-52612051D01*
X99105393Y-52565482D01*
X99105395Y-52565481D01*
X99111226Y-52564076D01*
X99116684Y-52561594D01*
X99116688Y-52561593D01*
X99231294Y-52509484D01*
X99303084Y-52476843D01*
X99474986Y-52354904D01*
X99620728Y-52202660D01*
X99677710Y-52114410D01*
X99731800Y-52030640D01*
X99731801Y-52030637D01*
X99735052Y-52025603D01*
X99813834Y-51830122D01*
X99854229Y-51623271D01*
X99854500Y-51617730D01*
X99854500Y-51567659D01*
X100145500Y-51567659D01*
X100160493Y-51724806D01*
X100219823Y-51927042D01*
X100222573Y-51932381D01*
X100301960Y-52086520D01*
X100316324Y-52114410D01*
X100328721Y-52130192D01*
X100442808Y-52275432D01*
X100442812Y-52275436D01*
X100446514Y-52280149D01*
X100451044Y-52284080D01*
X100451045Y-52284081D01*
X100601165Y-52414350D01*
X100601170Y-52414354D01*
X100605696Y-52418281D01*
X100788126Y-52523819D01*
X100987222Y-52592957D01*
X100993155Y-52593817D01*
X100993158Y-52593818D01*
X101189860Y-52622338D01*
X101189863Y-52622338D01*
X101195800Y-52623199D01*
X101406333Y-52613455D01*
X101412157Y-52612051D01*
X101412160Y-52612051D01*
X101605393Y-52565482D01*
X101605395Y-52565481D01*
X101611226Y-52564076D01*
X101616684Y-52561594D01*
X101616688Y-52561593D01*
X101731294Y-52509484D01*
X101803084Y-52476843D01*
X101974986Y-52354904D01*
X102120728Y-52202660D01*
X102177710Y-52114410D01*
X102231800Y-52030640D01*
X102231801Y-52030637D01*
X102235052Y-52025603D01*
X102313834Y-51830122D01*
X102354229Y-51623271D01*
X102354500Y-51617730D01*
X102354500Y-51567659D01*
X102645500Y-51567659D01*
X102660493Y-51724806D01*
X102719823Y-51927042D01*
X102722573Y-51932381D01*
X102801960Y-52086520D01*
X102816324Y-52114410D01*
X102828721Y-52130192D01*
X102942808Y-52275432D01*
X102942812Y-52275436D01*
X102946514Y-52280149D01*
X102951044Y-52284080D01*
X102951045Y-52284081D01*
X103101165Y-52414350D01*
X103101170Y-52414354D01*
X103105696Y-52418281D01*
X103288126Y-52523819D01*
X103487222Y-52592957D01*
X103493155Y-52593817D01*
X103493158Y-52593818D01*
X103689860Y-52622338D01*
X103689863Y-52622338D01*
X103695800Y-52623199D01*
X103906333Y-52613455D01*
X103912157Y-52612051D01*
X103912160Y-52612051D01*
X104105393Y-52565482D01*
X104105395Y-52565481D01*
X104111226Y-52564076D01*
X104116684Y-52561594D01*
X104116688Y-52561593D01*
X104231294Y-52509484D01*
X104303084Y-52476843D01*
X104474986Y-52354904D01*
X104620728Y-52202660D01*
X104677710Y-52114410D01*
X104731800Y-52030640D01*
X104731801Y-52030637D01*
X104735052Y-52025603D01*
X104813834Y-51830122D01*
X104854229Y-51623271D01*
X104854500Y-51617730D01*
X104854500Y-51312341D01*
X104839507Y-51155194D01*
X104780177Y-50952958D01*
X104729415Y-50854397D01*
X104686422Y-50770921D01*
X104686420Y-50770918D01*
X104683676Y-50765590D01*
X104614355Y-50677340D01*
X104557192Y-50604568D01*
X104557188Y-50604564D01*
X104553486Y-50599851D01*
X104548955Y-50595919D01*
X104398835Y-50465650D01*
X104398830Y-50465646D01*
X104394304Y-50461719D01*
X104211874Y-50356181D01*
X104012778Y-50287043D01*
X104006845Y-50286183D01*
X104006842Y-50286182D01*
X103810140Y-50257662D01*
X103810137Y-50257662D01*
X103804200Y-50256801D01*
X103593667Y-50266545D01*
X103587843Y-50267949D01*
X103587840Y-50267949D01*
X103394607Y-50314518D01*
X103394605Y-50314519D01*
X103388774Y-50315924D01*
X103383316Y-50318406D01*
X103383312Y-50318407D01*
X103314956Y-50349487D01*
X103196916Y-50403157D01*
X103025014Y-50525096D01*
X102879272Y-50677340D01*
X102876021Y-50682375D01*
X102818848Y-50770921D01*
X102764948Y-50854397D01*
X102686166Y-51049878D01*
X102645771Y-51256729D01*
X102645500Y-51262270D01*
X102645500Y-51567659D01*
X102354500Y-51567659D01*
X102354500Y-51312341D01*
X102339507Y-51155194D01*
X102280177Y-50952958D01*
X102229415Y-50854397D01*
X102186422Y-50770921D01*
X102186420Y-50770918D01*
X102183676Y-50765590D01*
X102114355Y-50677340D01*
X102057192Y-50604568D01*
X102057188Y-50604564D01*
X102053486Y-50599851D01*
X102048955Y-50595919D01*
X101898835Y-50465650D01*
X101898830Y-50465646D01*
X101894304Y-50461719D01*
X101711874Y-50356181D01*
X101512778Y-50287043D01*
X101506845Y-50286183D01*
X101506842Y-50286182D01*
X101310140Y-50257662D01*
X101310137Y-50257662D01*
X101304200Y-50256801D01*
X101093667Y-50266545D01*
X101087843Y-50267949D01*
X101087840Y-50267949D01*
X100894607Y-50314518D01*
X100894605Y-50314519D01*
X100888774Y-50315924D01*
X100883316Y-50318406D01*
X100883312Y-50318407D01*
X100814956Y-50349487D01*
X100696916Y-50403157D01*
X100525014Y-50525096D01*
X100379272Y-50677340D01*
X100376021Y-50682375D01*
X100318848Y-50770921D01*
X100264948Y-50854397D01*
X100186166Y-51049878D01*
X100145771Y-51256729D01*
X100145500Y-51262270D01*
X100145500Y-51567659D01*
X99854500Y-51567659D01*
X99854500Y-51312341D01*
X99839507Y-51155194D01*
X99780177Y-50952958D01*
X99729415Y-50854397D01*
X99686422Y-50770921D01*
X99686420Y-50770918D01*
X99683676Y-50765590D01*
X99614355Y-50677340D01*
X99557192Y-50604568D01*
X99557188Y-50604564D01*
X99553486Y-50599851D01*
X99548955Y-50595919D01*
X99398835Y-50465650D01*
X99398830Y-50465646D01*
X99394304Y-50461719D01*
X99211874Y-50356181D01*
X99012778Y-50287043D01*
X99006845Y-50286183D01*
X99006842Y-50286182D01*
X98810140Y-50257662D01*
X98810137Y-50257662D01*
X98804200Y-50256801D01*
X98593667Y-50266545D01*
X98587843Y-50267949D01*
X98587840Y-50267949D01*
X98394607Y-50314518D01*
X98394605Y-50314519D01*
X98388774Y-50315924D01*
X98383316Y-50318406D01*
X98383312Y-50318407D01*
X98314956Y-50349487D01*
X98196916Y-50403157D01*
X98025014Y-50525096D01*
X97879272Y-50677340D01*
X97876021Y-50682375D01*
X97836447Y-50743664D01*
X97782692Y-50790042D01*
X97712396Y-50799995D01*
X97647879Y-50770363D01*
X97609623Y-50710555D01*
X97605268Y-50688319D01*
X97597743Y-50615794D01*
X97594851Y-50602400D01*
X97543412Y-50448216D01*
X97537239Y-50435038D01*
X97451937Y-50297193D01*
X97442901Y-50285792D01*
X97328171Y-50171261D01*
X97316760Y-50162249D01*
X97178757Y-50077184D01*
X97165576Y-50071037D01*
X97011290Y-50019862D01*
X96997914Y-50016995D01*
X96903562Y-50007328D01*
X96897145Y-50007000D01*
X96522115Y-50007000D01*
X96506876Y-50011475D01*
X96505671Y-50012865D01*
X96504000Y-50020548D01*
X96504000Y-52854884D01*
X95996000Y-52854884D01*
X95996000Y-51712115D01*
X95991525Y-51696876D01*
X95990135Y-51695671D01*
X95982452Y-51694000D01*
X94972115Y-51694000D01*
X94956876Y-51698475D01*
X94955671Y-51699865D01*
X94954000Y-51707548D01*
X94954000Y-51915792D01*
X94933998Y-51983913D01*
X94917549Y-51998166D01*
X94919105Y-51999514D01*
X94893672Y-52028865D01*
X94892001Y-52036548D01*
X94892001Y-52162095D01*
X93654000Y-52162095D01*
X93654000Y-51809502D01*
X93674002Y-51741381D01*
X93727658Y-51694888D01*
X93797932Y-51684784D01*
X93862512Y-51714278D01*
X93869095Y-51720407D01*
X93979557Y-51830869D01*
X93991426Y-51840176D01*
X94125012Y-51921079D01*
X94138757Y-51927285D01*
X94288644Y-51974256D01*
X94301694Y-51976869D01*
X94365521Y-51982734D01*
X94371309Y-51983000D01*
X94427885Y-51983000D01*
X94443124Y-51978525D01*
X94444329Y-51977135D01*
X94446000Y-51969452D01*
X94446000Y-50947000D01*
X94466002Y-50878879D01*
X94519658Y-50832386D01*
X94572000Y-50821000D01*
X94828000Y-50821000D01*
X94896121Y-50841002D01*
X94942614Y-50894658D01*
X94954000Y-50947000D01*
X94954000Y-51167885D01*
X94958475Y-51183124D01*
X94959865Y-51184329D01*
X94967548Y-51186000D01*
X95977885Y-51186000D01*
X95993124Y-51181525D01*
X95994329Y-51180135D01*
X95996000Y-51172452D01*
X95996000Y-50025116D01*
X95991525Y-50009877D01*
X95990135Y-50008672D01*
X95982452Y-50007001D01*
X95602905Y-50007001D01*
X95596388Y-50007338D01*
X95546323Y-50012533D01*
X95476501Y-49999668D01*
X95424719Y-49951097D01*
X95407417Y-49882242D01*
X95414437Y-49845457D01*
X95423948Y-49818374D01*
X95426493Y-49811127D01*
X95429500Y-49779315D01*
X95429499Y-49270686D01*
X95426493Y-49238873D01*
X95381209Y-49109924D01*
X95300010Y-48999990D01*
X95190076Y-48918791D01*
X95061127Y-48873507D01*
X95053485Y-48872785D01*
X95053482Y-48872784D01*
X95038579Y-48871376D01*
X95029315Y-48870500D01*
X94700223Y-48870500D01*
X94370686Y-48870501D01*
X94367738Y-48870780D01*
X94367729Y-48870780D01*
X94346522Y-48872784D01*
X94346520Y-48872784D01*
X94338873Y-48873507D01*
X94209924Y-48918791D01*
X94099990Y-48999990D01*
X94018791Y-49109924D01*
X93973507Y-49238873D01*
X93970500Y-49270685D01*
X93970501Y-49779314D01*
X93973507Y-49811127D01*
X94018791Y-49940076D01*
X94099990Y-50050010D01*
X94107561Y-50055602D01*
X94108461Y-50056502D01*
X94142487Y-50118814D01*
X94137422Y-50189629D01*
X94094875Y-50246465D01*
X94084637Y-50253373D01*
X93991429Y-50309821D01*
X93979557Y-50319131D01*
X93869095Y-50429593D01*
X93806783Y-50463619D01*
X93735968Y-50458554D01*
X93679132Y-50416007D01*
X93654321Y-50349487D01*
X93654000Y-50340498D01*
X93654000Y-47217233D01*
X93674002Y-47149112D01*
X93727658Y-47102619D01*
X93797932Y-47092515D01*
X93806796Y-47094609D01*
X93806886Y-47094190D01*
X93813613Y-47095632D01*
X93820139Y-47097797D01*
X93826975Y-47098497D01*
X93826978Y-47098498D01*
X93870031Y-47102909D01*
X93924600Y-47108500D01*
X94794500Y-47108500D01*
X94862621Y-47128502D01*
X94909114Y-47182158D01*
X94920500Y-47234500D01*
X94920501Y-47529314D01*
X94923507Y-47561127D01*
X94968791Y-47690076D01*
X95049990Y-47800010D01*
X95159924Y-47881209D01*
X95288873Y-47926493D01*
X95296515Y-47927215D01*
X95296518Y-47927216D01*
X95311421Y-47928624D01*
X95320685Y-47929500D01*
X95574828Y-47929500D01*
X95829314Y-47929499D01*
X95832262Y-47929220D01*
X95832271Y-47929220D01*
X95853478Y-47927216D01*
X95853480Y-47927216D01*
X95861127Y-47926493D01*
X95990076Y-47881209D01*
X96100010Y-47800010D01*
X96181209Y-47690076D01*
X96226493Y-47561127D01*
X96229500Y-47529315D01*
X96229499Y-46989678D01*
X96249501Y-46921558D01*
X96303156Y-46875065D01*
X96355499Y-46863679D01*
X96444500Y-46863679D01*
X96512621Y-46883681D01*
X96559114Y-46937337D01*
X96570500Y-46989679D01*
X96570501Y-47454000D01*
X96570501Y-47529314D01*
X96573507Y-47561127D01*
X96618791Y-47690076D01*
X96699990Y-47800010D01*
X96809924Y-47881209D01*
X96938873Y-47926493D01*
X96946515Y-47927215D01*
X96946518Y-47927216D01*
X96961421Y-47928624D01*
X96970685Y-47929500D01*
X97224828Y-47929500D01*
X97479314Y-47929499D01*
X97482262Y-47929220D01*
X97482271Y-47929220D01*
X97503478Y-47927216D01*
X97503480Y-47927216D01*
X97511127Y-47926493D01*
X97640076Y-47881209D01*
X97750010Y-47800010D01*
X97752338Y-47803162D01*
X97798217Y-47778110D01*
X97869032Y-47783175D01*
X97898457Y-47802086D01*
X97899990Y-47800010D01*
X98009924Y-47881209D01*
X98138873Y-47926493D01*
X98146515Y-47927215D01*
X98146518Y-47927216D01*
X98161421Y-47928624D01*
X98170685Y-47929500D01*
X98424828Y-47929500D01*
X98679314Y-47929499D01*
X98682262Y-47929220D01*
X98682271Y-47929220D01*
X98703478Y-47927216D01*
X98703480Y-47927216D01*
X98711127Y-47926493D01*
X98840076Y-47881209D01*
X98950010Y-47800010D01*
X98955602Y-47792439D01*
X98956502Y-47791539D01*
X99018814Y-47757513D01*
X99089629Y-47762578D01*
X99146465Y-47805125D01*
X99153373Y-47815363D01*
X99209821Y-47908571D01*
X99219131Y-47920443D01*
X99329557Y-48030869D01*
X99341426Y-48040176D01*
X99475012Y-48121079D01*
X99488757Y-48127285D01*
X99638644Y-48174256D01*
X99651694Y-48176869D01*
X99706586Y-48181913D01*
X99718124Y-48178525D01*
X99719329Y-48177135D01*
X99721000Y-48169452D01*
X99721000Y-48164884D01*
X100229000Y-48164884D01*
X100233475Y-48180123D01*
X100234865Y-48181328D01*
X100239294Y-48182291D01*
X100298315Y-48176868D01*
X100311351Y-48174257D01*
X100461243Y-48127285D01*
X100474988Y-48121079D01*
X100608574Y-48040176D01*
X100620443Y-48030869D01*
X100730869Y-47920443D01*
X100740176Y-47908574D01*
X100821079Y-47774988D01*
X100827285Y-47761243D01*
X100874256Y-47611356D01*
X100876869Y-47598306D01*
X100882734Y-47534479D01*
X100883000Y-47528691D01*
X100883000Y-47472115D01*
X100878525Y-47456876D01*
X100877135Y-47455671D01*
X100869452Y-47454000D01*
X100247115Y-47454000D01*
X100231876Y-47458475D01*
X100230671Y-47459865D01*
X100229000Y-47467548D01*
X100229000Y-48164884D01*
X99721000Y-48164884D01*
X99721000Y-47154436D01*
X99741002Y-47086315D01*
X99794658Y-47039822D01*
X99864932Y-47029718D01*
X99898261Y-47039649D01*
X99902262Y-47042115D01*
X99909207Y-47044418D01*
X99909210Y-47044420D01*
X100063611Y-47095632D01*
X100063613Y-47095632D01*
X100070139Y-47097797D01*
X100076975Y-47098497D01*
X100076978Y-47098498D01*
X100120031Y-47102909D01*
X100174600Y-47108500D01*
X101225400Y-47108500D01*
X101228646Y-47108163D01*
X101228650Y-47108163D01*
X101324308Y-47098238D01*
X101324312Y-47098237D01*
X101331166Y-47097526D01*
X101337702Y-47095345D01*
X101337704Y-47095345D01*
X101469806Y-47051272D01*
X101498946Y-47041550D01*
X101649348Y-46948478D01*
X101774305Y-46823303D01*
X101867115Y-46672738D01*
X101922797Y-46504861D01*
X101933500Y-46400400D01*
X101933500Y-46176747D01*
X101953502Y-46108626D01*
X102007158Y-46062133D01*
X102077432Y-46052029D01*
X102134359Y-46075396D01*
X102209924Y-46131209D01*
X102338873Y-46176493D01*
X102346515Y-46177215D01*
X102346518Y-46177216D01*
X102361421Y-46178624D01*
X102370685Y-46179500D01*
X102699777Y-46179500D01*
X103029314Y-46179499D01*
X103032262Y-46179220D01*
X103032271Y-46179220D01*
X103053478Y-46177216D01*
X103053480Y-46177216D01*
X103061127Y-46176493D01*
X103190076Y-46131209D01*
X103300010Y-46050010D01*
X103381209Y-45940076D01*
X103426493Y-45811127D01*
X103429500Y-45779315D01*
X103429499Y-45270686D01*
X103428856Y-45263873D01*
X103427216Y-45246522D01*
X103427215Y-45246518D01*
X103426493Y-45238873D01*
X103381209Y-45109924D01*
X103300010Y-44999990D01*
X103190076Y-44918791D01*
X103061127Y-44873507D01*
X103053485Y-44872785D01*
X103053482Y-44872784D01*
X103038579Y-44871376D01*
X103029315Y-44870500D01*
X102700223Y-44870500D01*
X102370686Y-44870501D01*
X102367738Y-44870780D01*
X102367729Y-44870780D01*
X102346522Y-44872784D01*
X102346520Y-44872784D01*
X102338873Y-44873507D01*
X102209924Y-44918791D01*
X102099990Y-44999990D01*
X102018791Y-45109924D01*
X101973507Y-45238873D01*
X101972785Y-45246515D01*
X101972784Y-45246518D01*
X101971901Y-45255866D01*
X101970500Y-45270685D01*
X101970500Y-45273652D01*
X101970458Y-45274542D01*
X101947272Y-45341646D01*
X101891488Y-45385562D01*
X101820816Y-45392347D01*
X101755580Y-45357785D01*
X101653483Y-45255866D01*
X101648303Y-45250695D01*
X101629124Y-45238873D01*
X101503968Y-45161725D01*
X101503966Y-45161724D01*
X101497738Y-45157885D01*
X101379936Y-45118812D01*
X101344680Y-45107118D01*
X101286320Y-45066687D01*
X101259083Y-45001123D01*
X101271616Y-44931242D01*
X101319941Y-44879230D01*
X101342599Y-44868642D01*
X101379302Y-44855753D01*
X101379301Y-44855753D01*
X101388184Y-44852634D01*
X101395754Y-44847042D01*
X101395757Y-44847041D01*
X101489579Y-44777742D01*
X101497150Y-44772150D01*
X101515147Y-44747784D01*
X101572041Y-44670757D01*
X101572042Y-44670754D01*
X101577634Y-44663184D01*
X101622519Y-44535369D01*
X101625500Y-44503834D01*
X101625500Y-43896166D01*
X101622519Y-43864631D01*
X101577634Y-43736816D01*
X101572042Y-43729246D01*
X101572041Y-43729243D01*
X101502742Y-43635421D01*
X101497150Y-43627850D01*
X101429972Y-43578231D01*
X101395757Y-43552959D01*
X101395754Y-43552958D01*
X101388184Y-43547366D01*
X101379302Y-43544247D01*
X101370973Y-43539837D01*
X101372347Y-43537241D01*
X101327111Y-43504723D01*
X101301018Y-43438695D01*
X101300500Y-43427278D01*
X101300500Y-43394160D01*
X101320502Y-43326039D01*
X101374158Y-43279546D01*
X101444432Y-43269442D01*
X101470729Y-43276178D01*
X101588581Y-43320358D01*
X101588582Y-43320358D01*
X101595976Y-43323130D01*
X101603826Y-43323983D01*
X101603827Y-43323983D01*
X101651214Y-43329131D01*
X101654611Y-43329500D01*
X101886801Y-43329500D01*
X101954922Y-43349502D01*
X102001415Y-43403158D01*
X102011519Y-43473432D01*
X102005686Y-43497242D01*
X101973507Y-43588873D01*
X101970500Y-43620685D01*
X101970501Y-44129314D01*
X101973507Y-44161127D01*
X102018791Y-44290076D01*
X102099990Y-44400010D01*
X102209924Y-44481209D01*
X102338873Y-44526493D01*
X102346515Y-44527215D01*
X102346518Y-44527216D01*
X102361421Y-44528624D01*
X102370685Y-44529500D01*
X102699777Y-44529500D01*
X103029314Y-44529499D01*
X103032262Y-44529220D01*
X103032271Y-44529220D01*
X103053478Y-44527216D01*
X103053480Y-44527216D01*
X103061127Y-44526493D01*
X103190076Y-44481209D01*
X103300010Y-44400010D01*
X103381209Y-44290076D01*
X103426493Y-44161127D01*
X103429500Y-44129315D01*
X103429499Y-43620686D01*
X103428856Y-43613873D01*
X103427216Y-43596522D01*
X103427215Y-43596518D01*
X103426493Y-43588873D01*
X103381209Y-43459924D01*
X103300010Y-43349990D01*
X103190076Y-43268791D01*
X103061127Y-43223507D01*
X103053485Y-43222785D01*
X103053482Y-43222784D01*
X103038579Y-43221376D01*
X103029315Y-43220500D01*
X103023169Y-43220500D01*
X102755029Y-43220501D01*
X102686911Y-43200499D01*
X102640418Y-43146844D01*
X102630313Y-43076570D01*
X102637049Y-43050272D01*
X102670358Y-42961419D01*
X102670358Y-42961418D01*
X102673130Y-42954024D01*
X102679500Y-42895389D01*
X102679499Y-42354612D01*
X102673130Y-42295976D01*
X102624917Y-42167365D01*
X102619537Y-42160186D01*
X102619535Y-42160183D01*
X102547923Y-42064633D01*
X102542544Y-42057456D01*
X102510512Y-42033449D01*
X102439817Y-41980465D01*
X102439814Y-41980463D01*
X102432635Y-41975083D01*
X102413693Y-41967982D01*
X102356928Y-41925341D01*
X102332228Y-41858779D01*
X102339650Y-41824933D01*
X103345500Y-41824933D01*
X103345501Y-42375066D01*
X103360266Y-42449301D01*
X103416516Y-42533484D01*
X103500699Y-42589734D01*
X103574933Y-42604500D01*
X104024927Y-42604500D01*
X104475066Y-42604499D01*
X104510818Y-42597388D01*
X104537126Y-42592156D01*
X104537128Y-42592155D01*
X104549301Y-42589734D01*
X104559621Y-42582839D01*
X104559622Y-42582838D01*
X104623168Y-42540377D01*
X104633484Y-42533484D01*
X104689734Y-42449301D01*
X104704500Y-42375067D01*
X104704499Y-41824934D01*
X104696465Y-41784543D01*
X104692156Y-41762874D01*
X104692155Y-41762872D01*
X104689734Y-41750699D01*
X104635812Y-41670000D01*
X104614598Y-41602250D01*
X104635812Y-41530000D01*
X104689734Y-41449301D01*
X104704500Y-41375067D01*
X104704499Y-40824934D01*
X104689734Y-40750699D01*
X104633484Y-40666516D01*
X104549301Y-40610266D01*
X104475067Y-40595500D01*
X104025073Y-40595500D01*
X103574934Y-40595501D01*
X103539182Y-40602612D01*
X103512874Y-40607844D01*
X103512872Y-40607845D01*
X103500699Y-40610266D01*
X103490379Y-40617161D01*
X103490378Y-40617162D01*
X103429985Y-40657516D01*
X103416516Y-40666516D01*
X103360266Y-40750699D01*
X103345500Y-40824933D01*
X103345501Y-41375066D01*
X103360266Y-41449301D01*
X103414188Y-41530000D01*
X103435402Y-41597750D01*
X103414188Y-41670000D01*
X103360266Y-41750699D01*
X103345500Y-41824933D01*
X102339650Y-41824933D01*
X102347435Y-41789430D01*
X102397721Y-41739312D01*
X102413693Y-41732018D01*
X102417793Y-41730481D01*
X102432635Y-41724917D01*
X102439814Y-41719537D01*
X102439817Y-41719535D01*
X102535367Y-41647923D01*
X102542544Y-41642544D01*
X102572743Y-41602250D01*
X102619535Y-41539817D01*
X102619537Y-41539814D01*
X102624917Y-41532635D01*
X102628068Y-41524230D01*
X102670358Y-41411419D01*
X102670358Y-41411418D01*
X102673130Y-41404024D01*
X102679500Y-41345389D01*
X102679499Y-40804612D01*
X102679130Y-40801212D01*
X102673984Y-40753834D01*
X102673983Y-40753830D01*
X102673130Y-40745976D01*
X102624917Y-40617365D01*
X102619537Y-40610186D01*
X102619535Y-40610183D01*
X102547923Y-40514633D01*
X102542544Y-40507456D01*
X102535367Y-40502077D01*
X102535365Y-40502075D01*
X102445236Y-40434527D01*
X102402721Y-40377668D01*
X102397695Y-40306849D01*
X102431706Y-40244606D01*
X102455869Y-40220443D01*
X102465176Y-40208574D01*
X102546079Y-40074988D01*
X102555409Y-40054323D01*
X102557856Y-40055428D01*
X102590245Y-40006963D01*
X102655345Y-39978633D01*
X102725426Y-39989996D01*
X102772387Y-40028792D01*
X102824990Y-40100010D01*
X102934924Y-40181209D01*
X103063873Y-40226493D01*
X103071515Y-40227215D01*
X103071518Y-40227216D01*
X103086421Y-40228624D01*
X103095685Y-40229500D01*
X103349828Y-40229500D01*
X103604314Y-40229499D01*
X103607262Y-40229220D01*
X103607271Y-40229220D01*
X103628477Y-40227216D01*
X103628478Y-40227216D01*
X103636127Y-40226493D01*
X103643370Y-40223949D01*
X103643381Y-40223947D01*
X103720751Y-40196776D01*
X103791651Y-40193077D01*
X103804249Y-40196776D01*
X103881623Y-40223948D01*
X103881631Y-40223950D01*
X103888873Y-40226493D01*
X103896513Y-40227215D01*
X103896517Y-40227216D01*
X103912396Y-40228717D01*
X103920685Y-40229500D01*
X104174828Y-40229500D01*
X104429314Y-40229499D01*
X104432262Y-40229220D01*
X104432271Y-40229220D01*
X104453478Y-40227216D01*
X104453480Y-40227216D01*
X104461127Y-40226493D01*
X104590076Y-40181209D01*
X104700010Y-40100010D01*
X104781209Y-39990076D01*
X104826493Y-39861127D01*
X104829500Y-39829315D01*
X104829499Y-39170686D01*
X104826493Y-39138873D01*
X104785361Y-39021747D01*
X104781663Y-38950848D01*
X104816883Y-38889204D01*
X104879839Y-38856386D01*
X104904244Y-38854000D01*
X105095756Y-38854000D01*
X105163877Y-38874002D01*
G37*
%TD.AperFunction*%
%TD*%
M02*
