%TF.GenerationSoftware,KiCad,Pcbnew,(6.0.9-0)*%
%TF.CreationDate,2023-01-05T14:31:28+00:00*%
%TF.ProjectId,Daikin,4461696b-696e-42e6-9b69-6361645f7063,1*%
%TF.SameCoordinates,Original*%
%TF.FileFunction,Soldermask,Top*%
%TF.FilePolarity,Negative*%
%FSLAX46Y46*%
G04 Gerber Fmt 4.6, Leading zero omitted, Abs format (unit mm)*
G04 Created by KiCad (PCBNEW (6.0.9-0)) date 2023-01-05 14:31:28*
%MOMM*%
%LPD*%
G01*
G04 APERTURE LIST*
G04 Aperture macros list*
%AMRoundRect*
0 Rectangle with rounded corners*
0 $1 Rounding radius*
0 $2 $3 $4 $5 $6 $7 $8 $9 X,Y pos of 4 corners*
0 Add a 4 corners polygon primitive as box body*
4,1,4,$2,$3,$4,$5,$6,$7,$8,$9,$2,$3,0*
0 Add four circle primitives for the rounded corners*
1,1,$1+$1,$2,$3*
1,1,$1+$1,$4,$5*
1,1,$1+$1,$6,$7*
1,1,$1+$1,$8,$9*
0 Add four rect primitives between the rounded corners*
20,1,$1+$1,$2,$3,$4,$5,0*
20,1,$1+$1,$4,$5,$6,$7,0*
20,1,$1+$1,$6,$7,$8,$9,0*
20,1,$1+$1,$8,$9,$2,$3,0*%
%AMFreePoly0*
4,1,14,0.732071,0.732071,0.735000,0.725000,0.735000,-0.725000,0.732071,-0.732071,0.725000,-0.735000,-0.725000,-0.735000,-0.732071,-0.732071,-0.735000,-0.725000,-0.735000,0.130500,-0.732071,0.137571,-0.137571,0.732071,-0.130500,0.735000,0.725000,0.735000,0.732071,0.732071,0.732071,0.732071,$1*%
%AMFreePoly1*
4,1,14,0.857071,0.857071,0.860000,0.850000,0.860000,-0.850000,0.857071,-0.857071,0.850000,-0.860000,-0.340000,-0.860000,-0.347071,-0.857071,-0.857071,-0.347071,-0.860000,-0.340000,-0.860000,0.850000,-0.857071,0.857071,-0.850000,0.860000,0.850000,0.860000,0.857071,0.857071,0.857071,0.857071,$1*%
G04 Aperture macros list end*
%ADD10RoundRect,0.010000X-0.400000X-0.200000X0.400000X-0.200000X0.400000X0.200000X-0.400000X0.200000X0*%
%ADD11RoundRect,0.010000X-0.200000X-0.400000X0.200000X-0.400000X0.200000X0.400000X-0.200000X0.400000X0*%
%ADD12RoundRect,0.010000X-0.725000X-0.725000X0.725000X-0.725000X0.725000X0.725000X-0.725000X0.725000X0*%
%ADD13FreePoly0,0.000000*%
%ADD14RoundRect,0.010000X-0.350000X-0.350000X0.350000X-0.350000X0.350000X0.350000X-0.350000X0.350000X0*%
%ADD15RoundRect,0.260000X-0.600000X-0.675000X0.600000X-0.675000X0.600000X0.675000X-0.600000X0.675000X0*%
%ADD16O,1.720000X1.870000*%
%ADD17FreePoly1,0.000000*%
%ADD18O,1.720000X1.720000*%
G04 APERTURE END LIST*
D10*
%TO.C,U1*%
X93900000Y-40093250D03*
X93900000Y-40893250D03*
X93900000Y-41693250D03*
X93900000Y-42493250D03*
X93900000Y-43293250D03*
X93900000Y-44093250D03*
X93900000Y-44893250D03*
X93900000Y-45693250D03*
X93900000Y-46493250D03*
X93900000Y-47293250D03*
X93900000Y-48093250D03*
D11*
X95000000Y-48993250D03*
X95800000Y-48993250D03*
X96600000Y-48993250D03*
X97400000Y-48993250D03*
X98200000Y-48993250D03*
X99000000Y-48993250D03*
X99800000Y-48993250D03*
X100600000Y-48993250D03*
X101400000Y-48993250D03*
X102200000Y-48993250D03*
X103000000Y-48993250D03*
X103800000Y-48993250D03*
X104600000Y-48993250D03*
D10*
X105700000Y-48093250D03*
X105700000Y-47293250D03*
X105700000Y-46493250D03*
X105700000Y-45693250D03*
X105700000Y-44893250D03*
X105700000Y-44093250D03*
X105700000Y-43293250D03*
X105700000Y-42493250D03*
X105700000Y-41693250D03*
X105700000Y-40893250D03*
X105700000Y-40093250D03*
D11*
X104600000Y-39193250D03*
X103800000Y-39193250D03*
X103000000Y-39193250D03*
X102200000Y-39193250D03*
X101400000Y-39193250D03*
X100600000Y-39193250D03*
X99800000Y-39193250D03*
X99000000Y-39193250D03*
X98200000Y-39193250D03*
X97400000Y-39193250D03*
X96600000Y-39193250D03*
X95800000Y-39193250D03*
X95000000Y-39193250D03*
D12*
X97825000Y-46068250D03*
X101775000Y-44093250D03*
X97825000Y-44093250D03*
X99800000Y-44093250D03*
X101775000Y-42118250D03*
X99800000Y-46068250D03*
D13*
X97825000Y-42118250D03*
D12*
X99800000Y-42118250D03*
X101775000Y-46068250D03*
D14*
X105750000Y-39143250D03*
X105750000Y-49043250D03*
X93850000Y-49043250D03*
X93850000Y-39143250D03*
%TD*%
D15*
%TO.C,J1*%
X96050000Y-51400000D03*
D16*
X98550000Y-51400000D03*
X101050000Y-51400000D03*
X103550000Y-51400000D03*
%TD*%
D17*
%TO.C,J2*%
X104880000Y-56300000D03*
D18*
X102340000Y-56300000D03*
X99800000Y-56300000D03*
X97260000Y-56300000D03*
X94720000Y-56300000D03*
%TD*%
M02*
