%TF.GenerationSoftware,KiCad,Pcbnew,(6.0.2-0)*%
%TF.CreationDate,2022-04-04T13:28:19+01:00*%
%TF.ProjectId,Daikin,4461696b-696e-42e6-9b69-6361645f7063,1*%
%TF.SameCoordinates,Original*%
%TF.FileFunction,Soldermask,Top*%
%TF.FilePolarity,Negative*%
%FSLAX46Y46*%
G04 Gerber Fmt 4.6, Leading zero omitted, Abs format (unit mm)*
G04 Created by KiCad (PCBNEW (6.0.2-0)) date 2022-04-04 13:28:19*
%MOMM*%
%LPD*%
G01*
G04 APERTURE LIST*
G04 Aperture macros list*
%AMRoundRect*
0 Rectangle with rounded corners*
0 $1 Rounding radius*
0 $2 $3 $4 $5 $6 $7 $8 $9 X,Y pos of 4 corners*
0 Add a 4 corners polygon primitive as box body*
4,1,4,$2,$3,$4,$5,$6,$7,$8,$9,$2,$3,0*
0 Add four circle primitives for the rounded corners*
1,1,$1+$1,$2,$3*
1,1,$1+$1,$4,$5*
1,1,$1+$1,$6,$7*
1,1,$1+$1,$8,$9*
0 Add four rect primitives between the rounded corners*
20,1,$1+$1,$2,$3,$4,$5,0*
20,1,$1+$1,$4,$5,$6,$7,0*
20,1,$1+$1,$6,$7,$8,$9,0*
20,1,$1+$1,$8,$9,$2,$3,0*%
%AMFreePoly0*
4,1,14,0.732071,0.732071,0.735000,0.725000,0.735000,-0.725000,0.732071,-0.732071,0.725000,-0.735000,-0.725000,-0.735000,-0.732071,-0.732071,-0.735000,-0.725000,-0.735000,0.130500,-0.732071,0.137571,-0.137571,0.732071,-0.130500,0.735000,0.725000,0.735000,0.732071,0.732071,0.732071,0.732071,$1*%
G04 Aperture macros list end*
%ADD10RoundRect,0.010000X0.850000X-0.850000X0.850000X0.850000X-0.850000X0.850000X-0.850000X-0.850000X0*%
%ADD11O,1.720000X1.720000*%
%ADD12RoundRect,0.010000X-0.400000X-0.200000X0.400000X-0.200000X0.400000X0.200000X-0.400000X0.200000X0*%
%ADD13RoundRect,0.010000X-0.200000X-0.400000X0.200000X-0.400000X0.200000X0.400000X-0.200000X0.400000X0*%
%ADD14RoundRect,0.010000X-0.725000X-0.725000X0.725000X-0.725000X0.725000X0.725000X-0.725000X0.725000X0*%
%ADD15FreePoly0,0.000000*%
%ADD16RoundRect,0.010000X-0.350000X-0.350000X0.350000X-0.350000X0.350000X0.350000X-0.350000X0.350000X0*%
%ADD17RoundRect,0.260000X-0.600000X-0.675000X0.600000X-0.675000X0.600000X0.675000X-0.600000X0.675000X0*%
%ADD18O,1.720000X1.870000*%
G04 APERTURE END LIST*
D10*
%TO.C,J2*%
X105080000Y-56400000D03*
D11*
X102540000Y-56400000D03*
X100000000Y-56400000D03*
X97460000Y-56400000D03*
X94920000Y-56400000D03*
%TD*%
D12*
%TO.C,U1*%
X94100000Y-40193250D03*
X94100000Y-40993250D03*
X94100000Y-41793250D03*
X94100000Y-42593250D03*
X94100000Y-43393250D03*
X94100000Y-44193250D03*
X94100000Y-44993250D03*
X94100000Y-45793250D03*
X94100000Y-46593250D03*
X94100000Y-47393250D03*
X94100000Y-48193250D03*
D13*
X95200000Y-49093250D03*
X96000000Y-49093250D03*
X96800000Y-49093250D03*
X97600000Y-49093250D03*
X98400000Y-49093250D03*
X99200000Y-49093250D03*
X100000000Y-49093250D03*
X100800000Y-49093250D03*
X101600000Y-49093250D03*
X102400000Y-49093250D03*
X103200000Y-49093250D03*
X104000000Y-49093250D03*
X104800000Y-49093250D03*
D12*
X105900000Y-48193250D03*
X105900000Y-47393250D03*
X105900000Y-46593250D03*
X105900000Y-45793250D03*
X105900000Y-44993250D03*
X105900000Y-44193250D03*
X105900000Y-43393250D03*
X105900000Y-42593250D03*
X105900000Y-41793250D03*
X105900000Y-40993250D03*
X105900000Y-40193250D03*
D13*
X104800000Y-39293250D03*
X104000000Y-39293250D03*
X103200000Y-39293250D03*
X102400000Y-39293250D03*
X101600000Y-39293250D03*
X100800000Y-39293250D03*
X100000000Y-39293250D03*
X99200000Y-39293250D03*
X98400000Y-39293250D03*
X97600000Y-39293250D03*
X96800000Y-39293250D03*
X96000000Y-39293250D03*
X95200000Y-39293250D03*
D14*
X101975000Y-44193250D03*
X98025000Y-44193250D03*
X100000000Y-44193250D03*
X101975000Y-42218250D03*
X101975000Y-46168250D03*
D15*
X98025000Y-42218250D03*
D14*
X100000000Y-42218250D03*
X98025000Y-46168250D03*
X100000000Y-46168250D03*
D16*
X105950000Y-39243250D03*
X105950000Y-49143250D03*
X94050000Y-49143250D03*
X94050000Y-39243250D03*
%TD*%
D17*
%TO.C,J1*%
X96250000Y-51440000D03*
D18*
X98750000Y-51440000D03*
X101250000Y-51440000D03*
X103750000Y-51440000D03*
%TD*%
M02*
