%TF.GenerationSoftware,KiCad,Pcbnew,(6.0.9-0)*%
%TF.CreationDate,2023-01-05T14:31:27+00:00*%
%TF.ProjectId,Daikin,4461696b-696e-42e6-9b69-6361645f7063,1*%
%TF.SameCoordinates,Original*%
%TF.FileFunction,Paste,Top*%
%TF.FilePolarity,Positive*%
%FSLAX46Y46*%
G04 Gerber Fmt 4.6, Leading zero omitted, Abs format (unit mm)*
G04 Created by KiCad (PCBNEW (6.0.9-0)) date 2023-01-05 14:31:27*
%MOMM*%
%LPD*%
G01*
G04 APERTURE LIST*
G04 Aperture macros list*
%AMFreePoly0*
4,1,6,0.696000,-0.696000,-0.696000,-0.696000,-0.696000,0.118488,-0.118488,0.696000,0.696000,0.696000,0.696000,-0.696000,0.696000,-0.696000,$1*%
G04 Aperture macros list end*
%ADD10C,0.450000*%
%ADD11R,0.768000X0.384000*%
%ADD12R,0.384000X0.768000*%
%ADD13R,1.392000X1.392000*%
%ADD14FreePoly0,0.000000*%
%ADD15R,0.672000X0.672000*%
G04 APERTURE END LIST*
D10*
%TO.C,*%
X91605000Y-66655000D03*
X92115000Y-66655000D03*
X92625000Y-66655000D03*
X93135000Y-66655000D03*
X91605000Y-67165000D03*
X93645000Y-67165000D03*
X91605000Y-67675000D03*
X93645000Y-67675000D03*
X91605000Y-68185000D03*
X93645000Y-68185000D03*
X91605000Y-68695000D03*
X93645000Y-68695000D03*
X91605000Y-69205000D03*
X93645000Y-69205000D03*
X91605000Y-69715000D03*
X92115000Y-69715000D03*
X92625000Y-69715000D03*
X93135000Y-69715000D03*
X95175000Y-67675000D03*
X95685000Y-67675000D03*
X96195000Y-67675000D03*
X96705000Y-68185000D03*
X95175000Y-68695000D03*
X95685000Y-68695000D03*
X96195000Y-68695000D03*
X96705000Y-68695000D03*
X94665000Y-69205000D03*
X96705000Y-69205000D03*
X95175000Y-69715000D03*
X95685000Y-69715000D03*
X96195000Y-69715000D03*
X96705000Y-69715000D03*
X98745000Y-66655000D03*
X98235000Y-67675000D03*
X98745000Y-67675000D03*
X98745000Y-68185000D03*
X98745000Y-68695000D03*
X98745000Y-69205000D03*
X98235000Y-69715000D03*
X98745000Y-69715000D03*
X99255000Y-69715000D03*
X101295000Y-66655000D03*
X101295000Y-67165000D03*
X101295000Y-67675000D03*
X102825000Y-67675000D03*
X101295000Y-68185000D03*
X102315000Y-68185000D03*
X101295000Y-68695000D03*
X101805000Y-68695000D03*
X101295000Y-69205000D03*
X102315000Y-69205000D03*
X101295000Y-69715000D03*
X102825000Y-69715000D03*
X104865000Y-66655000D03*
X104355000Y-67675000D03*
X104865000Y-67675000D03*
X104865000Y-68185000D03*
X104865000Y-68695000D03*
X104865000Y-69205000D03*
X104355000Y-69715000D03*
X104865000Y-69715000D03*
X105375000Y-69715000D03*
X106905000Y-67675000D03*
X107415000Y-67675000D03*
X107925000Y-67675000D03*
X108435000Y-67675000D03*
X106905000Y-68185000D03*
X108945000Y-68185000D03*
X106905000Y-68695000D03*
X108945000Y-68695000D03*
X106905000Y-69205000D03*
X108945000Y-69205000D03*
X106905000Y-69715000D03*
X108945000Y-69715000D03*
%TD*%
D11*
%TO.C,U1*%
X93900000Y-40093250D03*
X93900000Y-40893250D03*
X93900000Y-41693250D03*
X93900000Y-42493250D03*
X93900000Y-43293250D03*
X93900000Y-44093250D03*
X93900000Y-44893250D03*
X93900000Y-45693250D03*
X93900000Y-46493250D03*
X93900000Y-47293250D03*
X93900000Y-48093250D03*
D12*
X95000000Y-48993250D03*
X95800000Y-48993250D03*
X96600000Y-48993250D03*
X97400000Y-48993250D03*
X98200000Y-48993250D03*
X99000000Y-48993250D03*
X99800000Y-48993250D03*
X100600000Y-48993250D03*
X101400000Y-48993250D03*
X102200000Y-48993250D03*
X103000000Y-48993250D03*
X103800000Y-48993250D03*
X104600000Y-48993250D03*
D11*
X105700000Y-48093250D03*
X105700000Y-47293250D03*
X105700000Y-46493250D03*
X105700000Y-45693250D03*
X105700000Y-44893250D03*
X105700000Y-44093250D03*
X105700000Y-43293250D03*
X105700000Y-42493250D03*
X105700000Y-41693250D03*
X105700000Y-40893250D03*
X105700000Y-40093250D03*
D12*
X104600000Y-39193250D03*
X103800000Y-39193250D03*
X103000000Y-39193250D03*
X102200000Y-39193250D03*
X101400000Y-39193250D03*
X100600000Y-39193250D03*
X99800000Y-39193250D03*
X99000000Y-39193250D03*
X98200000Y-39193250D03*
X97400000Y-39193250D03*
X96600000Y-39193250D03*
X95800000Y-39193250D03*
X95000000Y-39193250D03*
D13*
X97825000Y-46068250D03*
X101775000Y-44093250D03*
X97825000Y-44093250D03*
X99800000Y-44093250D03*
X101775000Y-42118250D03*
X99800000Y-46068250D03*
D14*
X97825000Y-42118250D03*
D13*
X99800000Y-42118250D03*
X101775000Y-46068250D03*
D15*
X105750000Y-39143250D03*
X105750000Y-49043250D03*
X93850000Y-49043250D03*
X93850000Y-39143250D03*
%TD*%
M02*
