M48
; DRILL file {KiCad (6.0.2-0)} date Monday, 04 April 2022 at 13:28:21
; FORMAT={-:-/ absolute / inch / decimal}
; #@! TF.CreationDate,2022-04-04T13:28:21+01:00
; #@! TF.GenerationSoftware,Kicad,Pcbnew,(6.0.2-0)
; #@! TF.FileFunction,Plated,1,2,PTH
FMAT,2
INCH
; #@! TA.AperFunction,Plated,PTH,ViaDrill
T1C0.0157
; #@! TA.AperFunction,Plated,PTH,ComponentDrill
T2C0.0335
; #@! TA.AperFunction,Plated,PTH,ComponentDrill
T3C0.0394
%
G90
G05
T1
X3.7214Y-1.9881
X3.7441Y-1.6339
X3.7441Y-2.1417
X3.7756Y-1.5984
X3.7884Y-1.8484
X3.8425Y-1.7638
X3.8535Y-1.8742
X3.9921Y-1.8935
X4.0576Y-1.6095
X4.0591Y-1.8661
X4.0984Y-1.6083
X4.0987Y-1.8383
X4.1299Y-1.7676
X4.1395Y-1.8387
X4.1496Y-2.0
X4.1496Y-2.1417
T2
X3.7894Y-2.0252
X3.8878Y-2.0252
X3.9862Y-2.0252
X4.0846Y-2.0252
T3
X3.737Y-2.2205
X3.837Y-2.2205
X3.937Y-2.2205
X4.037Y-2.2205
X4.137Y-2.2205
T0
M30
